<svg xmlns="http://www.w3.org/2000/svg" width="176" height="273.646" viewBox="0 0 176 273.646">
  <g id="humaaans_standing-6" data-name="humaaans/standing-6" transform="translate(-55.081 -33.61)">
    <g id="humaaan-3" transform="translate(55.081 33.61)">
      <g id="Bottom_Standing_Sprint" data-name="Bottom/Standing/Sprint" transform="translate(0 96.402)">
        <path id="Leg" d="M68.938,0C56.247,10.353,61.247,101.334,60.4,102.478q-.565.762-60.4,12.884l1.735,7.044q70.014-3.352,74.085-8.549,5.829-7.44,14.291-83.314Z" transform="matrix(0.574, -0.819, 0.819, 0.574, 21.52, 74.984)" fill="#b28b67" fill-rule="evenodd"/>
        <path id="Pant" d="M0,112.613l3.055,11.345c34.8,4.064,57.734-.846,65.794-8.523q8.06-7.675,14.329-83.088L60.527,0C30.314,22.8,48.484,97.651,47.714,99.361S28.6,102.392,0,112.613Z" transform="matrix(0.574, -0.819, 0.819, 0.574, 25.552, 68.135)" fill="#2f3676" fill-rule="evenodd"/>
        <g id="Accessories_Shoe_Flat-Sneaker" data-name="Accessories/Shoe/Flat-Sneaker" transform="matrix(0.94, 0.342, -0.342, 0.94, 113.845, 135.721)">
          <path id="shoe" d="M1.118,4.044A14.306,14.306,0,0,0,0,8.511a33.433,33.433,0,0,0,.6,5.26H38.18q1.465-4.843-1.691-5.229t-5.244-.7L13.779.058A.666.666,0,0,0,12.9.4l-.007.017L11.769,3.136A11.982,11.982,0,0,1,7.02,4.5a10.753,10.753,0,0,1-4.1-1.2h0a1.333,1.333,0,0,0-1.767.656Q1.135,4,1.118,4.044Z" transform="translate(0 0)" fill="#e4e4e4" fill-rule="evenodd"/>
        </g>
        <path id="Leg-2" data-name="Leg" d="M98.039,0,63.562,82.451,29.676,152.156h7.995L125.14,0Z" transform="translate(-28.079 18.514)" fill="#997659" fill-rule="evenodd"/>
        <g id="Accessories_Shoe_Flat-Sneaker-2" data-name="Accessories/Shoe/Flat-Sneaker" transform="translate(0 163.473)">
          <path id="shoe-2" data-name="shoe" d="M2.2,24.985a14.306,14.306,0,0,0-1.118,4.467,33.433,33.433,0,0,0,.6,5.26h37.58q1.465-4.843-1.691-5.229t-5.244-.7L14.862,21a.666.666,0,0,0-.88.337l-.007.017-1.123,2.724A11.982,11.982,0,0,1,8.1,25.44a10.753,10.753,0,0,1-4.1-1.2H4a1.333,1.333,0,0,0-1.767.656Q2.218,24.941,2.2,24.985Z" transform="translate(-1.083 -20.941)" fill="#e4e4e4" fill-rule="evenodd"/>
        </g>
        <path id="Pant-2" data-name="Pant" d="M34.651,137.676l17.765,3.318C66.151,120.878,123.635,38.4,129.937,0H90.389C69.342,27.757,47.744,117.227,34.651,137.676Z" transform="translate(-29.994 18.514)" fill="#5c63ab" fill-rule="evenodd"/>
      </g>
      <g id="Head_Front_Wavy" data-name="Head/Front/Wavy" transform="translate(59.175 0) rotate(14)">
        <g id="Head" transform="translate(25.319 5.283)">
          <path id="Path_5" data-name="Path 5" d="M5.505,22.777C2.435,19.205.357,14.828.7,9.923,1.7-4.21,21.553-1.1,25.414,6.032s3.4,25.226-1.588,26.5c-1.99.508-6.229-.737-10.544-3.315l2.708,18.99H0Z" transform="translate(0 0)" fill="#b28b67" fill-rule="evenodd"/>
        </g>
        <path id="hair" d="M52.243,14.518a18.021,18.021,0,0,0-.857-2.826,13.194,13.194,0,0,0-1.683-3.1A23.531,23.531,0,0,0,45.252,3.8,14.628,14.628,0,0,0,34.485.372a11.107,11.107,0,0,0-5.4,2.178c-1.441,1.1-2.828,2.714-4.694,2.83C22.36,5.507,20.5,3.73,18.87,2.633A14.905,14.905,0,0,0,12.935.145a9.916,9.916,0,0,0-9.45,3.541C.848,6.8-1.069,11.359.662,15.481a5.288,5.288,0,0,0,1.33,1.948c.545.491,1.377,1.013,1.6,1.8.235.834-.466,1.91-.738,2.662a7.772,7.772,0,0,0-.6,3.381,8.694,8.694,0,0,0,2.7,5.026A8.987,8.987,0,0,0,9.6,32.662a13.157,13.157,0,0,0,3.5.267,10.97,10.97,0,0,0,1.656-.329,1.507,1.507,0,0,1,1.317.318,10.88,10.88,0,0,0,6.964,1.711,11.26,11.26,0,0,0,6.237-2.105c1.9-1.585,1.866-3.77,1.418-6.1.475.233,1.788.377,1-.552a4.257,4.257,0,0,0-1.3-.734,4.712,4.712,0,0,1-1.3-.989c-1.456-1.66.015-5.038,1.844-5.595,2.719-.827,3.327,2.984,5.268,3.97,1.116.567,2.283-.208,3.119-1a12.366,12.366,0,0,0,2.542-3.892c.543-1.176,1.048-2.369,1.6-3.54.258-.547,1.153-2.092.7-2.71a8.434,8.434,0,0,1,5.793,1.469,3.941,3.941,0,0,1,1.591,1.682c.079.165.252.653.468.673.4.037.253-.451.213-.683" transform="translate(0 0)" fill="#191847" fill-rule="evenodd"/>
      </g>
      <g id="Body_Hoodie" data-name="Body/Hoodie" transform="translate(21.383 43.871) rotate(1)">
        <path id="Skin" d="M104.353,0l21.253,15.53a57.362,57.362,0,0,1,14.447,5.777c.914.828,2.018,2.506-1.771,2.216s-7.787-.425-8.31.861,1.77,2.823.714,4.558q-1.057,1.735-9.985-8.7L99.654,11.557ZM22.75.536,36.674.591Q23.778,42.015,22.75,44.55c-1.542,3.8,1.721,9.592,3.116,12.7-4.544,2.024-4.06-5.469-9.792-2.816-5.232,2.422-9.212,6.811-15.257,3.1-.743-.456-1.558-2.174.41-3.517,4.9-3.345,11.967-9.2,12.922-11.126Q16.1,38.952,22.75.536Z" transform="translate(0 63.466)" fill="#b28b67" fill-rule="evenodd"/>
        <path id="Coat-Back" d="M0,1.482,5.654,0c22.9,16.442,34.72,50.844,62.453,67.19l-5.6,8.3C16.731,73.871,1.754,31.958,0,1.482Z" transform="translate(62.448 4.389) rotate(5)" fill="#e87613" fill-rule="evenodd"/>
        <path id="Shirt" d="M0,75.582H50.978c2.329,0,1.891-3.347,1.554-5.036-3.886-19.493-19.057-40.5-19.057-68.252L18.771,0C6.608,19.465,2.4,43.43,0,75.582Z" transform="translate(37.204 2.329)" fill="#dde3e9" fill-rule="evenodd"/>
        <path id="Coat-Front" d="M23.818,21.462a8.4,8.4,0,0,1-5.074-4.274C13.37,7.538,15.311,2.225,21.055.478S31.921,2.329,41.072,2.329a9.254,9.254,0,0,1,1.368.093l4.6.261Q66.854,69.5,57.97,91.835H17.847a135.847,135.847,0,0,1-6.825,13.923H.089Q-1.455,56.1,23.818,21.462Z" transform="translate(13.795 0)" fill="#ff9b21" fill-rule="evenodd"/>
        <path id="Shade" d="M8.737,0Q10.63,15.76,14.89,22.875H0Q4.16,13.224,8.737,0Z" transform="translate(31.641 68.959)" fill="rgba(0,0,0,0.1)" fill-rule="evenodd"/>
      </g>
    </g>
  </g>
</svg>
