<svg xmlns="http://www.w3.org/2000/svg" xmlns:xlink="http://www.w3.org/1999/xlink" width="65" height="65" viewBox="0 0 65 65">
  <defs>
    <clipPath id="clip-path">
      <circle id="Ellipse_58" data-name="Ellipse 58" cx="32.5" cy="32.5" r="32.5" transform="translate(57 1392)" fill="#fff" stroke="#707070" stroke-width="1" opacity="0.72"/>
    </clipPath>
  </defs>
  <g id="Group_237" data-name="Group 237" transform="translate(-57 -1399)">
    <g id="Group_118" data-name="Group 118" transform="translate(0 7)">
      <g id="Ellipse_18" data-name="Ellipse 18" transform="translate(57 1392)" fill="rgba(233,54,88,0.24)" stroke="#e93658" stroke-width="1">
        <circle cx="32.5" cy="32.5" r="32.5" stroke="none"/>
        <circle cx="32.5" cy="32.5" r="32" fill="none"/>
      </g>
      <g id="Mask_Group_25" data-name="Mask Group 25" clip-path="url(#clip-path)">
        <g id="_009-pain-in-joints" data-name="009-pain-in-joints" transform="translate(58.341 1401)">
          <g id="Group_106" data-name="Group 106" transform="translate(0 0)">
            <path id="Path_440" data-name="Path 440" d="M15.892,82.839l.134,18.242,10.807,1.007,8.935-.984,2.968-18.071.538-12.47a14.207,14.207,0,0,0-12.62-14.732L.627,52.929A.564.564,0,0,0,0,53.49v9.894l.984,3.909L0,71.712v5.722l2.834.984h9.3c2.063,0,3.755,2.4,3.755,4.42Z" transform="translate(0 -47.137)" fill="#fdd4bb"/>
            <g id="Group_103" data-name="Group 103" transform="translate(0 30.298)">
              <path id="Path_441" data-name="Path 441" d="M146.527,493.209l.011,1.495a.565.565,0,0,0,.564.56h18.353a.565.565,0,0,0,.557-.473l.256-1.559Z" transform="translate(-130.501 -469.563)" fill="#f7c4a8"/>
              <path id="Path_442" data-name="Path 442" d="M15.908,282.807l-.016-2.069a3.755,3.755,0,0,0-3.755-3.727H0v1.468a.565.565,0,0,0,.564.564H12.137A3.8,3.8,0,0,1,15.908,282.807Z" transform="translate(0 -277.011)" fill="#f7c4a8"/>
            </g>
            <g id="Group_104" data-name="Group 104" transform="translate(0 13.946)">
              <path id="Path_443" data-name="Path 443" d="M17.065,137.306c1.281,1.64,3.7,4.969,6.08,3.931a2.426,2.426,0,0,0,1.167-2.358c-.243-1.433-.836-2.968-1.034-3.966-.565-2.844-.3-7.405-3.634-7.405a3.859,3.859,0,0,0-3.573,2.3H0v6.3l1.573.984H16.62A.565.565,0,0,1,17.065,137.306Z" transform="translate(0 -127.507)" fill="#ebf2f8"/>
              <path id="Path_444" data-name="Path 444" d="M253.3,165c0,2.652,1.44,4.578,2.816,4.578s2.816-2.048,2.816-4.578c-.29-2.057-1.44-3.593-2.816-3.593S253.586,162.948,253.3,165Z" transform="translate(-225.592 -157.703)" fill="#ebf2f8"/>
              <path id="Path_445" data-name="Path 445" d="M188.3,308.764l.21,1.212V323.43l3.787.984,3.811-.984v-12.57l.261-1.208a5.243,5.243,0,0,0,2.835-4.605,3.451,3.451,0,0,0-1.463-2.252c-1.649-.879-4.085,1.008-6.871.033a3.389,3.389,0,0,0-4.583,2.3,4.491,4.491,0,0,0,2.013,3.638Z" transform="translate(-165.915 -283.408)" fill="#ebf2f8"/>
            </g>
            <path id="Path_446" data-name="Path 446" d="M406.772,83.01l6.434-2.735a.564.564,0,0,0,.156-.94l-1.2-1.074a.565.565,0,0,1,.134-.93l4.544-2.164a.564.564,0,0,0,.149-.916L413.6,70.979a.564.564,0,0,0-.794.01l-5.762,5.842a.564.564,0,0,0,.045.834l.936.765a.565.565,0,0,1,.108.756l-2.046,2.985a.564.564,0,0,0,.686.839Z" transform="translate(-361.579 -63.075)" fill="#ffde91"/>
            <path id="Path_447" data-name="Path 447" d="M348.637,10.545l2-4.739a.564.564,0,0,0-.542-.784l-.979.037a.565.565,0,0,1-.55-.761L349.886.762A.565.565,0,0,0,349.357,0h-3.569a.565.565,0,0,0-.565.559l-.058,6.449a.565.565,0,0,0,.612.568l.764-.065a.564.564,0,0,1,.6.468l.415,2.441A.565.565,0,0,0,348.637,10.545Z" transform="translate(-307.413 0)" fill="#ffde91"/>
            <path id="Path_448" data-name="Path 448" d="M412.78,231.663l4.739,2a.564.564,0,0,0,.784-.542l-.037-.979a.565.565,0,0,1,.761-.551l3.537,1.319a.564.564,0,0,0,.762-.529v-3.569a.564.564,0,0,0-.559-.564l-6.449-.058a.565.565,0,0,0-.568.612l.065.764a.564.564,0,0,1-.468.6l-2.441.415A.564.564,0,0,0,412.78,231.663Z" transform="translate(-367.325 -203.233)" fill="#ffde91"/>
            <g id="Group_105" data-name="Group 105" transform="translate(20.242 35.584)">
              <path id="Path_449" data-name="Path 449" d="M187.216,328.724a5.717,5.717,0,0,1-2.013-2.654,4.053,4.053,0,0,0-.1,1.545,5.4,5.4,0,0,0,2.324,3.306v-1.758A.562.562,0,0,0,187.216,328.724Z" transform="translate(-185.07 -325.991)" fill="#d6e3ed"/>
              <path id="Path_450" data-name="Path 450" d="M276.079,329.442v1.717c2.959-1.748,3.492-4.081,3.1-5.813a5.912,5.912,0,0,1-2.835,3.621A.563.563,0,0,0,276.079,329.442Z" transform="translate(-266.125 -325.345)" fill="#d6e3ed"/>
              <path id="Path_451" data-name="Path 451" d="M206.611,493.419h7.6v2.032h-7.6Z" transform="translate(-204.255 -475.036)" fill="#d6e3ed"/>
            </g>
            <path id="Path_452" data-name="Path 452" d="M255.531,197.859c-1.376,0-2.526-1.537-2.816-3.593a7.271,7.271,0,0,0-.071,1.016c0,2.546,1.293,4.61,2.887,4.61s2.887-2.064,2.887-4.61a7.284,7.284,0,0,0-.071-1.016C258.058,196.322,256.907,197.859,255.531,197.859Z" transform="translate(-225.011 -173.017)" fill="#d6e3ed"/>
            <path id="Path_453" data-name="Path 453" d="M23.145,210.259c-2.384,1.038-4.8-2.291-6.08-3.931a.564.564,0,0,0-.445-.217H0v2.032H16.13c1.228,1.538,4.52,5.234,7.015,4.148,1.3-.565,1.418-1.932,1.167-3.406a1.968,1.968,0,0,1-1.167,1.374Z" transform="translate(0 -183.568)" fill="#d6e3ed"/>
          </g>
        </g>
      </g>
    </g>
    <g id="Group_236" data-name="Group 236" transform="translate(-199 448)">
      <g id="Ellipse_13" data-name="Ellipse 13" transform="translate(256 951)" fill="none" stroke="#e93658" stroke-width="1">
        <circle cx="32.5" cy="32.5" r="32.5" stroke="none"/>
        <circle cx="32.5" cy="32.5" r="32" fill="none"/>
      </g>
    </g>
  </g>
</svg>
