<svg xmlns="http://www.w3.org/2000/svg" width="91" height="112" viewBox="0 0 91 112">
  <g id="Group_386" data-name="Group 386" transform="translate(-154 -2506)">
    <rect id="Rectangle_106" data-name="Rectangle 106" width="91" height="112" rx="12" transform="translate(154 2506)" fill="#ffcf85"/>
    <text id="Chest_pain_or_pressure" data-name="Chest pain 
or pressure" transform="translate(200 2588.865)" fill="#fff" font-size="10" font-family="Poppins-Regular, Poppins"><tspan x="-28.45" y="0">Chest pain </tspan><tspan x="-28.13" y="11">or pressure</tspan></text>
    <g id="Group_375" data-name="Group 375" transform="translate(-1270.773 269.135)">
      <g id="_006-chest-pain-or-pressure" data-name="006-chest-pain-or-pressure" transform="translate(1443.132 2251)">
        <g id="Group_144" data-name="Group 144" transform="translate(0 0)">
          <path id="Path_566" data-name="Path 566" d="M9.787,309.863l4.206.984,4.184-.984,2.162-3.942a.547.547,0,0,1,1.026.263v3.679l15.351.984,15.351-.984v-3.679a.547.547,0,0,1,1.026-.263l2.162,3.942,4.551.984,3.839-.984L56.57,296.429a16.093,16.093,0,0,0-10.8-8.221l-4.055-.888h-10l-4.055.888a16.093,16.093,0,0,0-10.8,8.221Z" transform="translate(-9.075 -255.895)" fill="#fdd4bb"/>
          <path id="Path_567" data-name="Path 567" d="M249.771,400.325c0,3.474,3.837,5.375,4.762,5.875a.543.543,0,0,0,.517,0c.926-.5,4.762-2.551,4.762-5.875-.785-2.772-4.42-2.374-5.021-.456C254.191,397.951,250.556,397.553,249.771,400.325Z" transform="translate(-222.811 -354.77)" fill="#f4594e"/>
          <path id="Path_568" data-name="Path 568" d="M102.814,18.229a19.1,19.1,0,0,1-3.2-10.239.437.437,0,0,1,.5-.439,7.736,7.736,0,0,0,3.005-.092C106.342,6.589,109.513.2,115.1.009s6.67,2.421,6.67,2.421a8.489,8.489,0,0,1,5.124-.807c4.594.621,8.628,7.619,4.527,17.232Z" transform="translate(-89.076 0)" fill="#e5907b"/>
          <g id="Group_142" data-name="Group 142" transform="translate(12.035 17.806)">
            <path id="Path_569" data-name="Path 569" d="M114.763,165.109a3.173,3.173,0,0,0,3.167,3.294s1.6-1.423,1.6-1.4c0-.009,0-.018,0-.026l.984-2.032-.984-1.74a3.327,3.327,0,0,0-4.767,1.9Z" transform="translate(-114.604 -162.799)" fill="#ebbaa1"/>
            <path id="Path_570" data-name="Path 570" d="M116.639,186.229a3.327,3.327,0,0,1-3.167-2.31,3.326,3.326,0,0,0,4.947,3.826l.859-.881-1.038-1.047A3.306,3.306,0,0,1,116.639,186.229Z" transform="translate(-113.313 -181.609)" fill="#e8a990"/>
            <path id="Path_571" data-name="Path 571" d="M350.4,165.109a3.173,3.173,0,0,1-3.167,3.294s-1.6-1.423-1.6-1.4c0-.009,0-.018,0-.026l-.984-2.032.984-1.74a3.327,3.327,0,0,1,4.768,1.9Z" transform="translate(-319.347 -162.799)" fill="#ebbaa1"/>
            <path id="Path_572" data-name="Path 572" d="M346.793,186.229a3.327,3.327,0,0,0,3.167-2.31,3.326,3.326,0,0,1-4.947,3.826l-.859-.881,1.037-1.047A3.307,3.307,0,0,0,346.793,186.229Z" transform="translate(-318.907 -181.609)" fill="#e8a990"/>
          </g>
          <path id="Path_573" data-name="Path 573" d="M169.033,95.3c5.9,0,10.68-4.564,10.68-11.665V80.572a3.354,3.354,0,0,0-1.068-2.468,40.743,40.743,0,0,1-5.106-6.351.565.565,0,0,0-.887-.063,24.151,24.151,0,0,1-12.933,7.06,1.692,1.692,0,0,0-1.366,1.661v3.229C158.353,91.1,163.135,95.3,169.033,95.3Z" transform="translate(-141.392 -63.682)" fill="#fdd4bb"/>
          <path id="Path_574" data-name="Path 574" d="M228.317,215.809a3.453,3.453,0,0,0-3.389,2.8.549.549,0,0,0,.536.657h5.706a.549.549,0,0,0,.536-.657,3.453,3.453,0,0,0-3.389-2.795Z" transform="translate(-200.675 -192.205)" fill="#f4594e"/>
          <path id="Path_575" data-name="Path 575" d="M169.032,193.132a10.68,10.68,0,0,1-10.68-10.68v2.032a10.68,10.68,0,0,0,21.36,0v-2.032A10.68,10.68,0,0,1,169.032,193.132Z" transform="translate(-141.391 -162.496)" fill="#f7c4a8"/>
          <path id="Path_576" data-name="Path 576" d="M258.65,416.5c-.707,2.538-3.837,4.39-4.762,4.89a.54.54,0,0,1-.517,0c-.926-.5-4.056-2.352-4.762-4.89a3.714,3.714,0,0,0-.109.518c-.451,3.3,3.767,5.808,4.87,6.4a.545.545,0,0,0,.52,0c1.1-.6,5.322-3.1,4.87-6.4A3.75,3.75,0,0,0,258.65,416.5Z" transform="translate(-221.648 -370.947)" fill="#e84642"/>
          <g id="Group_143" data-name="Group 143" transform="translate(0 53.968)">
            <path id="Path_577" data-name="Path 577" d="M3.99,493.418l-.648,1.23a.547.547,0,0,0,.484.8h7.116a.547.547,0,0,0,.479-.284l.959-1.749Z" transform="translate(-3.278 -493.418)" fill="#f7c4a8"/>
            <path id="Path_578" data-name="Path 578" d="M116.2,495.451h29.607a.547.547,0,0,0,.547-.547v-1.485h-30.7V494.9A.547.547,0,0,0,116.2,495.451Z" transform="translate(-103.361 -493.419)" fill="#f7c4a8"/>
            <path id="Path_579" data-name="Path 579" d="M425.5,493.419l.959,1.748a.546.546,0,0,0,.479.284h7.115a.547.547,0,0,0,.484-.8l-.648-1.23Z" transform="translate(-379.322 -493.419)" fill="#f7c4a8"/>
          </g>
        </g>
        <g id="Group_146" data-name="Group 146" transform="translate(20.857 17.408)">
          <path id="Path_580" data-name="Path 580" d="M194.084,162.789a.847.847,0,0,0,1.155.323l2.189-1.232a.849.849,0,0,0-.027-1.493l-2.189-1.129a.848.848,0,1,0-.778,1.508l.79.408-.817.46A.848.848,0,0,0,194.084,162.789Z" transform="translate(-193.974 -159.162)" fill="#565e75"/>
          <path id="Path_581" data-name="Path 581" d="M282.929,161.88l2.188,1.232a.849.849,0,0,0,.833-1.479l-.818-.46.79-.408a.848.848,0,0,0-.778-1.508l-2.189,1.129a.848.848,0,0,0-.027,1.494Z" transform="translate(-272.815 -159.162)" fill="#565e75"/>
          <g id="Group_145" data-name="Group 145" transform="translate(0.162 17.194)">
            <path id="Path_582" data-name="Path 582" d="M361.313,357.995a.849.849,0,0,0,1.165-.29l1.334-2.22a.849.849,0,0,0-.727-1.286h-.818l.687-1.147a.849.849,0,0,0-1.456-.872l-1.457,2.432a.849.849,0,0,0,.728,1.284h.816l-.562.934A.849.849,0,0,0,361.313,357.995Z" transform="translate(-341.932 -347.895)" fill="#f4594e"/>
            <path id="Path_583" data-name="Path 583" d="M197.282,358.115a.848.848,0,0,0,.728-.411l1.334-2.22a.848.848,0,0,0-.727-1.285H197.8l.687-1.147a.848.848,0,0,0-1.456-.872l-1.457,2.432a.849.849,0,0,0,.728,1.284h.816l-.562.934a.848.848,0,0,0,.726,1.285Z" transform="translate(-195.454 -347.895)" fill="#f4594e"/>
            <path id="Path_584" data-name="Path 584" d="M280.063,316.484a.848.848,0,0,0-1.164.292l-1.457,2.431a.849.849,0,0,0,.728,1.284h.816l-.562.934a.848.848,0,1,0,1.454.874l1.334-2.22a.849.849,0,0,0-.728-1.285h-.818l.688-1.147A.849.849,0,0,0,280.063,316.484Z" transform="translate(-268.367 -316.363)" fill="#f4594e"/>
          </g>
        </g>
      </g>
    </g>
  </g>
</svg>
