<svg xmlns="http://www.w3.org/2000/svg" width="91" height="112" viewBox="0 0 91 112">
  <g id="Group_394" data-name="Group 394" transform="translate(-50 -2204)">
    <rect id="Rectangle_100" data-name="Rectangle 100" width="91" height="112" rx="8" transform="translate(50 2204)" fill="#ffcf85"/>
    <text id="Conjunctivitis" transform="translate(96 2297.094)" fill="#fff" font-size="11" font-family="Poppins-Regular, Poppins"><tspan x="-37.048" y="0">Conjunctivitis</tspan></text>
    <g id="_005-conjuctivitis" data-name="005-conjuctivitis" transform="translate(69.291 2231.906)">
      <path id="Path_403" data-name="Path 403" d="M5.8,158.2c2.025,4.243,11.339,13.915,25.615,13.915S55.605,161.8,57.032,158.2h0a35.973,35.973,0,0,0-5.075-5.2l-.84.122-.488-1.187a34.289,34.289,0,0,0-6.391-3.881l-1.293.116-.217-.769a30.137,30.137,0,0,0-11.312-2.192,30.731,30.731,0,0,0-16.187,4.65l-.255.759-1.221.2A36.612,36.612,0,0,0,5.8,158.2h0Z" transform="translate(-5.207 -139.997)" fill="#ffa6d5"/>
      <path id="Path_404" data-name="Path 404" d="M159.069,193.09a9.888,9.888,0,0,0,9.924,9.936,10.143,10.143,0,0,0,9.924-9.936,9.97,9.97,0,0,0-19.848,0Z" transform="translate(-142.784 -174.885)" fill="#adf0ff"/>
      <path id="Path_405" data-name="Path 405" d="M204.224,233.269a5.4,5.4,0,0,0,5.3,5.353c2.475,0,5.19-2.225,5.19-4.864a2.373,2.373,0,0,1-2.359-4.117,5.387,5.387,0,0,0-8.132,3.628Z" transform="translate(-183.316 -215.063)" fill="#95d6a4"/>
      <g id="Group_94" data-name="Group 94" transform="translate(0 0)">
        <path id="Path_406" data-name="Path 406" d="M.3,107.336a.77.77,0,0,0,1.08-.136A30.221,30.221,0,0,1,7.814,101.5a32.714,32.714,0,0,1,36.793,0A30.246,30.246,0,0,1,51.04,107.2a.77.77,0,1,0,1.218-.943,31.082,31.082,0,0,0-6.74-5.994,34.256,34.256,0,0,0-38.616,0,31.091,31.091,0,0,0-6.74,5.994.77.77,0,0,0,.137,1.08Z" transform="translate(-0.001 -94.302)" fill="#565e75"/>
      </g>
      <g id="Group_95" data-name="Group 95" transform="translate(20.822 18.205)">
        <path id="Path_407" data-name="Path 407" d="M213.959,272.612a5.386,5.386,0,0,1-10.49-.489,5.387,5.387,0,1,0,10.658.388C214.072,272.547,214.016,272.58,213.959,272.612Z" transform="translate(-203.382 -272.123)" fill="#78c2a4"/>
      </g>
      <path id="Path_408" data-name="Path 408" d="M168.592,281.137a9.97,9.97,0,0,1-9.924-9.014c-.03.315-.046.633-.046.955a9.97,9.97,0,0,0,19.939,0c0-.322-.016-.641-.046-.955A9.97,9.97,0,0,1,168.592,281.137Z" transform="translate(-142.382 -253.918)" fill="#8deaf5"/>
      <g id="Group_96" data-name="Group 96" transform="translate(0.491 18.205)">
        <path id="Path_409" data-name="Path 409" d="M5.177,272.175l-.041-.052-.076.1Z" transform="translate(-5.033 -272.123)" fill="#ff90d1"/>
        <path id="Path_410" data-name="Path 410" d="M56.623,272.777c-.117-.161-.283-.383-.5-.654-2.47,3.146-11.339,12.993-25.615,12.993-12.657,0-21.063-7.739-24.528-11.687l-.763-.169-.427.641a36.51,36.51,0,0,0,10.051,8.788l1.2-.008.317.85a30.408,30.408,0,0,0,14.146,3.5,30.912,30.912,0,0,0,17.1-5.229l.271-.731,1.069-.192a35.684,35.684,0,0,0,7.67-7.495A.512.512,0,0,0,56.623,272.777Z" transform="translate(-4.793 -272.123)" fill="#ff90d1"/>
      </g>
      <g id="Group_97" data-name="Group 97" transform="translate(0 7.404)">
        <path id="Path_411" data-name="Path 411" d="M87.872,194.473a.776.776,0,0,1-.343.081.767.767,0,0,1-.687-.425c-.44-.88-2.173-1.962-3.362-2.55q.71-.485,1.475-.955a8.376,8.376,0,0,1,3.261,2.82A.769.769,0,0,1,87.872,194.473Z" transform="translate(-74.933 -188.167)" fill="#f4594e"/>
        <path id="Path_412" data-name="Path 412" d="M11.872,262.861a.767.767,0,0,1-1.06.237,4.938,4.938,0,0,1-2.3-3.255c-.23-.81-.37-1.3-1.179-1.689-.868-.419-2.419-.34-4.368.223a21.74,21.74,0,0,0-2.479.895C.327,259.06.2,258.884.1,258.75a.513.513,0,0,1,0-.6c.1-.14.242-.328.418-.554h0c1.812-.725,5.33-1.863,7.489-.821a4.064,4.064,0,0,1,.5.288l2.6-1.166a.768.768,0,1,1,.628,1.4l-2.162.967a6.354,6.354,0,0,1,.417,1.162,3.449,3.449,0,0,0,1.642,2.378A.767.767,0,0,1,11.872,262.861Z" transform="translate(0 -246.692)" fill="#f4594e"/>
        <path id="Path_413" data-name="Path 413" d="M107.547,344.454c-.43,1.134-1.966,2.332-3.056,3.069-.524-.272-1.03-.554-1.521-.843,1.178-.725,2.83-1.952,3.141-2.771a.768.768,0,0,1,1.436.545Z" transform="translate(-92.428 -325.314)" fill="#f4594e"/>
        <path id="Path_414" data-name="Path 414" d="M384.3,336.312q-.643.467-1.339.923c-1.265-.894-2.871-1.816-3.8-1.816a.768.768,0,1,1,0-1.536C380.816,333.884,383.112,335.422,384.3,336.312Z" transform="translate(-339.65 -316.76)" fill="#f4594e"/>
        <path id="Path_415" data-name="Path 415" d="M348.232,167.277a8.135,8.135,0,0,0-2.243,3.282.768.768,0,0,1-.752.619.746.746,0,0,1-.149-.014.768.768,0,0,1-.605-.9,7.173,7.173,0,0,1,1.729-3.07c.177-.207.35-.4.511-.568C347.238,166.831,347.742,167.05,348.232,167.277Z" transform="translate(-309.201 -166.624)" fill="#f4594e"/>
        <path id="Path_416" data-name="Path 416" d="M392.551,219.405a.768.768,0,0,1-.622.891.754.754,0,0,1-.135.012.768.768,0,0,1-.756-.633l-.442-2.482a18.615,18.615,0,0,0-2.444,1.11.768.768,0,1,1-.758-1.336,20.063,20.063,0,0,1,3.246-1.417c.185-.061.849-.432,1.6-2.633a20.03,20.03,0,0,0,.562-2c.465.355.907.712,1.328,1.065a10.229,10.229,0,0,1-2.112,4.462Z" transform="translate(-347.384 -206.38)" fill="#f4594e"/>
      </g>
    </g>
  </g>
</svg>
