<svg xmlns="http://www.w3.org/2000/svg" width="65" height="65" viewBox="0 0 65 65">
  <g id="Group_117" data-name="Group 117" transform="translate(-56 -1489)">
    <g id="Ellipse_21" data-name="Ellipse 21" transform="translate(56 1489)" fill="rgba(233,54,88,0.24)" stroke="#e93658" stroke-width="1">
      <circle cx="32.5" cy="32.5" r="32.5" stroke="none"/>
      <circle cx="32.5" cy="32.5" r="32" fill="none"/>
    </g>
    <g id="_005-conjuctivitis" data-name="005-conjuctivitis" transform="translate(67.081 1507.655)">
      <path id="Path_403" data-name="Path 403" d="M5.8,156.075c1.693,3.549,9.483,11.637,21.422,11.637s20.229-8.628,21.422-11.637h0a30.084,30.084,0,0,0-4.244-4.35l-.7.1-.408-.993a28.676,28.676,0,0,0-5.344-3.246l-1.081.1-.182-.643a25.2,25.2,0,0,0-9.46-1.833A25.7,25.7,0,0,0,13.686,149.1l-.213.635-1.021.164A30.619,30.619,0,0,0,5.8,156.075h0Z" transform="translate(-5.304 -140.85)" fill="#ffa6d5"/>
      <path id="Path_404" data-name="Path 404" d="M159.069,191.615a8.27,8.27,0,0,0,8.3,8.309,8.482,8.482,0,0,0,8.3-8.309,8.338,8.338,0,0,0-16.6,0Z" transform="translate(-145.449 -176.389)" fill="#adf0ff"/>
      <path id="Path_405" data-name="Path 405" d="M204.224,232.543a4.512,4.512,0,0,0,4.433,4.477,4.466,4.466,0,0,0,4.34-4.068,1.984,1.984,0,0,1-1.973-3.443,4.505,4.505,0,0,0-6.8,3.034Z" transform="translate(-186.738 -217.318)" fill="#95d6a4"/>
      <g id="Group_94" data-name="Group 94" transform="translate(0 0)">
        <path id="Path_406" data-name="Path 406" d="M.25,105.2a.644.644,0,0,0,.9-.114,25.274,25.274,0,0,1,5.381-4.763,27.359,27.359,0,0,1,30.77,0,25.3,25.3,0,0,1,5.381,4.762A.644.644,0,1,0,43.7,104.3a25.994,25.994,0,0,0-5.637-5.013,28.649,28.649,0,0,0-32.3,0A26,26,0,0,0,.135,104.3a.644.644,0,0,0,.115.9Z" transform="translate(-0.001 -94.302)" fill="#565e75"/>
      </g>
      <g id="Group_95" data-name="Group 95" transform="translate(17.414 15.225)">
        <path id="Path_407" data-name="Path 407" d="M212.227,272.532a4.5,4.5,0,0,1-8.773-.409,4.5,4.5,0,1,0,8.913.324C212.322,272.477,212.275,272.505,212.227,272.532Z" transform="translate(-203.382 -272.123)" fill="#78c2a4"/>
      </g>
      <path id="Path_408" data-name="Path 408" d="M166.96,279.662a8.338,8.338,0,0,1-8.3-7.539c-.025.263-.038.529-.038.8a8.338,8.338,0,1,0,16.675,0c0-.27-.013-.536-.038-.8A8.338,8.338,0,0,1,166.96,279.662Z" transform="translate(-145.041 -256.898)" fill="#8deaf5"/>
      <g id="Group_96" data-name="Group 96" transform="translate(0.41 15.225)">
        <path id="Path_409" data-name="Path 409" d="M5.158,272.166l-.034-.043-.063.082Z" transform="translate(-5.037 -272.123)" fill="#ff90d1"/>
        <path id="Path_410" data-name="Path 410" d="M48.138,272.67c-.1-.135-.237-.32-.414-.547-2.065,2.631-9.483,10.866-21.422,10.866-10.585,0-17.615-6.472-20.513-9.774l-.638-.142-.357.536A30.533,30.533,0,0,0,13.2,280.96l1.007-.007.265.711a25.43,25.43,0,0,0,11.83,2.923,25.852,25.852,0,0,0,14.3-4.373l.226-.612.894-.161a29.842,29.842,0,0,0,6.415-6.268A.428.428,0,0,0,48.138,272.67Z" transform="translate(-4.793 -272.123)" fill="#ff90d1"/>
      </g>
      <g id="Group_97" data-name="Group 97" transform="translate(0 6.192)">
        <path id="Path_411" data-name="Path 411" d="M87.153,193.843a.649.649,0,0,1-.287.068.641.641,0,0,1-.575-.355,7.311,7.311,0,0,0-2.812-2.133q.593-.406,1.234-.8a7,7,0,0,1,2.727,2.358A.643.643,0,0,1,87.153,193.843Z" transform="translate(-76.332 -188.569)" fill="#f4594e"/>
        <path id="Path_412" data-name="Path 412" d="M9.929,261.709a.642.642,0,0,1-.886.2,4.13,4.13,0,0,1-1.92-2.722c-.193-.677-.309-1.086-.986-1.413a5.7,5.7,0,0,0-3.653.187,18.182,18.182,0,0,0-2.073.748c-.137-.176-.247-.324-.328-.436a.429.429,0,0,1,0-.505c.086-.117.2-.274.349-.463h0c1.515-.606,4.457-1.558,6.263-.687a3.4,3.4,0,0,1,.42.241l2.177-.975a.642.642,0,1,1,.525,1.172l-1.808.809a5.314,5.314,0,0,1,.348.972,2.884,2.884,0,0,0,1.373,1.989A.642.642,0,0,1,9.929,261.709Z" transform="translate(0 -248.187)" fill="#f4594e"/>
        <path id="Path_413" data-name="Path 413" d="M106.8,344.284a7.1,7.1,0,0,1-2.556,2.567c-.438-.228-.861-.463-1.272-.7a7.61,7.61,0,0,0,2.627-2.318.642.642,0,0,1,1.2.456Z" transform="translate(-94.154 -328.277)" fill="#f4594e"/>
        <path id="Path_414" data-name="Path 414" d="M383.333,335.915q-.538.39-1.12.772a7.464,7.464,0,0,0-3.181-1.519.642.642,0,1,1,0-1.284C380.419,333.884,382.339,335.17,383.333,335.915Z" transform="translate(-345.992 -319.563)" fill="#f4594e"/>
        <path id="Path_415" data-name="Path 415" d="M347.616,167.17a6.8,6.8,0,0,0-1.876,2.745.642.642,0,0,1-.629.518.624.624,0,0,1-.125-.012.642.642,0,0,1-.506-.754,6,6,0,0,1,1.446-2.568c.148-.173.293-.333.427-.475C346.784,166.8,347.206,166.98,347.616,167.17Z" transform="translate(-314.974 -166.624)" fill="#f4594e"/>
        <path id="Path_416" data-name="Path 416" d="M391.644,218.015a.642.642,0,0,1-.52.745.631.631,0,0,1-.113.01.643.643,0,0,1-.632-.529l-.37-2.075a15.565,15.565,0,0,0-2.044.928.642.642,0,1,1-.634-1.117,16.776,16.776,0,0,1,2.715-1.185c.155-.051.71-.361,1.34-2.2a16.747,16.747,0,0,0,.47-1.676c.389.3.759.6,1.11.89a8.554,8.554,0,0,1-1.766,3.731Z" transform="translate(-353.87 -207.122)" fill="#f4594e"/>
      </g>
    </g>
  </g>
</svg>
