<svg xmlns="http://www.w3.org/2000/svg" width="91" height="112" viewBox="0 0 91 112">
  <g id="Group_393" data-name="Group 393" transform="translate(-246 -2083)">
    <rect id="Rectangle_99" data-name="Rectangle 99" width="91" height="112" rx="9" transform="translate(246 2083)" fill="#ffcf85"/>
    <text id="Diarrhea" transform="translate(292 2176.067)" fill="#fff" font-size="12" font-family="Poppins-Regular, Poppins"><tspan x="-25.866" y="0">Diarrhea</tspan></text>
    <g id="Group_233" data-name="Group 233" transform="translate(1.283 694.852)">
      <g id="Group_368" data-name="Group 368" transform="translate(7 -2)">
        <g id="Group_120" data-name="Group 120" transform="translate(0 7)">
          <g id="_001-diarrhoea" data-name="001-diarrhoea" transform="translate(250.783 1396.081)">
            <g id="Group_80" data-name="Group 80" transform="translate(0 0)">
              <g id="Group_78" data-name="Group 78" transform="translate(17.547 2)">
                <path id="Path_313" data-name="Path 313" d="M202.54,311.306l1.047-3.319v-4.115a16.915,16.915,0,0,0-13.427-16.55,11.376,11.376,0,0,1-10.644,0,16.915,16.915,0,0,0-13.427,16.55v4.115l1.047,3.319,18.109,1.047Z" transform="translate(-166.089 -253.886)" fill="#f4594e"/>
                <path id="Path_314" data-name="Path 314" d="M174.243,19.395a20.32,20.32,0,0,1-3.4-10.758.58.58,0,0,1,.66-.584,8.1,8.1,0,0,0,3.069-.117C178,7.011,181.37.208,187.314.01s7.1,2.576,7.1,2.576a9.032,9.032,0,0,1,5.452-.859c4.887.66,9.18,8.106,4.817,18.334Z" transform="translate(-170.286 0)" fill="#e5907b"/>
                <path id="Path_315" data-name="Path 315" d="M185.968,165.258a3.444,3.444,0,0,0,3.37,3.505l1.7-1.485c0-.009,1.486-2.01,1.486-2.02l-1.486-2.022a3.54,3.54,0,0,0-5.072,2.022Z" transform="translate(-183.655 -143.855)" fill="#ebbaa1"/>
                <path id="Path_316" data-name="Path 316" d="M188.055,186.377a3.54,3.54,0,0,1-3.37-2.458,3.538,3.538,0,0,0,5.263,4.07l.928-1.237-1.118-.814A3.518,3.518,0,0,1,188.055,186.377Z" transform="translate(-182.372 -162.516)" fill="#e8a990"/>
                <path id="Path_317" data-name="Path 317" d="M418.64,165.258a3.444,3.444,0,0,1-3.37,3.505l-1.7-1.485c0-.009-1.486-2.01-1.486-2.02l1.486-2.022a3.54,3.54,0,0,1,5.072,2.022Z" transform="translate(-383.455 -143.855)" fill="#ebbaa1"/>
                <path id="Path_318" data-name="Path 318" d="M418.065,186.377a3.54,3.54,0,0,0,3.37-2.458,3.538,3.538,0,0,1-5.263,4.07l-.928-1.237,1.117-.814A3.519,3.519,0,0,0,418.065,186.377Z" transform="translate(-386.25 -162.516)" fill="#e8a990"/>
                <path id="Path_319" data-name="Path 319" d="M240.92,96.825c6.276,0,11.363-4.409,11.363-12.411V81.152a3.569,3.569,0,0,0-1.136-2.626,43.337,43.337,0,0,1-5.433-6.758.6.6,0,0,0-.944-.067,25.7,25.7,0,0,1-13.76,7.511,1.8,1.8,0,0,0-1.453,1.768v3.434C229.557,91.965,234.644,96.825,240.92,96.825Z" transform="translate(-222.171 -63.182)" fill="#fdd4bb"/>
                <path id="Path_320" data-name="Path 320" d="M241.021,495.581h18.466l.9-1.081-.9-1.081H241.021l-.9,1.081Z" transform="translate(-231.505 -436)" fill="#e84642"/>
                <path id="Path_321" data-name="Path 321" d="M281.027,287.16c-.011.14-.018.28-.018.423a5.376,5.376,0,0,0,10.751,0c0-.142-.007-.283-.018-.423Z" transform="translate(-267.636 -253.743)" fill="#ebbaa1"/>
                <path id="Path_322" data-name="Path 322" d="M422.9,468.214l-4.308,1.047-4.308-1.047V464.9H422.9Z" transform="translate(-385.405 -410.795)" fill="#fdd4bb"/>
                <path id="Path_323" data-name="Path 323" d="M166.088,468.214l4.308,1.047,4.308-1.047V464.9h-8.615Z" transform="translate(-166.088 -410.795)" fill="#fdd4bb"/>
                <path id="Path_324" data-name="Path 324" d="M415.188,495.581h7.132A.582.582,0,0,0,422.9,495v-1.58h-7.714l-.9,1.081Z" transform="translate(-385.404 -436)" fill="#f7c4a8"/>
                <path id="Path_325" data-name="Path 325" d="M166.67,495.582H173.8l.9-1.081-.9-1.081h-7.714V495A.582.582,0,0,0,166.67,495.582Z" transform="translate(-166.088 -436.001)" fill="#f7c4a8"/>
                <g id="Group_77" data-name="Group 77" transform="translate(7.714 48.048)">
                  <path id="Path_326" data-name="Path 326" d="M408.347,422.257v-8.471a.9.9,0,1,0-1.8,0v8.471l.9,1.081Z" transform="translate(-386.277 -412.885)" fill="#e84642"/>
                  <path id="Path_327" data-name="Path 327" d="M406.546,493.419h1.8v2.162h-1.8Z" transform="translate(-386.278 -484.047)" fill="#78c2a4"/>
                  <path id="Path_328" data-name="Path 328" d="M234.18,422.257v-8.471a.9.9,0,1,0-1.8,0v8.471l.9,1.081Z" transform="translate(-232.378 -412.885)" fill="#e84642"/>
                  <path id="Path_329" data-name="Path 329" d="M232.378,493.419h1.8v2.162h-1.8Z" transform="translate(-232.378 -484.047)" fill="#78c2a4"/>
                </g>
                <path id="Path_330" data-name="Path 330" d="M240.92,193.815a11.363,11.363,0,0,1-11.363-11.363v2.162a11.363,11.363,0,0,0,22.726,0v-2.162A11.363,11.363,0,0,1,240.92,193.815Z" transform="translate(-222.171 -161.22)" fill="#f7c4a8"/>
              </g>
              <path id="Path_312" data-name="Path 312" d="M17.423,408.8a2.382,2.382,0,0,0,2.269,2.482h8.364a1.977,1.977,0,1,0,.159-3.909,2.445,2.445,0,0,0-1.788-4.116H26.41a4.563,4.563,0,0,1-.266-3,.818.818,0,0,0-.929-.962,4.36,4.36,0,0,0-3.877,3.967h-.017a2.445,2.445,0,0,0-1.788,4.116,2.515,2.515,0,0,0-2.11,1.427Z" transform="translate(-8.327 -361.486)" fill="#e5907b"/>
              <g id="Group_79" data-name="Group 79" transform="translate(8.849 47.311)">
                <path id="Path_331" data-name="Path 331" d="M26.183,482.523H17.819a2.514,2.514,0,0,1-2.269-1.435,2.512,2.512,0,0,0,2.269,3.6h8.364a2.512,2.512,0,0,0,2.269-3.6A2.513,2.513,0,0,1,26.183,482.523Z" transform="translate(-15.303 -481.088)" fill="#d58475"/>
              </g>
            </g>
            <g id="Group_82" data-name="Group 82" transform="translate(16.642 12.176)">
              <path id="Path_332" data-name="Path 332" d="M265.59,163.017a.9.9,0,0,0,1.231.344l2.329-1.311a.9.9,0,0,0-.029-1.59l-2.329-1.2a.9.9,0,0,0-.829,1.606l.839.433-.868.489A.9.9,0,0,0,265.59,163.017Z" transform="translate(-253.004 -152.813)" fill="#565e75"/>
              <path id="Path_333" data-name="Path 333" d="M357.67,161.786l-.868-.489.839-.433a.9.9,0,1,0-.829-1.606l-2.329,1.2a.9.9,0,0,0-.029,1.59l2.329,1.311a.9.9,0,1,0,.886-1.575Z" transform="translate(-331.223 -152.812)" fill="#565e75"/>
              <path id="Path_334" data-name="Path 334" d="M285.824,218.739a.9.9,0,0,0,1.4,1.137,1.335,1.335,0,0,1,.735-.461,2.686,2.686,0,0,1,.3.262,2.965,2.965,0,0,0,4.465,0,2.666,2.666,0,0,1,.3-.262,1.336,1.336,0,0,1,.735.46.9.9,0,0,0,1.405-1.136,3.053,3.053,0,0,0-2.167-1.132,2.175,2.175,0,0,0-1.517.758c-.359.34-.567.518-.989.518s-.63-.178-.989-.518a2.175,2.175,0,0,0-1.518-.758A3.052,3.052,0,0,0,285.824,218.739Z" transform="translate(-270.809 -204.459)" fill="#f4594e"/>
              <path id="Path_335" data-name="Path 335" d="M376.164,128.382a.9.9,0,0,0,.9-.9v-.873a.9.9,0,1,0-1.807,0v.873A.9.9,0,0,0,376.164,128.382Z" transform="translate(-350.015 -123.25)" fill="#b3e59f"/>
              <path id="Path_336" data-name="Path 336" d="M353.466,107.311a.9.9,0,0,0,.9-.9v-.873a.9.9,0,1,0-1.807,0v.873A.9.9,0,0,0,353.466,107.311Z" transform="translate(-329.958 -104.631)" fill="#b3e59f"/>
              <path id="Path_337" data-name="Path 337" d="M328.108,124.63a.9.9,0,0,0,.9-.9v-.873a.9.9,0,0,0-1.807,0v.873A.9.9,0,0,0,328.108,124.63Z" transform="translate(-307.551 -119.935)" fill="#b3e59f"/>
              <g id="Group_81" data-name="Group 81" transform="translate(0 14.854)">
                <path id="Path_338" data-name="Path 338" d="M197.21,255.117v-2.888a.9.9,0,1,0-1.807,0v2.888a.9.9,0,1,0,1.807,0Z" transform="translate(-191.087 -249.108)" fill="#ffde91"/>
                <path id="Path_339" data-name="Path 339" d="M159.218,242.478a.9.9,0,0,0,.9-.9v-8.4a.9.9,0,0,0-1.807,0v8.4A.9.9,0,0,0,159.218,242.478Z" transform="translate(-158.315 -232.276)" fill="#ffde91"/>
                <path id="Path_340" data-name="Path 340" d="M444.081,252.229v2.889a.9.9,0,0,0,1.807,0v-2.889a.9.9,0,1,0-1.807,0Z" transform="translate(-410.826 -249.108)" fill="#ffde91"/>
                <path id="Path_341" data-name="Path 341" d="M482.073,232.276a.9.9,0,0,0-.9.9v8.4a.9.9,0,1,0,1.807,0v-8.4A.9.9,0,0,0,482.073,232.276Z" transform="translate(-443.598 -232.276)" fill="#ffde91"/>
              </g>
            </g>
          </g>
        </g>
      </g>
    </g>
  </g>
</svg>
