<svg xmlns="http://www.w3.org/2000/svg" xmlns:xlink="http://www.w3.org/1999/xlink" width="65" height="66" viewBox="0 0 65 66">
  <defs>
    <clipPath id="clip-path">
      <circle id="Ellipse_61" data-name="Ellipse 61" cx="32.5" cy="32.5" r="32.5" transform="translate(235 1254)" fill="#fff" stroke="#707070" stroke-width="1" opacity="0.61"/>
    </clipPath>
  </defs>
  <g id="Group_231" data-name="Group 231" transform="translate(-254 -1233)">
    <g id="Group_76" data-name="Group 76" transform="translate(19 -20)">
      <g id="Ellipse_16" data-name="Ellipse 16" transform="translate(235 1254)" fill="rgba(233,54,88,0.24)" stroke="#e93658" stroke-width="1">
        <circle cx="32.5" cy="32.5" r="32.5" stroke="none"/>
        <circle cx="32.5" cy="32.5" r="32" fill="none"/>
      </g>
      <g id="Mask_Group_28" data-name="Mask Group 28" transform="translate(0 -1)" clip-path="url(#clip-path)">
        <g id="weakness" transform="translate(175.08 1262.992)">
          <g id="Group_71" data-name="Group 71" transform="translate(74.795 0)">
            <path id="Path_284" data-name="Path 284" d="M129.148,309.867l.984-3.12v-3.868a15.9,15.9,0,0,0-12.622-15.557,10.693,10.693,0,0,1-10.005,0,15.9,15.9,0,0,0-12.622,15.557v3.868l.985,3.12,17.022.984Z" transform="translate(-94.884 -255.892)" fill="#f4594e"/>
            <path id="Path_285" data-name="Path 285" d="M102.835,18.231a19.1,19.1,0,0,1-3.2-10.113.545.545,0,0,1,.621-.549,7.617,7.617,0,0,0,2.885-.11C106.363,6.59,109.535.2,115.122.009s6.671,2.421,6.671,2.421a8.49,8.49,0,0,1,5.125-.807c4.594.621,8.629,7.62,4.528,17.234Z" transform="translate(-99.115 0)" fill="#565e75"/>
            <path id="Path_286" data-name="Path 286" d="M114.763,165.11a3.237,3.237,0,0,0,3.168,3.295l1.6-1.4c0-.009,1.4-1.89,1.4-1.9l-1.4-1.9a3.328,3.328,0,0,0-4.768,1.9Z" transform="translate(-112.588 -144.991)" fill="#ebbaa1"/>
            <path id="Path_287" data-name="Path 287" d="M116.64,186.229a3.328,3.328,0,0,1-3.168-2.31,3.326,3.326,0,0,0,4.947,3.826l.872-1.163-1.05-.765A3.308,3.308,0,0,1,116.64,186.229Z" transform="translate(-111.297 -163.8)" fill="#e8a990"/>
            <path id="Path_288" data-name="Path 288" d="M347.041,165.11a3.237,3.237,0,0,1-3.168,3.295l-1.6-1.4c0-.009-1.4-1.89-1.4-1.9l1.4-1.9a3.328,3.328,0,0,1,4.768,1.9Z" transform="translate(-313.967 -144.991)" fill="#ebbaa1"/>
            <path id="Path_289" data-name="Path 289" d="M346.691,186.229a3.328,3.328,0,0,0,3.168-2.31,3.326,3.326,0,0,1-4.947,3.826l-.872-1.163,1.05-.765A3.307,3.307,0,0,0,346.691,186.229Z" transform="translate(-316.785 -163.8)" fill="#e8a990"/>
            <path id="Path_290" data-name="Path 290" d="M169.035,95.306c5.9,0,10.682-4.145,10.682-11.666V80.573a3.355,3.355,0,0,0-1.068-2.469,40.743,40.743,0,0,1-5.107-6.352.565.565,0,0,0-.887-.063A24.154,24.154,0,0,1,159.72,78.75a1.692,1.692,0,0,0-1.366,1.662V83.64C158.354,90.738,163.136,95.306,169.035,95.306Z" transform="translate(-151.411 -63.681)" fill="#fdd4bb"/>
            <path id="Path_291" data-name="Path 291" d="M169.763,495.452h17.358l.847-1.016-.847-1.016H169.763l-.847,1.016Z" transform="translate(-160.818 -439.444)" fill="#e84642"/>
            <path id="Path_292" data-name="Path 292" d="M209.822,287.16c-.01.131-.017.264-.017.4a5.053,5.053,0,0,0,10.107,0c0-.134-.007-.266-.017-.4Z" transform="translate(-197.234 -255.748)" fill="#ebbaa1"/>
            <path id="Path_293" data-name="Path 293" d="M351.182,468.015l-4.049.984-4.049-.984V464.9h8.1Z" transform="translate(-315.933 -414.04)" fill="#fdd4bb"/>
            <path id="Path_294" data-name="Path 294" d="M94.884,468.015l4.049.984,4.049-.984V464.9h-8.1Z" transform="translate(-94.884 -414.04)" fill="#fdd4bb"/>
            <path id="Path_295" data-name="Path 295" d="M343.93,495.452h6.7a.547.547,0,0,0,.547-.547v-1.486H343.93l-.847,1.016Z" transform="translate(-315.933 -439.444)" fill="#f7c4a8"/>
            <path id="Path_296" data-name="Path 296" d="M95.431,495.452h6.7l.847-1.016-.847-1.016H94.884v1.486A.547.547,0,0,0,95.431,495.452Z" transform="translate(-94.884 -439.445)" fill="#f7c4a8"/>
            <g id="Group_70" data-name="Group 70" transform="translate(7.251 45.165)">
              <path id="Path_297" data-name="Path 297" d="M337.035,421.695v-7.963a.847.847,0,0,0-1.694,0v7.963l.847,1.016Z" transform="translate(-316.289 -412.885)" fill="#e84642"/>
              <path id="Path_298" data-name="Path 298" d="M335.341,493.419h1.694v2.033h-1.694Z" transform="translate(-316.289 -484.609)" fill="#e84642"/>
              <path id="Path_299" data-name="Path 299" d="M162.867,421.695v-7.963a.847.847,0,0,0-1.694,0v7.963l.847,1.016Z" transform="translate(-161.173 -412.885)" fill="#e84642"/>
              <path id="Path_300" data-name="Path 300" d="M161.174,493.419h1.694v2.033h-1.694Z" transform="translate(-161.174 -484.609)" fill="#e84642"/>
            </g>
            <path id="Path_301" data-name="Path 301" d="M169.034,193.134a10.682,10.682,0,0,1-10.682-10.682v2.033a10.682,10.682,0,0,0,21.363,0v-2.033A10.682,10.682,0,0,1,169.034,193.134Z" transform="translate(-151.409 -162.494)" fill="#f7c4a8"/>
          </g>
          <path id="Path_302" data-name="Path 302" d="M228.317,215.809a3.453,3.453,0,0,0-3.39,2.8.549.549,0,0,0,.536.657h5.707a.549.549,0,0,0,.536-.657A3.454,3.454,0,0,0,228.317,215.809Z" transform="translate(-135.898 -192.202)" fill="#f4594e"/>
          <path id="Path_303" data-name="Path 303" d="M182.036,80.112a2.523,2.523,0,0,0,2.51-2.709,6.641,6.641,0,0,0-2.172-2.841.545.545,0,0,0-.676,0,6.639,6.639,0,0,0-2.171,2.841A2.434,2.434,0,0,0,182.036,80.112Z" transform="translate(-95.473 -66.302)" fill="#adf0ff"/>
          <g id="Group_73" data-name="Group 73" transform="translate(72.328 11.445)">
            <path id="Path_304" data-name="Path 304" d="M191.137,159.535c.02-.005.181-.051.432-.149v.118a.849.849,0,1,0,1.7,0v-1.077a6.465,6.465,0,0,0,.61-.527.849.849,0,1,0-1.19-1.212,5.256,5.256,0,0,1-2,1.209.849.849,0,0,0,.451,1.638Z" transform="translate(-177.185 -150.777)" fill="#565e75"/>
            <path id="Path_305" data-name="Path 305" d="M284.991,156.7a.849.849,0,0,0,.011,1.2,6.486,6.486,0,0,0,.61.527V159.5a.849.849,0,1,0,1.7,0v-.118a4.555,4.555,0,0,0,.432.149.849.849,0,0,0,.451-1.638,5.252,5.252,0,0,1-2-1.21A.849.849,0,0,0,284.991,156.7Z" transform="translate(-261.511 -150.777)" fill="#565e75"/>
            <g id="Group_72" data-name="Group 72" transform="translate(20.059)">
              <path id="Path_306" data-name="Path 306" d="M304.605,128.22a.849.849,0,0,0,.849-.849v-.821a.849.849,0,1,0-1.7,0v.821A.849.849,0,0,0,304.605,128.22Z" transform="translate(-298.499 -123.395)" fill="#b3e59f"/>
              <path id="Path_307" data-name="Path 307" d="M281.905,107.151a.849.849,0,0,0,.849-.849v-.821a.849.849,0,1,0-1.7,0v.821A.849.849,0,0,0,281.905,107.151Z" transform="translate(-278.282 -104.631)" fill="#b3e59f"/>
              <path id="Path_308" data-name="Path 308" d="M256.548,124.469a.849.849,0,0,0,.849-.849V122.8a.849.849,0,0,0-1.7,0v.821A.849.849,0,0,0,256.548,124.469Z" transform="translate(-255.699 -120.055)" fill="#b3e59f"/>
            </g>
            <path id="Path_309" data-name="Path 309" d="M79.23,277.354a.849.849,0,0,0-.946-1.411,21.115,21.115,0,0,0-5.82,6.106.849.849,0,1,0,1.428.921A19.411,19.411,0,0,1,79.23,277.354Z" transform="translate(-72.328 -257.075)" fill="#ffde91"/>
            <path id="Path_310" data-name="Path 310" d="M380.277,282.05a21.115,21.115,0,0,0-5.82-6.106.849.849,0,1,0-.946,1.411,19.413,19.413,0,0,1,5.339,5.616.849.849,0,1,0,1.428-.921Z" transform="translate(-340.229 -257.076)" fill="#ffde91"/>
          </g>
          <path id="Path_311" data-name="Path 311" d="M180.58,103.209a2.689,2.689,0,0,1-2.51-1.725,3.4,3.4,0,0,0-.179,1.069,2.688,2.688,0,1,0,5.377,0,3.4,3.4,0,0,0-.178-1.069A2.689,2.689,0,0,1,180.58,103.209Z" transform="translate(-94.017 -90.383)" fill="#8deaf5"/>
        </g>
      </g>
    </g>
    <g id="Group_230" data-name="Group 230" transform="translate(-2 283)">
      <g id="Ellipse_13" data-name="Ellipse 13" transform="translate(256 951)" fill="none" stroke="#e93658" stroke-width="1">
        <circle cx="32.5" cy="32.5" r="32.5" stroke="none"/>
        <circle cx="32.5" cy="32.5" r="32" fill="none"/>
      </g>
    </g>
  </g>
</svg>
