<svg xmlns="http://www.w3.org/2000/svg" width="91" height="112" viewBox="0 0 91 112">
  <g id="Group_383" data-name="Group 383" transform="translate(-149 -1851)">
    <rect id="Rectangle_96" data-name="Rectangle 96" width="91" height="112" rx="12" transform="translate(149 1851)" fill="#ffcf85"/>
    <text id="Fever" transform="translate(195 1942.498)" fill="#fff" font-size="12" font-family="Poppins-Regular, Poppins"><tspan x="-16.068" y="0">Fever</tspan></text>
    <g id="Group_229" data-name="Group 229" transform="translate(2.469 613.196)">
      <g id="Group_75" data-name="Group 75" transform="translate(5 55)">
        <g id="Group_330" data-name="Group 330" transform="translate(9 -39)">
          <g id="Group_363" data-name="Group 363" transform="translate(-12 11)">
            <g id="_004-fever" data-name="004-fever" transform="translate(135.88 1227.307)">
              <g id="Group_57" data-name="Group 57" transform="translate(25.998 0)">
                <path id="Path_215" data-name="Path 215" d="M43.281,55.742a2.474,2.474,0,0,0-2.474,2.474v3.815l2.474.984,2.474-.984V58.216A2.474,2.474,0,0,0,43.281,55.742Z" transform="translate(-39.187 -49.646)" fill="#ebf2f8"/>
                <path id="Path_216" data-name="Path 216" d="M27.167,125.454a3.989,3.989,0,0,0,3.966,4.06,4.148,4.148,0,0,0,3.966-4.06,4.1,4.1,0,0,0-1.492-2.247V113.25H28.659v9.957A4.1,4.1,0,0,0,27.167,125.454Z" transform="translate(-27.039 -100.865)" fill="#f4594e"/>
                <g id="Group_56" data-name="Group 56" transform="translate(12.443 0)">
                  <path id="Path_217" data-name="Path 217" d="M162.4,287.322a10.69,10.69,0,0,1-10,0,15.9,15.9,0,0,0-12.618,15.552v3.867l.984,3.119,16.635.984,16.635-.984.984-3.119v-3.867A15.9,15.9,0,0,0,162.4,287.322Z" transform="translate(-139.779 -255.901)" fill="#f4594e"/>
                  <path id="Path_218" data-name="Path 218" d="M147.823,18.226a19.1,19.1,0,0,1-3.2-10.11.545.545,0,0,1,.62-.549,7.615,7.615,0,0,0,2.884-.11C151.351,6.588,154.521.2,160.107.009s6.669,2.421,6.669,2.421a8.488,8.488,0,0,1,5.123-.807c4.593.621,8.627,7.618,4.527,17.23Z" transform="translate(-144.094 0)" fill="#e5907b"/>
                  <path id="Path_219" data-name="Path 219" d="M159.863,165.11a3.236,3.236,0,0,0,3.167,3.294l1.6-1.4c0-.009,1.4-1.889,1.4-1.9l-1.4-1.9a3.327,3.327,0,0,0-4.767,1.9Z" transform="translate(-157.667 -144.996)" fill="#ebbaa1"/>
                  <path id="Path_220" data-name="Path 220" d="M161.737,186.229a3.327,3.327,0,0,1-3.167-2.31,3.325,3.325,0,0,0,4.946,3.825l.872-1.163-1.05-.765A3.306,3.306,0,0,1,161.737,186.229Z" transform="translate(-156.373 -163.806)" fill="#e8a990"/>
                  <path id="Path_221" data-name="Path 221" d="M392.14,165.11a3.237,3.237,0,0,1-3.167,3.294l-1.6-1.4c0-.009-1.4-1.889-1.4-1.9l1.4-1.9a3.327,3.327,0,0,1,4.767,1.9Z" transform="translate(-359.052 -144.996)" fill="#ebbaa1"/>
                  <path id="Path_222" data-name="Path 222" d="M391.79,186.229a3.327,3.327,0,0,0,3.167-2.31,3.325,3.325,0,0,1-4.946,3.825l-.872-1.163,1.05-.765A3.306,3.306,0,0,0,391.79,186.229Z" transform="translate(-361.869 -163.806)" fill="#e8a990"/>
                  <path id="Path_223" data-name="Path 223" d="M214.023,95.3c5.9,0,10.679-4.547,10.679-11.663V80.571a3.354,3.354,0,0,0-1.068-2.468,40.725,40.725,0,0,1-5.105-6.351.565.565,0,0,0-.887-.063,24.149,24.149,0,0,1-12.931,7.059,1.691,1.691,0,0,0-1.366,1.661v3.227C203.344,90.671,208.125,95.3,214.023,95.3Z" transform="translate(-196.393 -63.684)" fill="#fdd4bb"/>
                  <path id="Path_224" data-name="Path 224" d="M214.863,495.451h17.354l.847-1.016-.847-1.016H214.863l-.847,1.016Z" transform="translate(-205.897 -439.459)" fill="#e84642"/>
                  <path id="Path_225" data-name="Path 225" d="M396.17,468.014l-4.048.984-4.048-.984V464.9h8.1Z" transform="translate(-360.921 -414.054)" fill="#fdd4bb"/>
                  <path id="Path_226" data-name="Path 226" d="M139.874,468.014l4.048.984,4.048-.984V464.9h-8.1Z" transform="translate(-139.864 -414.054)" fill="#fdd4bb"/>
                  <path id="Path_227" data-name="Path 227" d="M396.267,493.419H389.03l-.847,1.016.847,1.016h6.691a.547.547,0,0,0,.547-.547Z" transform="translate(-361.018 -439.459)" fill="#f7c4a8"/>
                  <path id="Path_228" data-name="Path 228" d="M139.874,493.419h7.262l.847,1.016-.847,1.016h-6.715a.547.547,0,0,1-.547-.547Z" transform="translate(-139.864 -439.459)" fill="#f7c4a8"/>
                  <path id="Path_229" data-name="Path 229" d="M254.812,287.16c-.01.131-.017.264-.017.4a5.052,5.052,0,1,0,10.1,0c0-.134-.007-.266-.017-.4Z" transform="translate(-242.217 -255.756)" fill="#ebbaa1"/>
                  <path id="Path_230" data-name="Path 230" d="M214.021,193.131a10.679,10.679,0,0,1-10.679-10.679v2.032a10.679,10.679,0,1,0,21.357,0v-2.032A10.678,10.678,0,0,1,214.021,193.131Z" transform="translate(-196.391 -162.499)" fill="#f7c4a8"/>
                  <g id="Group_55" data-name="Group 55" transform="translate(7.272 45.153)">
                    <path id="Path_231" data-name="Path 231" d="M382.134,421.692v-7.96a.847.847,0,0,0-1.693,0v7.96l.847,1.016Z" transform="translate(-361.394 -412.885)" fill="#e84642"/>
                    <path id="Path_232" data-name="Path 232" d="M380.442,493.419h1.693v2.032h-1.693Z" transform="translate(-361.395 -484.612)" fill="#e84642"/>
                    <path id="Path_233" data-name="Path 233" d="M207.967,421.692v-7.96a.847.847,0,0,0-1.693,0v7.96l.847,1.016Z" transform="translate(-206.274 -412.885)" fill="#e84642"/>
                    <path id="Path_234" data-name="Path 234" d="M206.274,493.419h1.693v2.032h-1.693Z" transform="translate(-206.274 -484.612)" fill="#e84642"/>
                  </g>
                </g>
                <path id="Path_235" data-name="Path 235" d="M240.241,77.663h10.25c.931,0,1.693-1.2,1.693-2.678V73.2a1.7,1.7,0,0,0-1.693-1.693h-10.25a1.7,1.7,0,0,0-1.693,1.693v1.79C238.548,77.018,239.31,77.663,240.241,77.663Z" transform="translate(-215.304 -63.683)" fill="#adf0ff"/>
                <path id="Path_236" data-name="Path 236" d="M30.092,227.923a4.1,4.1,0,0,1-3.966-3.075,4.094,4.094,0,1,0,7.932,0A4.1,4.1,0,0,1,30.092,227.923Z" transform="translate(-25.998 -200.259)" fill="#e84642"/>
                <path id="Path_237" data-name="Path 237" d="M250.49,105.049H240.24a1.7,1.7,0,0,1-1.693-1.693v2.032a1.7,1.7,0,0,0,1.693,1.693h10.25a1.7,1.7,0,0,0,1.693-1.693v-2.032A1.7,1.7,0,0,1,250.49,105.049Z" transform="translate(-215.303 -92.053)" fill="#8deaf5"/>
              </g>
              <g id="Group_59" data-name="Group 59" transform="translate(35.838 18.216)">
                <path id="Path_238" data-name="Path 238" d="M236.013,168.889a10.615,10.615,0,0,0,2.6-.694.848.848,0,0,0-.677-1.556,8.995,8.995,0,0,1-2.133.565.848.848,0,0,0,.1,1.69A.859.859,0,0,0,236.013,168.889Z" transform="translate(-222.04 -166.569)" fill="#565e75"/>
                <path id="Path_239" data-name="Path 239" d="M330.254,168.195a10.615,10.615,0,0,0,2.6.694.86.86,0,0,0,.1.006.848.848,0,0,0,.1-1.691,8.9,8.9,0,0,1-2.132-.565.848.848,0,0,0-.677,1.556Z" transform="translate(-306.367 -166.568)" fill="#565e75"/>
                <g id="Group_58" data-name="Group 58" transform="translate(0 5.384)">
                  <path id="Path_240" data-name="Path 240" d="M278.966,219.417a.848.848,0,0,0,.848-.848c0-.581.369-1.072.8-1.072s.8.491.8,1.072a.848.848,0,1,0,1.7,0,2.514,2.514,0,1,0-5,0A.848.848,0,0,0,278.966,219.417Z" transform="translate(-260.387 -215.8)" fill="#f4594e"/>
                  <path id="Path_241" data-name="Path 241" d="M156.4,240.877a.848.848,0,0,0-1.143-1.254,3.249,3.249,0,0,0-.217,4.651,1.507,1.507,0,0,1,.448,1.191.848.848,0,1,0,1.7,0,3.132,3.132,0,0,0-.831-2.265,1.773,1.773,0,0,1-.477-.918A1.735,1.735,0,0,1,156.4,240.877Z" transform="translate(-149.981 -236.823)" fill="#f4594e"/>
                  <path id="Path_242" data-name="Path 242" d="M420.985,243.191a3.131,3.131,0,0,0-.831,2.265.848.848,0,0,0,1.7,0,1.507,1.507,0,0,1,.448-1.191,3.249,3.249,0,0,0-.217-4.651.848.848,0,1,0-1.144,1.253,1.739,1.739,0,0,1,.524,1.406A1.775,1.775,0,0,1,420.985,243.191Z" transform="translate(-386.89 -236.813)" fill="#f4594e"/>
                  <path id="Path_243" data-name="Path 243" d="M453.716,246.4a.98.98,0,0,0-.145-.145.85.85,0,0,0-1.132,1.264l.02.02a2.2,2.2,0,0,1,.56,1.811,3.17,3.17,0,0,1-.864,1.636,4.516,4.516,0,0,0-1.258,3.033.848.848,0,0,0,1.7,0,2.9,2.9,0,0,1,.883-1.97,4.73,4.73,0,0,0,1.225-2.481A3.923,3.923,0,0,0,453.716,246.4Z" transform="translate(-414.271 -242.768)" fill="#f4594e"/>
                  <path id="Path_244" data-name="Path 244" d="M118.97,254.867a.848.848,0,0,0,.848-.848,4.516,4.516,0,0,0-1.258-3.033,3.169,3.169,0,0,1-.864-1.636,2.2,2.2,0,0,1,.56-1.811l.02-.02a.85.85,0,0,0-1.132-1.263.967.967,0,0,0-.145.145,3.923,3.923,0,0,0-.986,3.166,4.73,4.73,0,0,0,1.225,2.481,2.9,2.9,0,0,1,.883,1.97A.848.848,0,0,0,118.97,254.867Z" transform="translate(-115.98 -242.768)" fill="#f4594e"/>
                </g>
              </g>
            </g>
          </g>
        </g>
      </g>
    </g>
  </g>
</svg>
