<svg xmlns="http://www.w3.org/2000/svg" xmlns:xlink="http://www.w3.org/1999/xlink" width="65" height="66" viewBox="0 0 65 66">
  <defs>
    <clipPath id="clip-path">
      <circle id="Ellipse_55" data-name="Ellipse 55" cx="32.5" cy="32.5" r="32.5" transform="translate(155 1489)" fill="#fff" stroke="#707070" stroke-width="1" opacity="0.7"/>
    </clipPath>
  </defs>
  <g id="Group_121" data-name="Group 121" transform="translate(-155 -1488)">
    <g id="Ellipse_22" data-name="Ellipse 22" transform="translate(155 1489)" fill="rgba(233,54,88,0.24)" stroke="#e93658" stroke-width="1">
      <circle cx="32.5" cy="32.5" r="32.5" stroke="none"/>
      <circle cx="32.5" cy="32.5" r="32" fill="none"/>
    </g>
    <g id="Mask_Group_22" data-name="Mask Group 22" transform="translate(0 -1)" clip-path="url(#clip-path)">
      <g id="_002-headache" data-name="002-headache" transform="translate(164.785 1498)">
        <g id="Group_84" data-name="Group 84" transform="translate(5.093 0)">
          <path id="Path_342" data-name="Path 342" d="M129.144,309.864l.984-3.12v-3.867a15.9,15.9,0,0,0-12.62-15.554,10.692,10.692,0,0,1-10,0,15.9,15.9,0,0,0-12.62,15.554v3.867l.984,3.12,17.02.984Z" transform="translate(-94.884 -255.896)" fill="#adf0ff"/>
          <path id="Path_343" data-name="Path 343" d="M102.834,18.229a19.1,19.1,0,0,1-3.2-10.112.545.545,0,0,1,.62-.549,7.617,7.617,0,0,0,2.884-.11C106.363,6.589,109.533.2,115.12.009s6.67,2.421,6.67,2.421a8.489,8.489,0,0,1,5.124-.807c4.593.621,8.628,7.619,4.527,17.232Z" transform="translate(-99.115 0)" fill="#565e75"/>
          <path id="Path_344" data-name="Path 344" d="M114.763,165.11a3.237,3.237,0,0,0,3.167,3.294l1.6-1.4c0-.009,1.4-1.889,1.4-1.9l-1.4-1.9a3.327,3.327,0,0,0-4.767,1.9Z" transform="translate(-112.589 -144.994)" fill="#ebbaa1"/>
          <path id="Path_345" data-name="Path 345" d="M116.639,186.229a3.327,3.327,0,0,1-3.167-2.31,3.326,3.326,0,0,0,4.946,3.826l.872-1.163-1.05-.765A3.31,3.31,0,0,1,116.639,186.229Z" transform="translate(-111.297 -163.803)" fill="#e8a990"/>
          <path id="Path_346" data-name="Path 346" d="M347.041,165.11a3.237,3.237,0,0,1-3.167,3.294l-1.6-1.4c0-.009-1.4-1.889-1.4-1.9l1.4-1.9a3.327,3.327,0,0,1,4.768,1.9Z" transform="translate(-313.971 -144.994)" fill="#ebbaa1"/>
          <path id="Path_347" data-name="Path 347" d="M346.691,186.229a3.327,3.327,0,0,0,3.167-2.31,3.326,3.326,0,0,1-4.947,3.826l-.872-1.163,1.051-.765A3.31,3.31,0,0,0,346.691,186.229Z" transform="translate(-316.788 -163.803)" fill="#e8a990"/>
          <path id="Path_348" data-name="Path 348" d="M169.034,95.3c5.9,0,10.68-4.144,10.68-11.664V80.572a3.355,3.355,0,0,0-1.068-2.468,40.734,40.734,0,0,1-5.106-6.351.565.565,0,0,0-.887-.063,24.151,24.151,0,0,1-12.933,7.06,1.692,1.692,0,0,0-1.366,1.661v3.227C158.354,90.735,163.135,95.3,169.034,95.3Z" transform="translate(-151.412 -63.683)" fill="#fdd4bb"/>
          <path id="Path_349" data-name="Path 349" d="M169.763,495.452h17.356l.847-1.017-.847-1.016H169.763l-.847,1.016Z" transform="translate(-160.819 -439.451)" fill="#8deaf5"/>
          <path id="Path_350" data-name="Path 350" d="M209.822,287.16c-.01.131-.017.263-.017.4a5.052,5.052,0,0,0,10.1,0c0-.134-.007-.266-.017-.4Z" transform="translate(-197.236 -255.752)" fill="#ebbaa1"/>
          <path id="Path_351" data-name="Path 351" d="M351.181,468.015l-4.049.984-4.049-.984V464.9h8.1Z" transform="translate(-315.937 -414.047)" fill="#fdd4bb"/>
          <path id="Path_352" data-name="Path 352" d="M94.884,468.015l4.049.984,4.049-.984V464.9h-8.1Z" transform="translate(-94.884 -414.047)" fill="#fdd4bb"/>
          <path id="Path_353" data-name="Path 353" d="M343.929,495.452h6.7a.547.547,0,0,0,.547-.547v-1.486h-7.25l-.847,1.016Z" transform="translate(-315.936 -439.451)" fill="#f7c4a8"/>
          <path id="Path_354" data-name="Path 354" d="M95.431,495.452h6.7l.847-1.016-.847-1.016h-7.25v1.485A.547.547,0,0,0,95.431,495.452Z" transform="translate(-94.884 -439.452)" fill="#f7c4a8"/>
          <g id="Group_83" data-name="Group 83" transform="translate(7.25 45.159)">
            <path id="Path_355" data-name="Path 355" d="M337.034,421.693v-7.961a.847.847,0,0,0-1.694,0v7.961l.847,1.017Z" transform="translate(-316.291 -412.885)" fill="#85e1e5"/>
            <path id="Path_356" data-name="Path 356" d="M335.341,493.419h1.694v2.033h-1.694Z" transform="translate(-316.291 -484.611)" fill="#6ed6d6"/>
            <path id="Path_357" data-name="Path 357" d="M162.867,421.693v-7.961a.847.847,0,0,0-1.694,0v7.961l.847,1.017Z" transform="translate(-161.173 -412.885)" fill="#85e1e5"/>
            <path id="Path_358" data-name="Path 358" d="M161.174,493.419h1.694v2.033h-1.694Z" transform="translate(-161.174 -484.611)" fill="#6ed6d6"/>
          </g>
          <path id="Path_359" data-name="Path 359" d="M169.032,193.132a10.68,10.68,0,0,1-10.68-10.68v2.032a10.68,10.68,0,1,0,21.36,0v-2.032A10.68,10.68,0,0,1,169.032,193.132Z" transform="translate(-151.41 -162.496)" fill="#f7c4a8"/>
        </g>
        <g id="Group_86" data-name="Group 86" transform="translate(0 4.607)">
          <path id="Path_360" data-name="Path 360" d="M226.9,216.813a.849.849,0,0,0,.849-.849,1.577,1.577,0,0,1,3.154,0,.849.849,0,1,0,1.7,0,3.275,3.275,0,0,0-6.551,0A.849.849,0,0,0,226.9,216.813Z" transform="translate(-206.613 -194.032)" fill="#f4594e"/>
          <path id="Path_361" data-name="Path 361" d="M194.078,162.786a.849.849,0,0,0,1.156.323l2.189-1.232a.849.849,0,0,0-.027-1.495l-2.189-1.129a.849.849,0,1,0-.779,1.509l.789.407-.816.459A.849.849,0,0,0,194.078,162.786Z" transform="translate(-178.037 -146.358)" fill="#565e75"/>
          <path id="Path_362" data-name="Path 362" d="M285.942,161.629l-.816-.459.789-.407a.849.849,0,1,0-.779-1.509l-2.188,1.129a.849.849,0,0,0-.027,1.495l2.189,1.232a.849.849,0,0,0,.833-1.48Z" transform="translate(-256.875 -146.358)" fill="#565e75"/>
          <g id="Group_85" data-name="Group 85">
            <path id="Path_363" data-name="Path 363" d="M336.59,42.241a.849.849,0,0,0-1.165.292l-1.457,2.431a.849.849,0,0,0,.729,1.286h.814l-.561.933a.849.849,0,1,0,1.456.875l1.334-2.22a.849.849,0,0,0-.728-1.287H336.2l.686-1.146A.849.849,0,0,0,336.59,42.241Z" transform="translate(-302.617 -42.121)" fill="#f4594e"/>
            <path id="Path_364" data-name="Path 364" d="M173.839,52.1a.849.849,0,0,0-1.165.292l-1.457,2.431a.849.849,0,0,0,.729,1.286h.814l-.561.933a.849.849,0,1,0,1.456.875l1.334-2.22a.849.849,0,0,0-.728-1.287h-.817l.686-1.146A.849.849,0,0,0,173.839,52.1Z" transform="translate(-157.667 -50.898)" fill="#f4594e"/>
            <path id="Path_365" data-name="Path 365" d="M430.894,136.456a.85.85,0,0,0-.74-.431h-.816l.686-1.146a.849.849,0,1,0-1.457-.873l-1.456,2.431a.849.849,0,0,0,.728,1.286h.814l-.561.933a.849.849,0,1,0,1.456.875l1.334-2.22A.85.85,0,0,0,430.894,136.456Z" transform="translate(-385.573 -123.589)" fill="#f4594e"/>
            <path id="Path_366" data-name="Path 366" d="M51.48,136.025h-.816l.686-1.146a.849.849,0,1,0-1.457-.873l-1.456,2.431a.849.849,0,0,0,.728,1.286h.814l-.561.933a.849.849,0,1,0,1.456.875l1.334-2.22a.849.849,0,0,0-.728-1.287Z" transform="translate(-48.315 -123.589)" fill="#f4594e"/>
          </g>
          <path id="Path_367" data-name="Path 367" d="M304.6,128.222a.849.849,0,0,0,.849-.849v-.821a.849.849,0,1,0-1.7,0v.821A.849.849,0,0,0,304.6,128.222Z" transform="translate(-275.816 -116.561)" fill="#b3e59f"/>
          <path id="Path_368" data-name="Path 368" d="M281.906,107.153a.849.849,0,0,0,.849-.849v-.821a.849.849,0,1,0-1.7,0v.821A.849.849,0,0,0,281.906,107.153Z" transform="translate(-255.601 -97.797)" fill="#b3e59f"/>
          <path id="Path_369" data-name="Path 369" d="M256.548,124.47a.849.849,0,0,0,.849-.849V122.8a.849.849,0,1,0-1.7,0v.821A.849.849,0,0,0,256.548,124.47Z" transform="translate(-233.016 -113.219)" fill="#b3e59f"/>
        </g>
      </g>
    </g>
  </g>
</svg>
