<svg xmlns="http://www.w3.org/2000/svg" width="91" height="112" viewBox="0 0 91 112">
  <g id="Group_385" data-name="Group 385" transform="translate(-257 -2506)">
    <rect id="Rectangle_107" data-name="Rectangle 107" width="91" height="112" rx="10" transform="translate(257 2506)" fill="#ffcf85"/>
    <text id="Loss_of_speech_or_movement_" data-name="Loss of speech 
or movement " transform="translate(303 2588.865)" fill="#fff" font-size="10" font-family="Poppins-Regular, Poppins"><tspan x="-37.855" y="0">Loss of speech </tspan><tspan x="-35.26" y="11">or movement </tspan></text>
    <g id="Group_152" data-name="Group 152" transform="translate(18.24 750.031)">
      <g id="Group_376" data-name="Group 376">
        <g id="Group_149" data-name="Group 149" transform="translate(58.912 60.75)">
          <g id="_002-inability-to-move" data-name="002-inability-to-move" transform="translate(200.556 1709.355)">
            <g id="Group_128" data-name="Group 128" transform="translate(4.379 0)">
              <g id="Group_127" data-name="Group 127">
                <path id="Path_493" data-name="Path 493" d="M49.071,49.729H87.619c1.839,0,3.329-1.149,3.329-4.3V25.594a3.329,3.329,0,0,0-3.329-3.329H49.071a3.329,3.329,0,0,0-3.329,3.329V45.432C45.742,48.875,47.232,49.729,49.071,49.729Z" transform="translate(-45.742 -19.871)" fill="#ffde91"/>
                <path id="Path_494" data-name="Path 494" d="M87.619,241.1H49.071a3.329,3.329,0,0,1-3.329-3.329v2a3.329,3.329,0,0,0,3.329,3.329H87.619a3.329,3.329,0,0,0,3.329-3.329v-2A3.329,3.329,0,0,1,87.619,241.1Z" transform="translate(-45.742 -212.212)" fill="#ffce6e"/>
                <g id="Group_126" data-name="Group 126" transform="translate(5.283)">
                  <path id="Path_495" data-name="Path 495" d="M117.231,287.322a10.508,10.508,0,0,1-9.833,0,15.626,15.626,0,0,0-12.4,15.288v3.8l.968,3.066,16.353.968,16.353-.968.968-3.066v-3.8A15.625,15.625,0,0,0,117.231,287.322Z" transform="translate(-94.982 -256.435)" fill="#f4594e"/>
                  <path id="Path_496" data-name="Path 496" d="M102.78,17.917a18.771,18.771,0,0,1-3.145-9.939.536.536,0,0,1,.61-.54,7.486,7.486,0,0,0,2.835-.108c3.168-.854,6.284-7.138,11.775-7.321s6.556,2.379,6.556,2.379a8.344,8.344,0,0,1,5.036-.793c4.515.61,8.48,7.488,4.45,16.937Z" transform="translate(-99.124 0)" fill="#e5907b"/>
                  <path id="Path_497" data-name="Path 497" d="M114.873,165.069a3.181,3.181,0,0,0,3.113,3.238l1.573-1.372c0-.009,1.372-1.857,1.372-1.866l-1.373-1.868a3.27,3.27,0,0,0-4.686,1.868Z" transform="translate(-112.724 -145.298)" fill="#ebbaa1"/>
                  <path id="Path_498" data-name="Path 498" d="M116.692,186.189a3.27,3.27,0,0,1-3.113-2.27,3.269,3.269,0,0,0,4.862,3.76l.857-1.143-1.032-.752A3.252,3.252,0,0,1,116.692,186.189Z" transform="translate(-111.43 -164.147)" fill="#e8a990"/>
                  <path id="Path_499" data-name="Path 499" d="M347.045,165.069a3.181,3.181,0,0,1-3.113,3.238l-1.573-1.372c0-.009-1.372-1.857-1.372-1.866l1.373-1.868a3.27,3.27,0,0,1,4.686,1.868Z" transform="translate(-314.53 -145.298)" fill="#ebbaa1"/>
                  <path id="Path_500" data-name="Path 500" d="M346.755,186.189a3.27,3.27,0,0,0,3.113-2.27,3.269,3.269,0,0,1-4.862,3.76l-.857-1.143,1.032-.752A3.251,3.251,0,0,0,346.755,186.189Z" transform="translate(-317.353 -164.147)" fill="#e8a990"/>
                  <path id="Path_501" data-name="Path 501" d="M168.851,94.894c5.8,0,10.5-4.469,10.5-11.465V80.415a3.3,3.3,0,0,0-1.049-2.426,40.035,40.035,0,0,1-5.018-6.243.555.555,0,0,0-.872-.061A23.738,23.738,0,0,1,159.7,78.624a1.663,1.663,0,0,0-1.343,1.633v3.172C158.354,90.345,163.054,94.894,168.851,94.894Z" transform="translate(-151.531 -63.816)" fill="#fdd4bb"/>
                  <path id="Path_502" data-name="Path 502" d="M169.858,495.417h17.059l.832-1-.832-1H169.858l-.832,1Z" transform="translate(-161.056 -440.376)" fill="#e84642"/>
                  <path id="Path_503" data-name="Path 503" d="M351.043,467.961l-3.979.968-3.979-.968V464.9h7.958Z" transform="translate(-316.402 -414.918)" fill="#fdd4bb"/>
                  <path id="Path_504" data-name="Path 504" d="M94.884,467.961l3.979.968,3.979-.968V464.9H94.884Z" transform="translate(-94.884 -414.918)" fill="#fdd4bb"/>
                  <path id="Path_505" data-name="Path 505" d="M351.14,493.419h-7.115l-.832,1,.832,1H350.6a.538.538,0,0,0,.537-.538Z" transform="translate(-316.5 -440.376)" fill="#f7c4a8"/>
                  <path id="Path_506" data-name="Path 506" d="M94.884,493.419h7.138l.832,1-.832,1h-6.6a.538.538,0,0,1-.538-.538Z" transform="translate(-94.884 -440.376)" fill="#f7c4a8"/>
                  <path id="Path_507" data-name="Path 507" d="M214.771,288.4a10.449,10.449,0,0,1-4.949-1.238c-.01.129-.017.259-.017.391a4.966,4.966,0,0,0,9.932,0c0-.132-.007-.262-.017-.391A10.449,10.449,0,0,1,214.771,288.4Z" transform="translate(-197.451 -256.29)" fill="#ebbaa1"/>
                  <path id="Path_508" data-name="Path 508" d="M168.849,192.949a10.5,10.5,0,0,1-10.5-10.5v2a10.5,10.5,0,0,0,20.994,0v-2A10.5,10.5,0,0,1,168.849,192.949Z" transform="translate(-151.529 -162.838)" fill="#f7c4a8"/>
                  <g id="Group_125" data-name="Group 125" transform="translate(7.138 44.386)">
                    <path id="Path_509" data-name="Path 509" d="M337.116,421.543v-7.825a.832.832,0,0,0-1.665,0v7.825l.832,1Z" transform="translate(-316.728 -412.885)" fill="#85e1e5"/>
                    <path id="Path_510" data-name="Path 510" d="M335.452,493.419h1.665v2h-1.665Z" transform="translate(-316.729 -484.762)" fill="#6ed6d6"/>
                    <path id="Path_511" data-name="Path 511" d="M162.949,421.543v-7.825a.832.832,0,0,0-1.665,0v7.825l.832,1Z" transform="translate(-161.284 -412.885)" fill="#85e1e5"/>
                    <path id="Path_512" data-name="Path 512" d="M161.284,493.419h1.665v2h-1.665Z" transform="translate(-161.284 -484.762)" fill="#6ed6d6"/>
                  </g>
                </g>
              </g>
            </g>
            <g id="Group_129" data-name="Group 129" transform="translate(0 18.216)">
              <path id="Path_513" data-name="Path 513" d="M234,223.784h-4.13a.834.834,0,1,0,0,1.668H234a.834.834,0,0,0,0-1.668Z" transform="translate(-204.951 -217.943)" fill="#f4594e"/>
              <path id="Path_514" data-name="Path 514" d="M194.205,169.447h-2.062a.834.834,0,1,0,0,1.668h2.062a.834.834,0,0,0,0-1.668Z" transform="translate(-171.281 -169.447)" fill="#565e75"/>
              <path id="Path_515" data-name="Path 515" d="M288.888,169.447h-2.062a.834.834,0,0,0,0,1.668h2.062a.834.834,0,1,0,0-1.668Z" transform="translate(-255.786 -169.447)" fill="#565e75"/>
              <path id="Path_516" data-name="Path 516" d="M56.5,336.7a.834.834,0,0,0-1.165.184c-1.787,2.456-2.62,5.535-2.62,9.69a.834.834,0,0,0,1.668,0c0-3.785.731-6.552,2.3-8.709A.834.834,0,0,0,56.5,336.7Z" transform="translate(-47.585 -318.58)" fill="#ffde91"/>
              <path id="Path_517" data-name="Path 517" d="M421.23,336.7a.834.834,0,0,0-.183,1.165c1.57,2.156,2.3,4.924,2.3,8.709a.834.834,0,1,0,1.668,0c0-4.155-.832-7.234-2.62-9.69A.834.834,0,0,0,421.23,336.7Z" transform="translate(-376.18 -318.581)" fill="#ffde91"/>
              <path id="Path_518" data-name="Path 518" d="M215.814,378.2a5.5,5.5,0,1,0-5.5,5.5A5.51,5.51,0,0,0,215.814,378.2Zm-9.339,0a3.833,3.833,0,0,1,5.892-3.235l-5.292,5.292A3.812,3.812,0,0,1,206.475,378.2Zm7.071-2.056a3.832,3.832,0,0,1-5.292,5.291Z" transform="translate(-204.807 -366.86)" fill="#f4594e"/>
            </g>
            <g id="Group_131" data-name="Group 131" transform="translate(16.788 44.386)">
              <path id="Path_519" data-name="Path 519" d="M162.839,421.543v-7.825a.832.832,0,0,0-1.665,0v7.825l.832,1Z" transform="translate(-161.174 -412.885)" fill="#e84642"/>
              <path id="Path_520" data-name="Path 520" d="M337.006,421.543v-7.825a.832.832,0,0,0-1.665,0v7.825l.832,1Z" transform="translate(-316.618 -412.885)" fill="#e84642"/>
              <g id="Group_130" data-name="Group 130" transform="translate(0 8.658)">
                <path id="Path_521" data-name="Path 521" d="M161.174,493.419h1.665v2h-1.665Z" transform="translate(-161.174 -493.419)" fill="#e84642"/>
                <path id="Path_522" data-name="Path 522" d="M335.342,493.419h1.665v2h-1.665Z" transform="translate(-316.619 -493.419)" fill="#e84642"/>
              </g>
            </g>
          </g>
          <g id="_003-inability-to-speak" data-name="003-inability-to-speak" transform="translate(200.869 1742.608)">
            <path id="Path_585" data-name="Path 585" d="M36.9,355.587H49.3c1.332,0,2.411-1.183,2.411-3.112v-8.883a.4.4,0,0,0-.666-.3l-2.8,2.445H36.9a2.411,2.411,0,0,0-2.411,2.411v4.329c0,2.286,1.08,3.111,2.411,3.111Z" transform="translate(-34.49 -343.19)" fill="#ffde91"/>
            <path id="Path_586" data-name="Path 586" d="M49.3,464.862H36.9a2.411,2.411,0,0,1-2.411-2.411V463.9a2.411,2.411,0,0,0,2.411,2.411H49.3a2.411,2.411,0,0,0,2.411-2.411v-1.447a2.411,2.411,0,0,1-2.411,2.411Z" transform="translate(-34.49 -453.166)" fill="#ffce6e"/>
            <g id="Group_148" data-name="Group 148" transform="translate(6.207 5.253)">
              <path id="Path_539" data-name="Path 539" d="M114.612,414.064h1.068l2.4,1.166c.267.13.577-.214.577-1.062v-3.106a.4.4,0,0,0-.577-.362l-2.4,1.166h-1.068a.4.4,0,0,0-.4.4v.693C114.21,413.712,114.39,414.064,114.612,414.064Z" transform="translate(-114.21 -410.659)" fill="#976eca"/>
              <path id="Path_540" data-name="Path 540" d="M118.081,441.794l-2.4-1.166h-1.068a.4.4,0,0,1-.4-.4v1.447a.4.4,0,0,0,.4.4h1.068l2.4,1.166a.4.4,0,0,0,.577-.361v-1.447A.4.4,0,0,1,118.081,441.794Z" transform="translate(-114.209 -437.924)" fill="#8665c6"/>
            </g>
          </g>
        </g>
      </g>
    </g>
  </g>
</svg>
