<svg xmlns="http://www.w3.org/2000/svg" xmlns:xlink="http://www.w3.org/1999/xlink" width="65" height="66" viewBox="0 0 65 66">
  <defs>
    <clipPath id="clip-path">
      <circle id="Ellipse_35" data-name="Ellipse 35" cx="32.5" cy="32.5" r="32.5" transform="translate(1828 2277)" fill="#fff"/>
    </clipPath>
  </defs>
  <g id="Group_241" data-name="Group 241" transform="translate(-110 -1787)">
    <g id="Group_124" data-name="Group 124" transform="translate(-145 299)">
      <g id="Ellipse_23" data-name="Ellipse 23" transform="translate(255 1489)" fill="rgba(233,54,88,0.24)" stroke="#e93658" stroke-width="1">
        <circle cx="32.5" cy="32.5" r="32.5" stroke="none"/>
        <circle cx="32.5" cy="32.5" r="32" fill="none"/>
      </g>
    </g>
    <g id="Mask_Group_18" data-name="Mask Group 18" transform="translate(-1718 -490)" clip-path="url(#clip-path)">
      <g id="Group_190" data-name="Group 190" transform="translate(1838.091 2285.581)">
        <g id="loss-of-sense-of-taste" transform="translate(-2.898 0)">
          <g id="Group_112" data-name="Group 112" transform="translate(3.026 0)">
            <g id="Group_111" data-name="Group 111" transform="translate(0)">
              <g id="Group_110" data-name="Group 110" transform="translate(13.888)">
                <path id="Path_466" data-name="Path 466" d="M189.542,309.886l.985-3.122V302.9a15.892,15.892,0,0,0-12.621-15.551,10.721,10.721,0,0,1-10.006,0A15.893,15.893,0,0,0,155.281,302.9v6.991l17.623.985Z" transform="translate(-155.281 -255.918)" fill="#adf0ff"/>
                <path id="Path_467" data-name="Path 467" d="M163.214,18.23a19.1,19.1,0,0,1-3.2-10.112.546.546,0,0,1,.621-.549,7.62,7.62,0,0,0,2.885-.11C166.742,6.59,169.914.2,175.5.009s6.67,2.421,6.67,2.421a8.489,8.489,0,0,1,5.124-.807c4.593.621,8.629,7.619,4.528,17.233Z" transform="translate(-159.495 0)" fill="#565e75"/>
                <path id="Path_468" data-name="Path 468" d="M175.156,165.107a3.238,3.238,0,0,0,3.168,3.3l1.6-1.4c0-.008,1.4-1.888,1.4-1.9l-1.4-1.9a3.327,3.327,0,0,0-4.768,1.9Z" transform="translate(-172.982 -144.99)" fill="#ebbaa1"/>
                <path id="Path_469" data-name="Path 469" d="M177.03,186.217a3.324,3.324,0,0,1-3.167-2.311,3.325,3.325,0,0,0,4.946,3.827l.873-1.161-1.052-.767A3.31,3.31,0,0,1,177.03,186.217Z" transform="translate(-171.688 -163.789)" fill="#e8a990"/>
                <path id="Path_470" data-name="Path 470" d="M407.445,165.107a3.238,3.238,0,0,1-3.169,3.3l-1.6-1.4c0-.008-1.394-1.888-1.394-1.9l1.394-1.9a3.328,3.328,0,0,1,4.77,1.9Z" transform="translate(-374.374 -144.99)" fill="#ebbaa1"/>
                <path id="Path_471" data-name="Path 471" d="M407.061,186.217a3.32,3.32,0,0,0,3.165-2.311,3.363,3.363,0,0,1,.161,1.017,3.326,3.326,0,0,1-5.107,2.809l-.873-1.161,1.053-.767A3.3,3.3,0,0,0,407.061,186.217Z" transform="translate(-377.154 -163.789)" fill="#e8a990"/>
                <path id="Path_472" data-name="Path 472" d="M269.984,287.156c-.009.133-.015.263-.015.4a5.052,5.052,0,1,0,10.1,0c0-.133-.006-.263-.012-.4C280.06,287.156,269.975,287.289,269.984,287.156Z" transform="translate(-257.424 -255.747)" fill="#ebbaa1"/>
                <path id="Path_473" data-name="Path 473" d="M229.429,95.31c5.9,0,10.682-4.144,10.682-11.665V80.578a3.352,3.352,0,0,0-1.069-2.468,40.863,40.863,0,0,1-5.107-6.352.564.564,0,0,0-.886-.063,24.158,24.158,0,0,1-12.934,7.061,1.692,1.692,0,0,0-1.366,1.662v3.227C218.75,90.741,223.532,95.31,229.429,95.31Z" transform="translate(-211.808 -63.688)" fill="#fdd4bb"/>
                <path id="Path_474" data-name="Path 474" d="M229.429,193.134a10.68,10.68,0,0,1-10.679-10.681v2.032a10.681,10.681,0,1,0,21.362,0v-2.032A10.68,10.68,0,0,1,229.429,193.134Z" transform="translate(-211.808 -162.497)" fill="#f7c4a8"/>
                <path id="Path_475" data-name="Path 475" d="M155.266,495.407h26.3l.847-1.016-.847-1.016h-26.3Z" transform="translate(-155.266 -439.407)" fill="#8deaf5"/>
                <path id="Path_476" data-name="Path 476" d="M411.568,468v-3.122h-8.1V468l4.051.985Z" transform="translate(-376.319 -414.024)" fill="#fdd4bb"/>
                <path id="Path_477" data-name="Path 477" d="M411.568,493.375h-7.251l-.849,1.016.849,1.016h6.706a.548.548,0,0,0,.545-.545Z" transform="translate(-376.319 -439.407)" fill="#f7c4a8"/>
                <path id="Path_478" data-name="Path 478" d="M397.416,421.684v-7.963a.849.849,0,0,0-1.7,0v7.963l.849,1.013Z" transform="translate(-369.417 -367.715)" fill="#85e1e5"/>
                <path id="Path_479" data-name="Path 479" d="M395.719,493.375h1.7v2.032h-1.7Z" transform="translate(-369.417 -439.407)" fill="#6ed6d6"/>
              </g>
              <path id="Path_491" data-name="Path 491" d="M37.876,360.592H55.292c1.87,0,3.387-1.66,3.387-4.367V343.746a.565.565,0,0,0-.936-.427l-3.927,3.438H37.876a3.386,3.386,0,0,0-3.388,3.385v6.083C34.488,359.437,36.005,360.592,37.876,360.592Z" transform="translate(-34.488 -307.227)" fill="#ffde91"/>
              <path id="Path_492" data-name="Path 492" d="M55.3,465.854H37.879a3.388,3.388,0,0,1-3.387-3.385V464.5a3.389,3.389,0,0,0,3.387,3.391H55.3a3.389,3.389,0,0,0,3.388-3.391v-2.029A3.388,3.388,0,0,1,55.3,465.854Z" transform="translate(-34.492 -413.474)" fill="#ffce6e"/>
            </g>
          </g>
          <path id="Path_482" data-name="Path 482" d="M121.657,422.844h-7.7v.031Z" transform="translate(-101.558 -376.59)" fill="#f4594e"/>
          <g id="Group_115" data-name="Group 115" transform="translate(0 18.219)">
            <path id="Path_485" data-name="Path 485" d="M291.38,216.811a.851.851,0,0,0,.852-.85,1.577,1.577,0,0,1,3.153,0,.85.85,0,1,0,1.7,0,3.277,3.277,0,0,0-6.554,0,.851.851,0,0,0,.852.85Z" transform="translate(-258.822 -207.642)" fill="#f4594e"/>
            <path id="Path_486" data-name="Path 486" d="M255.42,168.883a10.673,10.673,0,0,0,2.6-.694.85.85,0,0,0-.678-1.559,9,9,0,0,1-2.131.567.849.849,0,0,0,.1,1.691Q255.365,168.887,255.42,168.883Z" transform="translate(-226.708 -166.559)" fill="#565e75"/>
            <path id="Path_487" data-name="Path 487" d="M349.637,168.189a10.672,10.672,0,0,0,2.6.694c.037,0,.071,0,.105,0a.849.849,0,0,0,.1-1.691,9.044,9.044,0,0,1-2.134-.567.85.85,0,1,0-.675,1.559Z" transform="translate(-311.008 -166.559)" fill="#565e75"/>
            <path id="Path_488" data-name="Path 488" d="M52.956,238.059a5.6,5.6,0,1,0-5.6-5.6A5.606,5.606,0,0,0,52.956,238.059Zm3.9-5.6a3.905,3.905,0,0,1-3.9,3.9,3.862,3.862,0,0,1-2.091-.61l5.382-5.382A3.883,3.883,0,0,1,56.857,232.459Zm-3.9-3.9a3.888,3.888,0,0,1,2.09.609l-5.382,5.385a3.9,3.9,0,0,1,3.292-5.993Z" transform="translate(-47.355 -211.321)" fill="#f4594e"/>
          </g>
        </g>
        <g id="loss-of-sense-of-smell" transform="translate(7.534 41.735)">
          <g id="Group_107" data-name="Group 107" transform="translate(0 0)">
            <path id="Path_454" data-name="Path 454" d="M223.853,128.138c0,1.124-.533,1.415-1.124,1.415a1.827,1.827,0,0,1-1.055-.352.128.128,0,0,0-.18.029,1.5,1.5,0,0,1-2.574,0,.129.129,0,0,0-.18-.029,1.822,1.822,0,0,1-1.055.352c-.592,0-1.124-.479-1.124-1.415.1-1.065.977-1.64,1.223-2.1.72-1.344.757-5.522,2.422-5.522s1.7,4.178,2.422,5.522C222.876,126.5,223.75,127.073,223.853,128.138Z" transform="translate(-216.552 -120.516)" fill="#fdd4bb"/>
            <path id="Path_455" data-name="Path 455" d="M217.29,430.186a1.838,1.838,0,0,0,1.056-.353.127.127,0,0,1,.178.031,1.5,1.5,0,0,0,2.575,0,.128.128,0,0,1,.178-.031,1.846,1.846,0,0,0,1.055.353c.592,0,1.053-.325,1.124-1.186a1.844,1.844,0,0,1,.011.211c0,1.05-.489,1.434-1.135,1.434a1.745,1.745,0,0,1-.838-.217l-.091-.2-.226-.019a1.534,1.534,0,0,1-2.732,0l-.232.015-.082.2a1.748,1.748,0,0,1-.841.217c-.644,0-1.134-.384-1.134-1.434,0-.074,0-.142.009-.211C216.24,429.861,216.7,430.186,217.29,430.186Z" transform="translate(-216.156 -421.378)" fill="#f7c4a8"/>
            <path id="Path_457" data-name="Path 457" d="M259.375,454.619a1.479,1.479,0,0,1,.759-.31.186.186,0,0,1,.2.177.194.194,0,0,1-.177.208.965.965,0,0,0-.359.108l-.322.019Z" transform="translate(-254.094 -446.061)" fill="#e8a990"/>
            <path id="Path_459" data-name="Path 459" d="M281.219,467.154a1.5,1.5,0,0,1,.26-.279,1.939,1.939,0,0,0,.421.186,1.051,1.051,0,0,0-.369.3A1.637,1.637,0,0,1,281.219,467.154Z" transform="translate(-276.198 -458.316)" fill="#e5967a"/>
            <path id="Path_460" data-name="Path 460" d="M430.832,454.619a1.488,1.488,0,0,0-.759-.31.191.191,0,0,0-.2.177.194.194,0,0,0,.18.208,1,1,0,0,1,.359.108l.322.019Z" transform="translate(-428.798 -446.061)" fill="#e8a990"/>
            <path id="Path_461" data-name="Path 461" d="M420,467.154a1.622,1.622,0,0,0-.263-.279,1.939,1.939,0,0,1-.421.186,1.025,1.025,0,0,1,.369.3A1.607,1.607,0,0,0,420,467.154Z" transform="translate(-417.706 -458.316)" fill="#e5967a"/>
          </g>
          <g id="Group_109" data-name="Group 109" transform="translate(7.056 1.083)">
            <g id="Group_108" data-name="Group 108" transform="translate(0 0)">
              <path id="Path_463" data-name="Path 463" d="M153.858,279.153a.989.989,0,0,1,0-1.5.188.188,0,0,1,.269.019.2.2,0,0,1-.019.273.6.6,0,0,0-.211.458.615.615,0,0,0,.211.458.991.991,0,0,1,0,1.5.2.2,0,0,1-.127.046.189.189,0,0,1-.144-.062.193.193,0,0,1,.02-.273.609.609,0,0,0,.208-.461A.617.617,0,0,0,153.858,279.153Z" transform="translate(-152.523 -274.512)" fill="#adf0ff"/>
              <path id="Path_464" data-name="Path 464" d="M107.114,202.778a.991.991,0,0,1,0-1.5.191.191,0,1,1,.252.288.61.61,0,0,0,0,.92.993.993,0,0,1,0,1.5.2.2,0,0,1-.126.045.191.191,0,0,1-.125-.336.6.6,0,0,0,.209-.458A.612.612,0,0,0,107.114,202.778Z" transform="translate(-104.625 -200.025)" fill="#adf0ff"/>
              <path id="Path_465" data-name="Path 465" d="M194.039,155.093a.193.193,0,0,1,.019-.273.61.61,0,0,0,.209-.46.616.616,0,0,0-.209-.458.994.994,0,0,1,0-1.5.191.191,0,1,1,.251.288.612.612,0,0,0,0,.918.99.99,0,0,1,0,1.5.179.179,0,0,1-.124.046A.2.2,0,0,1,194.039,155.093Z" transform="translate(-193.719 -152.358)" fill="#adf0ff"/>
            </g>
          </g>
        </g>
      </g>
    </g>
    <g id="Group_240" data-name="Group 240" transform="translate(-146 837)">
      <g id="Ellipse_13" data-name="Ellipse 13" transform="translate(256 951)" fill="none" stroke="#e93658" stroke-width="1">
        <circle cx="32.5" cy="32.5" r="32.5" stroke="none"/>
        <circle cx="32.5" cy="32.5" r="32" fill="none"/>
      </g>
    </g>
  </g>
</svg>
