<svg xmlns="http://www.w3.org/2000/svg" width="91" height="112" viewBox="0 0 91 112">
  <g id="Group_387" data-name="Group 387" transform="translate(-51 -2506)">
    <rect id="Rectangle_105" data-name="Rectangle 105" width="91" height="112" rx="11" transform="translate(51 2506)" fill="#ffcf85"/>
    <text id="Shortness_of_breath" data-name="Shortness 
of breath" transform="translate(96 2590.865)" fill="#fff" font-size="10" font-family="Poppins-Regular, Poppins"><tspan x="-25.875" y="0">Shortness </tspan><tspan x="-22.925" y="11">of breath</tspan></text>
    <g id="Group_244" data-name="Group 244" transform="translate(8.875 545.865)">
      <g id="Group_374" data-name="Group 374" transform="translate(-1431 -277)">
        <g id="_005-difficulty-breathing" data-name="005-difficulty-breathing" transform="translate(1493.966 2249.27)">
          <g id="Group_140" data-name="Group 140" transform="translate(0 0)">
            <path id="Path_545" data-name="Path 545" d="M102.841,18.269A19.141,19.141,0,0,1,99.635,8.135a.546.546,0,0,1,.622-.55,7.633,7.633,0,0,0,2.891-.11C106.377,6.6,109.555.2,115.154.009s6.685,2.426,6.685,2.426a8.508,8.508,0,0,1,5.135-.809c4.6.622,8.647,7.636,4.538,17.27Z" transform="translate(-92.116 0)" fill="#e5907b"/>
            <g id="Group_137" data-name="Group 137" transform="translate(9.018 17.846)">
              <path id="Path_546" data-name="Path 546" d="M114.763,165.114a3.18,3.18,0,0,0,3.174,3.3s1.6-1.426,1.6-1.4c0-.009,0-.018,0-.027l.987-2.037-.987-1.743a3.334,3.334,0,0,0-4.778,1.9Z" transform="translate(-114.604 -162.799)" fill="#ebbaa1"/>
              <path id="Path_547" data-name="Path 547" d="M116.646,186.234a3.335,3.335,0,0,1-3.174-2.315,3.333,3.333,0,0,0,4.957,3.834l.861-.883-1.04-1.049A3.314,3.314,0,0,1,116.646,186.234Z" transform="translate(-113.313 -181.604)" fill="#e8a990"/>
              <path id="Path_548" data-name="Path 548" d="M350.413,165.114a3.18,3.18,0,0,1-3.175,3.3s-1.6-1.426-1.6-1.4c0-.009,0-.018,0-.027l-.987-2.037.987-1.743a3.334,3.334,0,0,1,4.778,1.9Z" transform="translate(-319.29 -162.799)" fill="#ebbaa1"/>
              <path id="Path_549" data-name="Path 549" d="M346.8,186.234a3.335,3.335,0,0,0,3.175-2.315,3.333,3.333,0,0,1-4.957,3.834l-.861-.883,1.04-1.049A3.313,3.313,0,0,0,346.8,186.234Z" transform="translate(-318.851 -181.604)" fill="#e8a990"/>
            </g>
            <path id="Path_550" data-name="Path 550" d="M169.058,95.356c5.912,0,10.7-3.628,10.7-11.69V80.592a3.362,3.362,0,0,0-1.07-2.474,40.826,40.826,0,0,1-5.117-6.366.566.566,0,0,0-.889-.063,24.2,24.2,0,0,1-12.962,7.076,1.7,1.7,0,0,0-1.369,1.665v3.235C158.354,90.781,163.146,95.356,169.058,95.356Z" transform="translate(-144.399 -63.665)" fill="#fdd4bb"/>
            <path id="Path_551" data-name="Path 551" d="M117.558,287.322a10.716,10.716,0,0,1-10.026,0,15.933,15.933,0,0,0-12.648,15.589v7l17.661.987,17.661-.987v-7a15.933,15.933,0,0,0-12.648-15.589Z" transform="translate(-87.886 -255.826)" fill="#f4594e"/>
            <path id="Path_552" data-name="Path 552" d="M94.884,495.456l6.043-1.018,3.257,1.018h16.724l3.776-1.018,5.523,1.018v-2.037H94.884Z" transform="translate(-87.886 -439.331)" fill="#e84642"/>
            <path id="Path_553" data-name="Path 553" d="M209.822,287.16c-.01.132-.017.264-.017.4a5.064,5.064,0,0,0,10.128,0c0-.134-.007-.267-.017-.4Z" transform="translate(-190.21 -255.682)" fill="#ebbaa1"/>
            <path id="Path_554" data-name="Path 554" d="M228.324,215.809a3.461,3.461,0,0,0-3.4,2.8.55.55,0,0,0,.538.658h5.719a.55.55,0,0,0,.538-.658A3.461,3.461,0,0,0,228.324,215.809Z" transform="translate(-203.665 -192.152)" fill="#f4594e"/>
            <path id="Path_555" data-name="Path 555" d="M372.967,241.663l2.548,1.991c-.005.022-.01.044-.014.067l.031-.01a2.649,2.649,0,0,0,2.294,2.472,2.733,2.733,0,0,0,1.262-.238.562.562,0,0,1,.567.059,2.99,2.99,0,0,0,4.793-2.537l.025-.006a3.016,3.016,0,0,0-.377-.787,4.116,4.116,0,0,0-7.889-2.26c0,.08,0,.159.012.237h-2.9A.566.566,0,0,0,372.967,241.663Z" transform="translate(-335.292 -211.91)" fill="#ebf2f8"/>
            <path id="Path_556" data-name="Path 556" d="M43.533,240.651h-2.9c.008-.078.012-.157.012-.237a2.416,2.416,0,0,0-4.633-.957,2.4,2.4,0,0,0-1.359-.246,2.411,2.411,0,0,0-1.9,3.464,3.02,3.02,0,0,0-.367.758,3.061,3.061,0,0,0,2.961,3.149,3.093,3.093,0,0,0,1.848-.609.564.564,0,0,1,.569-.059,2.493,2.493,0,0,0,3.572-2.246l0-.013,2.548-1.991A.566.566,0,0,0,43.533,240.651Z" transform="translate(-32.238 -211.91)" fill="#ebf2f8"/>
            <path id="Path_557" data-name="Path 557" d="M277.479,370.406l-8.772-10.278s2.293-2.988.845-4.436c-1.008-1.008-3.059-.025-4.214.666.694,2.134.084,4.942-3.067,6.992l5.955,7.055,5.5,1.018Z" transform="translate(-236.925 -316.318)" fill="#ebbaa1"/>
            <path id="Path_558" data-name="Path 558" d="M126.89,336.99c-3.878,0-5.521,3.691-5.521,3.691s-1.583-2.205-3.031-.757.874,4.585.874,4.585l-8.218,9.629,4.277,1.018,4.982-1.018,4.969-5.867C134,344.86,131,336.99,126.89,336.99Z" transform="translate(-102.231 -300.05)" fill="#fdd4bb"/>
            <path id="Path_559" data-name="Path 559" d="M96.874,493.419l-1.738,2.037h9.272l1.725-2.037Z" transform="translate(-88.111 -439.331)" fill="#f7c4a8"/>
            <path id="Path_560" data-name="Path 560" d="M169.056,193.156a10.7,10.7,0,0,1-10.7-10.7v2.037a10.7,10.7,0,1,0,21.408,0v-2.037A10.7,10.7,0,0,1,169.056,193.156Z" transform="translate(-144.397 -162.452)" fill="#f7c4a8"/>
            <path id="Path_561" data-name="Path 561" d="M316.6,493.419l1.719,2.037h9.272l-1.738-2.037Z" transform="translate(-285.296 -439.331)" fill="#e8a990"/>
            <g id="Group_138" data-name="Group 138" transform="translate(0 31.522)">
              <path id="Path_562" data-name="Path 562" d="M37.837,289.3a2.743,2.743,0,0,1-1.266-.239.564.564,0,0,0-.569.059,3.108,3.108,0,0,1-4.809-1.553,3.031,3.031,0,0,0,4.946,3.153,2.68,2.68,0,0,0,3.958-1.494,2.638,2.638,0,0,0,.047-1.424A2.766,2.766,0,0,1,37.837,289.3Z" transform="translate(-31.045 -287.566)" fill="#d6e3ed"/>
            </g>
            <g id="Group_139" data-name="Group 139" transform="translate(40.145 31.525)">
              <path id="Path_563" data-name="Path 563" d="M403.335,289.756a3.1,3.1,0,0,1-1.849-.61.564.564,0,0,0-.569-.059,2.744,2.744,0,0,1-3.571-1.253,2.636,2.636,0,0,0,.053,1.418,2.68,2.68,0,0,0,3.955,1.487,3.031,3.031,0,0,0,4.946-3.151A3.111,3.111,0,0,1,403.335,289.756Z" transform="translate(-397.273 -287.589)" fill="#d6e3ed"/>
            </g>
          </g>
          <g id="Group_141" data-name="Group 141" transform="translate(17.432 17.15)">
            <path id="Path_564" data-name="Path 564" d="M191.146,159.545c.02-.005.182-.051.434-.15v.12a.85.85,0,0,0,1.7,0v-1.08a6.517,6.517,0,0,0,.611-.529.85.85,0,1,0-1.192-1.213,5.267,5.267,0,0,1-2.005,1.212.85.85,0,0,0,.451,1.64Z" transform="translate(-190.071 -156.449)" fill="#565e75"/>
            <path id="Path_565" data-name="Path 565" d="M285.621,158.436v1.08a.85.85,0,0,0,1.7,0v-.12c.252.1.414.145.434.15a.85.85,0,1,0,.448-1.641,5.255,5.255,0,0,1-2-1.211.85.85,0,1,0-1.192,1.213A6.538,6.538,0,0,0,285.621,158.436Z" transform="translate(-274.376 -156.451)" fill="#565e75"/>
          </g>
        </g>
      </g>
    </g>
  </g>
</svg>
