<svg xmlns="http://www.w3.org/2000/svg" width="91" height="112" viewBox="0 0 91 112">
  <g id="Group_388" data-name="Group 388" transform="translate(-215 -2325)">
    <rect id="Rectangle_104" data-name="Rectangle 104" width="91" height="112" rx="12" transform="translate(215 2325)" fill="#ffcf85"/>
    <text id="Skin_rash" data-name="Skin rash" transform="translate(261 2417.438)" fill="#fff" font-size="12" font-family="Poppins-Regular, Poppins"><tspan x="-26.796" y="0">Skin rash</tspan></text>
    <g id="Group_242" data-name="Group 242" transform="translate(20.418 543.438)">
      <g id="Group_372" data-name="Group 372" transform="translate(-1520 -13)">
        <g id="_004-skin-rash" data-name="004-skin-rash" transform="translate(1736.683 1810.124)">
          <g id="Group_91" data-name="Group 91" transform="translate(0 0)">
            <path id="Path_370" data-name="Path 370" d="M141.588,309.863l11.6.984,11.6-.984,1.023-10.564-1.158-8.982a15.826,15.826,0,0,0-6.466-3,10.692,10.692,0,0,1-10,0,15.825,15.825,0,0,0-6.466,3l-1.158,8.982Z" transform="translate(-129.792 -255.895)" fill="#f4594e"/>
            <path id="Path_371" data-name="Path 371" d="M209.822,287.16c-.01.131-.017.264-.017.4a5.053,5.053,0,1,0,10.105,0c0-.134-.007-.266-.017-.4Z" transform="translate(-191.459 -255.752)" fill="#ebbaa1"/>
            <g id="Group_87" data-name="Group 87" transform="translate(10.819 53.968)">
              <path id="Path_372" data-name="Path 372" d="M165.16,493.419H141.969l-.984,1.016.984,1.016H165.16l.984-1.02Z" transform="translate(-140.985 -493.419)" fill="#e84642"/>
            </g>
            <path id="Path_373" data-name="Path 373" d="M44.969,291.554c0,1.251,2.416,2.642,3.2,2.872l.411,1.161-.006-.005.033,10.495.006.008,3.918.984,3.917-.984-.038-10.564c4.266-8.231-3.372-14.524-6.861-11.8-3.273,2.559-1.9,7.243-1.9,7.243S45.741,290.507,44.969,291.554Z" transform="translate(-44.652 -252.117)" fill="#fdd4bb"/>
            <path id="Path_374" data-name="Path 374" d="M102.833,18.229a19.1,19.1,0,0,1-3.2-10.112.545.545,0,0,1,.62-.549,7.616,7.616,0,0,0,2.884-.11c3.223-.869,6.394-7.263,11.98-7.449s6.67,2.421,6.67,2.421a8.489,8.489,0,0,1,5.124-.807c4.593.621,8.628,7.619,4.527,17.232" transform="translate(-93.338 0)" fill="#e5907b"/>
            <g id="Group_88" data-name="Group 88" transform="translate(7.792 17.806)">
              <path id="Path_375" data-name="Path 375" d="M114.763,165.109a3.173,3.173,0,0,0,3.167,3.294s1.6-1.423,1.6-1.4c0-.009,0-.018,0-.027l.984-2.032-.984-1.74a3.327,3.327,0,0,0-4.767,1.9Z" transform="translate(-114.604 -162.799)" fill="#ebbaa1"/>
              <path id="Path_376" data-name="Path 376" d="M116.639,186.229a3.327,3.327,0,0,1-3.167-2.31,3.326,3.326,0,0,0,4.946,3.826l.859-.881-1.038-1.047A3.307,3.307,0,0,1,116.639,186.229Z" transform="translate(-113.313 -181.609)" fill="#e8a990"/>
              <path id="Path_377" data-name="Path 377" d="M350.4,165.109a3.173,3.173,0,0,1-3.167,3.294s-1.6-1.423-1.6-1.4c0-.009,0-.018,0-.027l-.984-2.032.984-1.74a3.327,3.327,0,0,1,4.767,1.9Z" transform="translate(-319.347 -162.799)" fill="#ebbaa1"/>
              <path id="Path_378" data-name="Path 378" d="M346.793,186.229a3.327,3.327,0,0,0,3.167-2.31,3.326,3.326,0,0,1-4.947,3.826l-.859-.881,1.038-1.047A3.306,3.306,0,0,0,346.793,186.229Z" transform="translate(-318.907 -181.609)" fill="#e8a990"/>
            </g>
            <path id="Path_379" data-name="Path 379" d="M158.351,83.636c0,7.618,4.782,11.664,10.68,11.664s10.68-4.564,10.68-11.664V80.57a3.355,3.355,0,0,0-1.068-2.468,40.733,40.733,0,0,1-5.106-6.352.565.565,0,0,0-.887-.063,24.151,24.151,0,0,1-12.933,7.06,1.692,1.692,0,0,0-1.366,1.662v3.227Z" transform="translate(-145.633 -63.68)" fill="#fdd4bb"/>
            <path id="Path_380" data-name="Path 380" d="M228.317,215.809a3.453,3.453,0,0,0-3.389,2.8.549.549,0,0,0,.536.657h5.706a.549.549,0,0,0,.536-.657,3.453,3.453,0,0,0-3.389-2.8Z" transform="translate(-204.918 -192.205)" fill="#f4594e"/>
            <path id="Path_381" data-name="Path 381" d="M169.032,193.132a10.68,10.68,0,0,1-10.68-10.68v2.032a10.68,10.68,0,0,0,21.36,0v-2.032A10.68,10.68,0,0,1,169.032,193.132Z" transform="translate(-145.634 -162.496)" fill="#f7c4a8"/>
            <g id="Group_89" data-name="Group 89" transform="translate(0 39.437)">
              <path id="Path_382" data-name="Path 382" d="M45.992,364.6l.006.005L45.993,363a.564.564,0,0,0-.406-.54,6.245,6.245,0,0,1-3.2-1.887,1.722,1.722,0,0,0-.312.917C41.913,363.677,45.992,364.6,45.992,364.6Z" transform="translate(-42.071 -360.572)" fill="#f7c4a8"/>
              <path id="Path_383" data-name="Path 383" d="M86.062,493.358H78.226l-.006-.008,0,1.495a.547.547,0,0,0,.547.545h7.3Z" transform="translate(-74.266 -478.828)" fill="#f7c4a8"/>
            </g>
            <path id="Path_384" data-name="Path 384" d="M363.6,291.554c0,1.251-2.416,2.642-3.2,2.872l-.411,1.161.006-.005-.033,10.495-.007.008-3.918.984-3.917-.984.038-10.564c-4.266-8.231,3.372-14.524,6.861-11.8,3.273,2.559,1.9,7.243,1.9,7.243S362.831,290.507,363.6,291.554Z" transform="translate(-317.123 -252.117)" fill="#fdd4bb"/>
            <g id="Group_90" data-name="Group 90" transform="translate(34.994 39.437)">
              <path id="Path_385" data-name="Path 385" d="M434.031,364.6l-.006.005L434.03,363a.564.564,0,0,1,.406-.54,6.245,6.245,0,0,0,3.2-1.887,1.722,1.722,0,0,1,.312.917C438.11,363.677,434.031,364.6,434.031,364.6Z" transform="translate(-426.149 -360.572)" fill="#f7c4a8"/>
              <path id="Path_386" data-name="Path 386" d="M362.023,493.358h7.836l.006-.008,0,1.495a.547.547,0,0,1-.547.545h-7.3Z" transform="translate(-362.016 -478.828)" fill="#f7c4a8"/>
            </g>
          </g>
          <g id="Group_93" data-name="Group 93" transform="translate(5.772 17.112)">
            <path id="Path_387" data-name="Path 387" d="M193.273,159.508V158.43a6.489,6.489,0,0,0,.61-.528.848.848,0,1,0-1.189-1.211,5.254,5.254,0,0,1-2,1.21.848.848,0,0,0,.45,1.636c.02-.005.182-.051.433-.15v.12a.849.849,0,0,0,1.7,0Z" transform="translate(-179.656 -156.449)" fill="#565e75"/>
            <path id="Path_388" data-name="Path 388" d="M288.2,157.9a5.256,5.256,0,0,1-2-1.21.848.848,0,1,0-1.189,1.211,6.486,6.486,0,0,0,.61.528v1.077a.848.848,0,1,0,1.7,0v-.12c.251.1.413.144.433.15a.848.848,0,0,0,.45-1.636Z" transform="translate(-263.984 -156.45)" fill="#565e75"/>
            <g id="Group_92" data-name="Group 92" transform="translate(0 17.662)">
              <path id="Path_389" data-name="Path 389" d="M117.339,317.934a.848.848,0,0,0-.848.848v.821a.848.848,0,0,0,1.7,0v-.821A.848.848,0,0,0,117.339,317.934Z" transform="translate(-114.124 -317.934)" fill="#f4594e"/>
              <path id="Path_390" data-name="Path 390" d="M117.339,368.029a.848.848,0,0,0-.848.848v.821a.848.848,0,0,0,1.7,0v-.821A.848.848,0,0,0,117.339,368.029Z" transform="translate(-114.124 -362.55)" fill="#f4594e"/>
              <path id="Path_391" data-name="Path 391" d="M95.694,342.757a.848.848,0,0,0-.848.848v.821a.848.848,0,0,0,1.7,0v-.821A.848.848,0,0,0,95.694,342.757Z" transform="translate(-94.846 -340.042)" fill="#f4594e"/>
              <path id="Path_392" data-name="Path 392" d="M117.339,417.353a.848.848,0,0,0-.848.848v.821a.848.848,0,0,0,1.7,0V418.2A.848.848,0,0,0,117.339,417.353Z" transform="translate(-114.124 -406.479)" fill="#f4594e"/>
              <path id="Path_393" data-name="Path 393" d="M95.694,392.081a.848.848,0,0,0-.848.848v.821a.848.848,0,1,0,1.7,0v-.821A.848.848,0,0,0,95.694,392.081Z" transform="translate(-94.846 -383.971)" fill="#f4594e"/>
              <path id="Path_394" data-name="Path 394" d="M117.339,466.678a.848.848,0,0,0-.848.848v.821a.848.848,0,0,0,1.7,0v-.821A.848.848,0,0,0,117.339,466.678Z" transform="translate(-114.124 -450.409)" fill="#f4594e"/>
              <path id="Path_395" data-name="Path 395" d="M95.694,441.406a.848.848,0,0,0-.848.848v.821a.848.848,0,1,0,1.7,0v-.821A.848.848,0,0,0,95.694,441.406Z" transform="translate(-94.846 -427.901)" fill="#f4594e"/>
              <path id="Path_396" data-name="Path 396" d="M381.692,318.783a.848.848,0,1,0-1.7,0v.821a.848.848,0,0,0,1.7,0Z" transform="translate(-348.807 -317.934)" fill="#f4594e"/>
              <path id="Path_397" data-name="Path 397" d="M381.692,368.877a.848.848,0,0,0-1.7,0v.821a.848.848,0,0,0,1.7,0Z" transform="translate(-348.807 -362.55)" fill="#f4594e"/>
              <path id="Path_398" data-name="Path 398" d="M403.337,343.605a.848.848,0,1,0-1.7,0v.821a.848.848,0,1,0,1.7,0Z" transform="translate(-368.084 -340.042)" fill="#f4594e"/>
              <path id="Path_399" data-name="Path 399" d="M381.692,418.2a.848.848,0,0,0-1.7,0v.821a.848.848,0,0,0,1.7,0Z" transform="translate(-348.807 -406.479)" fill="#f4594e"/>
              <path id="Path_400" data-name="Path 400" d="M403.337,392.93a.848.848,0,1,0-1.7,0v.821a.848.848,0,1,0,1.7,0Z" transform="translate(-368.084 -383.971)" fill="#f4594e"/>
              <path id="Path_401" data-name="Path 401" d="M380.843,466.678a.848.848,0,0,0-.848.848v.821a.848.848,0,0,0,1.7,0v-.821A.848.848,0,0,0,380.843,466.678Z" transform="translate(-348.807 -450.409)" fill="#f4594e"/>
              <path id="Path_402" data-name="Path 402" d="M402.488,441.406a.848.848,0,0,0-.848.848v.821a.848.848,0,1,0,1.7,0v-.821A.848.848,0,0,0,402.488,441.406Z" transform="translate(-368.084 -427.901)" fill="#f4594e"/>
            </g>
          </g>
        </g>
      </g>
    </g>
  </g>
</svg>
