<svg xmlns="http://www.w3.org/2000/svg" width="91" height="112" viewBox="0 0 91 112">
  <g id="Group_391" data-name="Group 391" transform="translate(-142 -2083)">
    <rect id="Rectangle_98" data-name="Rectangle 98" width="91" height="112" rx="12" transform="translate(142 2083)" fill="#ffcf85"/>
    <text id="Sore_throat" data-name="Sore throat" transform="translate(188 2175.174)" fill="#fff" font-size="12" font-family="Poppins-Regular, Poppins"><tspan x="-33.264" y="0">Sore throat</tspan></text>
    <g id="Group_235" data-name="Group 235" transform="translate(0 694.836)">
      <g id="Group_119" data-name="Group 119" transform="translate(-4 7)">
        <g id="Group_367" data-name="Group 367" transform="translate(4 -4)">
          <g id="_008-sore-throat" data-name="008-sore-throat" transform="translate(169.875 1400.99)">
            <g id="Group_100" data-name="Group 100" transform="translate(0 0)">
              <path id="Path_417" data-name="Path 417" d="M130.134,309.867v-6.989a15.9,15.9,0,0,0-12.622-15.557,10.694,10.694,0,0,1-10.006,0,15.9,15.9,0,0,0-12.622,15.557v3.868l.985,3.12,16.641.985Z" transform="translate(-94.884 -255.89)" fill="#f4594e"/>
              <path id="Path_418" data-name="Path 418" d="M167.688,495.452h17.129l4.965-.985,4.315.985v-2.033H167.688l-.985,1.016Z" transform="translate(-158.846 -439.442)" fill="#e84642"/>
              <path id="Path_419" data-name="Path 419" d="M94.884,468.015l4.049.984,4.049-.984V464.9h-8.1Z" transform="translate(-94.884 -414.038)" fill="#fdd4bb"/>
              <path id="Path_420" data-name="Path 420" d="M94.884,493.419h7.147l.985,1.016-.985,1.016h-6.6a.547.547,0,0,1-.547-.547Z" transform="translate(-94.884 -439.442)" fill="#f7c4a8"/>
              <path id="Path_421" data-name="Path 421" d="M230.022,354.1l5.065.985,4.175-.985-8.2-9.609s2.318-3.131.873-4.576-3.025.756-3.025.756-1.639-3.683-5.509-3.683c-4.1,0-7.1,7.854,1.664,11.257Z" transform="translate(-205.773 -300.125)" fill="#fdd4bb"/>
              <g id="Group_98" data-name="Group 98" transform="translate(7.147 45.167)">
                <path id="Path_422" data-name="Path 422" d="M161.913,421.695v-7.963a.847.847,0,0,0-1.694,0v7.963l.847,1.016Z" transform="translate(-160.219 -412.885)" fill="#e84642"/>
                <path id="Path_423" data-name="Path 423" d="M160.22,493.419h1.694v2.033H160.22Z" transform="translate(-160.22 -484.609)" fill="#78c2a4"/>
              </g>
              <path id="Path_424" data-name="Path 424" d="M102.835,18.232a19.1,19.1,0,0,1-3.2-10.113.545.545,0,0,1,.621-.549,7.617,7.617,0,0,0,2.885-.11C106.364,6.59,109.535.2,115.123.009s6.671,2.421,6.671,2.421a8.491,8.491,0,0,1,5.125-.807c4.594.621,8.63,7.62,4.528,17.235Z" transform="translate(-99.115 0)" fill="#e5907b"/>
              <path id="Path_425" data-name="Path 425" d="M114.763,165.11a3.237,3.237,0,0,0,3.168,3.295l1.6-1.4c0-.009,1.4-1.89,1.4-1.9l-1.4-1.9a3.328,3.328,0,0,0-4.768,1.9Z" transform="translate(-112.588 -144.991)" fill="#ebbaa1"/>
              <path id="Path_426" data-name="Path 426" d="M116.64,186.229a3.328,3.328,0,0,1-3.168-2.31,3.326,3.326,0,0,0,4.947,3.826l.872-1.163-1.051-.765A3.308,3.308,0,0,1,116.64,186.229Z" transform="translate(-111.297 -163.799)" fill="#e8a990"/>
              <path id="Path_427" data-name="Path 427" d="M347.042,165.11a3.237,3.237,0,0,1-3.168,3.295l-1.6-1.4c0-.009-1.4-1.89-1.4-1.9l1.4-1.9a3.328,3.328,0,0,1,4.768,1.9Z" transform="translate(-313.966 -144.991)" fill="#ebbaa1"/>
              <path id="Path_428" data-name="Path 428" d="M346.692,186.229a3.328,3.328,0,0,0,3.168-2.31,3.326,3.326,0,0,1-4.947,3.826l-.872-1.163,1.05-.765A3.307,3.307,0,0,0,346.692,186.229Z" transform="translate(-316.784 -163.799)" fill="#e8a990"/>
              <path id="Path_429" data-name="Path 429" d="M169.036,95.307c5.9,0,10.682-4.145,10.682-11.667V80.573A3.355,3.355,0,0,0,178.65,78.1a40.74,40.74,0,0,1-5.107-6.353.565.565,0,0,0-.887-.063,24.155,24.155,0,0,1-12.935,7.061,1.692,1.692,0,0,0-1.366,1.662V83.64C158.354,90.738,163.136,95.307,169.036,95.307Z" transform="translate(-151.411 -63.681)" fill="#fdd4bb"/>
              <path id="Path_430" data-name="Path 430" d="M209.822,287.16c-.01.131-.017.264-.017.4a5.053,5.053,0,1,0,10.107,0c0-.134-.007-.266-.017-.4Z" transform="translate(-197.233 -255.746)" fill="#ebbaa1"/>
              <g id="Group_99" data-name="Group 99" transform="translate(6.943 19.959)">
                <path id="Path_431" data-name="Path 431" d="M169.034,193.134a10.682,10.682,0,0,1-10.682-10.682v2.033a10.682,10.682,0,0,0,21.364,0v-2.033A10.682,10.682,0,0,1,169.034,193.134Z" transform="translate(-158.352 -182.452)" fill="#f7c4a8"/>
                <path id="Path_432" data-name="Path 432" d="M316.545,493.419l1.722,2.033h9.253l-1.735-2.033Z" transform="translate(-299.24 -459.401)" fill="#f7c4a8"/>
              </g>
            </g>
            <g id="Group_102" data-name="Group 102" transform="translate(1.136 17.681)">
              <path id="Path_433" data-name="Path 433" d="M192.689,161.871a5.259,5.259,0,0,1-2,1.209.849.849,0,0,0,.451,1.638,6.909,6.909,0,0,0,2.74-1.635.849.849,0,1,0-1.19-1.212Z" transform="translate(-180.79 -161.628)" fill="#565e75"/>
              <path id="Path_434" data-name="Path 434" d="M287.742,164.719a.849.849,0,0,0,.451-1.638,5.253,5.253,0,0,1-2-1.21.849.849,0,0,0-1.19,1.212A6.907,6.907,0,0,0,287.742,164.719Z" transform="translate(-265.113 -161.628)" fill="#565e75"/>
              <g id="Group_101" data-name="Group 101" transform="translate(0 5.925)">
                <path id="Path_435" data-name="Path 435" d="M236.427,218.563a.849.849,0,0,0,1.7,0,2.516,2.516,0,1,0-5.006,0,.849.849,0,0,0,1.7,0c0-.581.368-1.072.8-1.072S236.427,217.982,236.427,218.563Z" transform="translate(-219.134 -215.793)" fill="#f4594e"/>
                <path id="Path_436" data-name="Path 436" d="M106.159,267.052a3.806,3.806,0,0,0,1.732-.614,3.367,3.367,0,0,1,1.225-.5,1.725,1.725,0,0,1,1.068.349.849.849,0,1,0,1.132-1.263,3.379,3.379,0,0,0-2.2-.785,4.4,4.4,0,0,0-2.036.7,3.332,3.332,0,0,1-.922.408.849.849,0,0,0-.074,1.7Z" transform="translate(-105.271 -258.943)" fill="#f4594e"/>
                <path id="Path_437" data-name="Path 437" d="M161.725,321.739a3.406,3.406,0,0,0-2.146.794,4.281,4.281,0,0,0-1.1,1.776.849.849,0,0,0,1.575.637,3.232,3.232,0,0,1,.607-1.1,1.745,1.745,0,0,1,1.032-.409.848.848,0,0,0,.1-1.694Z" transform="translate(-152.602 -310.149)" fill="#f4594e"/>
                <path id="Path_438" data-name="Path 438" d="M354.089,267.052a3.806,3.806,0,0,1-1.732-.614,3.367,3.367,0,0,0-1.225-.5,1.725,1.725,0,0,0-1.068.349.849.849,0,1,1-1.132-1.263,3.379,3.379,0,0,1,2.2-.785,4.4,4.4,0,0,1,2.036.7,3.332,3.332,0,0,0,.922.408.849.849,0,0,1,.074,1.7Z" transform="translate(-321.999 -258.943)" fill="#f4594e"/>
                <path id="Path_439" data-name="Path 439" d="M322.772,321.739a3.406,3.406,0,0,1,2.146.794,4.281,4.281,0,0,1,1.1,1.776.849.849,0,0,1-1.575.637,3.233,3.233,0,0,0-.607-1.1,1.745,1.745,0,0,0-1.032-.409.848.848,0,0,1-.1-1.694Z" transform="translate(-298.216 -310.149)" fill="#f4594e"/>
              </g>
            </g>
          </g>
        </g>
      </g>
    </g>
  </g>
</svg>
