<svg xmlns="http://www.w3.org/2000/svg" xmlns:xlink="http://www.w3.org/1999/xlink" width="66" height="66" viewBox="0 0 66 66">
  <defs>
    <clipPath id="clip-path">
      <circle id="Ellipse_31" data-name="Ellipse 31" cx="33" cy="33" r="33" transform="translate(1727 1038)" fill="#fff"/>
    </clipPath>
  </defs>
  <g id="Group_226" data-name="Group 226" transform="translate(-107 -1162)">
    <g id="Group_34" data-name="Group 34" transform="translate(-72 275)">
      <g id="Path_144" data-name="Path 144" transform="translate(180 888)" fill="rgba(0,219,158,0.22)">
        <path d="M 32.5 64.5 C 28.1798095703125 64.5 23.98911094665527 63.65399932861328 20.04430961608887 61.98548889160156 C 16.23382949829102 60.3737907409668 12.8115701675415 58.06639862060547 9.872579574584961 55.12741851806641 C 6.933599948883057 52.18843078613281 4.62621021270752 48.76617050170898 3.014509916305542 44.9556884765625 C 1.345999956130981 41.01089096069336 0.5 36.8201904296875 0.5 32.5 C 0.5 28.1798095703125 1.345999956130981 23.98911094665527 3.014509916305542 20.04430961608887 C 4.62621021270752 16.23382949829102 6.933599948883057 12.8115701675415 9.872579574584961 9.872579574584961 C 12.8115701675415 6.933599948883057 16.23382949829102 4.62621021270752 20.04430961608887 3.014509916305542 C 23.98911094665527 1.345999956130981 28.1798095703125 0.5 32.5 0.5 C 36.8201904296875 0.5 41.01089096069336 1.345999956130981 44.9556884765625 3.014509916305542 C 48.76617050170898 4.62621021270752 52.18843078613281 6.933599948883057 55.12741851806641 9.872579574584961 C 58.06639862060547 12.8115701675415 60.3737907409668 16.23382949829102 61.98548889160156 20.04430961608887 C 63.65399932861328 23.98911094665527 64.5 28.1798095703125 64.5 32.5 C 64.5 36.8201904296875 63.65399932861328 41.01089096069336 61.98548889160156 44.9556884765625 C 60.3737907409668 48.76617050170898 58.06639862060547 52.18843078613281 55.12741851806641 55.12741851806641 C 52.18843078613281 58.06639862060547 48.76617050170898 60.3737907409668 44.9556884765625 61.98548889160156 C 41.01089096069336 63.65399932861328 36.8201904296875 64.5 32.5 64.5 Z" stroke="none"/>
        <path d="M 32.5 1 C 28.24708938598633 1 24.12192153930664 1.832721710205078 20.23908996582031 3.475021362304688 C 16.48820877075195 5.061500549316406 13.11936950683594 7.332908630371094 10.22613906860352 10.22613906860352 C 7.332908630371094 13.11936950683594 5.061500549316406 16.48820877075195 3.475021362304688 20.23908996582031 C 1.832721710205078 24.12192153930664 1 28.24708938598633 1 32.5 C 1 36.75291061401367 1.832721710205078 40.87808227539062 3.475021362304688 44.76091003417969 C 5.061500549316406 48.51178741455078 7.332908630371094 51.88063049316406 10.22613906860352 54.77386093139648 C 13.11936950683594 57.66709136962891 16.48820877075195 59.93849945068359 20.23908996582031 61.52497863769531 C 24.12192153930664 63.16727828979492 28.24708938598633 64 32.5 64 C 36.75291061401367 64 40.87808227539062 63.16727828979492 44.76091003417969 61.52497863769531 C 48.51178741455078 59.93849945068359 51.88063049316406 57.66709136962891 54.77386093139648 54.77386093139648 C 57.66709136962891 51.88063049316406 59.93849945068359 48.51178741455078 61.52497863769531 44.76091003417969 C 63.16727828979492 40.87808227539062 64 36.75291061401367 64 32.5 C 64 28.24708938598633 63.16727828979492 24.12192153930664 61.52497863769531 20.23908996582031 C 59.93849945068359 16.48820877075195 57.66709136962891 13.11936950683594 54.77386093139648 10.22613906860352 C 51.88063049316406 7.332908630371094 48.51178741455078 5.061500549316406 44.76091003417969 3.475021362304688 C 40.87808227539062 1.832721710205078 36.75291061401367 1 32.5 1 M 32.5 0 C 50.44924926757812 0 65 14.55075073242188 65 32.5 C 65 50.44924926757812 50.44924926757812 65 32.5 65 C 14.55075073242188 65 0 50.44924926757812 0 32.5 C 0 14.55075073242188 14.55075073242188 0 32.5 0 Z" stroke="none" fill="#2cdead"/>
      </g>
    </g>
    <g id="Mask_Group_15" data-name="Mask Group 15" transform="translate(-1620 124)" clip-path="url(#clip-path)">
      <g id="Flat" transform="translate(1737.574 1045.691)">
        <path id="Path_107" data-name="Path 107" d="M272,64h9.461v3.784H272Z" transform="translate(-242.671 -59.269)" fill="#dfdfdd"/>
        <path id="Path_108" data-name="Path 108" d="M214.414,161.892a4.048,4.048,0,0,0-2.8,1.108l-2.8,2.676a2.595,2.595,0,0,0,0,3.784,2.831,2.831,0,0,0,3.911,0l-1.933,1.892a2.595,2.595,0,0,0,0,3.784,2.726,2.726,0,0,0,3.825,0l-1.847,1.892a2.595,2.595,0,0,0,0,3.784,2.888,2.888,0,0,0,3.956,0l3.956-3.784h2.967v2.676a4.039,4.039,0,0,0,4.126,3.947h5.764V160Z" transform="translate(-186.24 -143.916)" fill="#f6a368"/>
        <path id="Path_109" data-name="Path 109" d="M256,128h13.245v29.329H256Z" transform="translate(-228.563 -115.701)" fill="#4db6e4"/>
        <path id="Path_110" data-name="Path 110" d="M256,168h9.461v17.976H256Z" transform="translate(-228.563 -150.97)" fill="#85ccd5"/>
        <path id="Path_111" data-name="Path 111" d="M284.912,64.813A14.693,14.693,0,0,1,276.3,51.437l-7.712-4.207a3.181,3.181,0,0,1-1.322-4.216l.043-.085a3.181,3.181,0,0,1,4.268-1.423l4.724,2.362V33.461l-3.784-4.731h-6.15a2.365,2.365,0,1,1,0-4.731h8.194a3.784,3.784,0,0,1,2.874,1.322l4.543,5.3,1.892,7.569,6.623,9.461V65.629h-1.814a9.1,9.1,0,0,1-3.764-.816Z" transform="translate(-235.617 -24)" fill="#fdbf92"/>
        <path id="Path_112" data-name="Path 112" d="M0,0H1.892V6.347H0Z" transform="translate(40.241 20.729) rotate(-63.435)" fill="#fcb079"/>
        <path id="Path_113" data-name="Path 113" d="M296,96h3.784v3.784H296Z" transform="translate(-263.832 -87.485)" fill="#d5d5d3"/>
        <path id="Path_114" data-name="Path 114" d="M166.192,67.784H155.784v1.892H152V67.518A3.518,3.518,0,0,1,155.518,64h10.674Z" transform="translate(-136.862 -59.269)" fill="#d5d5d3"/>
        <path id="Path_115" data-name="Path 115" d="M146.838,152.515A2.838,2.838,0,0,1,144,149.677a4.688,4.688,0,0,1,.787-2.6L146.838,144l2.051,3.077a4.687,4.687,0,0,1,.787,2.6A2.838,2.838,0,0,1,146.838,152.515Z" transform="translate(-129.808 -129.808)" fill="#4db6e4"/>
        <path id="Path_116" data-name="Path 116" d="M62.79,352.488l-1.362-.545c-4.74-1.169-10.324-.151-13.775,3.383H39.138a2.838,2.838,0,1,0,0,5.677H36.3l-7.816-6.018a2.759,2.759,0,0,0-3.588,4.189l8.706,7.735a2.838,2.838,0,0,0,1.885.717H54.276l9.461-3.784,15.138.946v-12.3Z" transform="translate(-24 -312.752)" fill="#fdc8a2"/>
        <path id="Path_117" data-name="Path 117" d="M154.4,424h10.124v1.892H154.4Z" transform="translate(-138.977 -376.695)" fill="#fdb683"/>
      </g>
    </g>
    <g id="Group_225" data-name="Group 225" transform="translate(-164 194)">
      <g id="Ellipse_13" data-name="Ellipse 13" transform="translate(272 969)" fill="none" stroke="#707070" stroke-width="1">
        <circle cx="32.5" cy="32.5" r="32.5" stroke="none"/>
        <circle cx="32.5" cy="32.5" r="32" fill="none"/>
      </g>
    </g>
  </g>
</svg>
