<svg xmlns="http://www.w3.org/2000/svg" xmlns:xlink="http://www.w3.org/1999/xlink" width="65" height="65" viewBox="0 0 65 65">
  <defs>
    <clipPath id="clip-path">
      <circle id="Ellipse_31" data-name="Ellipse 31" cx="30.5" cy="30.5" r="30.5" transform="translate(1727 1038)" fill="#fff"/>
    </clipPath>
  </defs>
  <g id="Group_266" data-name="Group 266" transform="translate(-108 -1163)">
    <g id="Group_267" data-name="Group 267">
      <g id="Group_226" data-name="Group 226">
        <g id="Group_34" data-name="Group 34" transform="translate(-72 275)">
          <g id="Path_144" data-name="Path 144" transform="translate(180 888)" fill="rgba(0,219,158,0.22)">
            <path d="M 32.5 64.5 C 28.1798095703125 64.5 23.98911094665527 63.65399932861328 20.04430961608887 61.98548889160156 C 16.23382949829102 60.3737907409668 12.8115701675415 58.06639862060547 9.872579574584961 55.12741851806641 C 6.933599948883057 52.18843078613281 4.62621021270752 48.76617050170898 3.014509916305542 44.9556884765625 C 1.345999956130981 41.01089096069336 0.5 36.8201904296875 0.5 32.5 C 0.5 28.1798095703125 1.345999956130981 23.98911094665527 3.014509916305542 20.04430961608887 C 4.62621021270752 16.23382949829102 6.933599948883057 12.8115701675415 9.872579574584961 9.872579574584961 C 12.8115701675415 6.933599948883057 16.23382949829102 4.62621021270752 20.04430961608887 3.014509916305542 C 23.98911094665527 1.345999956130981 28.1798095703125 0.5 32.5 0.5 C 36.8201904296875 0.5 41.01089096069336 1.345999956130981 44.9556884765625 3.014509916305542 C 48.76617050170898 4.62621021270752 52.18843078613281 6.933599948883057 55.12741851806641 9.872579574584961 C 58.06639862060547 12.8115701675415 60.3737907409668 16.23382949829102 61.98548889160156 20.04430961608887 C 63.65399932861328 23.98911094665527 64.5 28.1798095703125 64.5 32.5 C 64.5 36.8201904296875 63.65399932861328 41.01089096069336 61.98548889160156 44.9556884765625 C 60.3737907409668 48.76617050170898 58.06639862060547 52.18843078613281 55.12741851806641 55.12741851806641 C 52.18843078613281 58.06639862060547 48.76617050170898 60.3737907409668 44.9556884765625 61.98548889160156 C 41.01089096069336 63.65399932861328 36.8201904296875 64.5 32.5 64.5 Z" stroke="none"/>
            <path d="M 32.5 1 C 28.24708938598633 1 24.12192153930664 1.832721710205078 20.23908996582031 3.475021362304688 C 16.48820877075195 5.061500549316406 13.11936950683594 7.332908630371094 10.22613906860352 10.22613906860352 C 7.332908630371094 13.11936950683594 5.061500549316406 16.48820877075195 3.475021362304688 20.23908996582031 C 1.832721710205078 24.12192153930664 1 28.24708938598633 1 32.5 C 1 36.75291061401367 1.832721710205078 40.87808227539062 3.475021362304688 44.76091003417969 C 5.061500549316406 48.51178741455078 7.332908630371094 51.88063049316406 10.22613906860352 54.77386093139648 C 13.11936950683594 57.66709136962891 16.48820877075195 59.93849945068359 20.23908996582031 61.52497863769531 C 24.12192153930664 63.16727828979492 28.24708938598633 64 32.5 64 C 36.75291061401367 64 40.87808227539062 63.16727828979492 44.76091003417969 61.52497863769531 C 48.51178741455078 59.93849945068359 51.88063049316406 57.66709136962891 54.77386093139648 54.77386093139648 C 57.66709136962891 51.88063049316406 59.93849945068359 48.51178741455078 61.52497863769531 44.76091003417969 C 63.16727828979492 40.87808227539062 64 36.75291061401367 64 32.5 C 64 28.24708938598633 63.16727828979492 24.12192153930664 61.52497863769531 20.23908996582031 C 59.93849945068359 16.48820877075195 57.66709136962891 13.11936950683594 54.77386093139648 10.22613906860352 C 51.88063049316406 7.332908630371094 48.51178741455078 5.061500549316406 44.76091003417969 3.475021362304688 C 40.87808227539062 1.832721710205078 36.75291061401367 1 32.5 1 M 32.5 0 C 50.44924926757812 0 65 14.55075073242188 65 32.5 C 65 50.44924926757812 50.44924926757812 65 32.5 65 C 14.55075073242188 65 0 50.44924926757812 0 32.5 C 0 14.55075073242188 14.55075073242188 0 32.5 0 Z" stroke="none" fill="#2cdead"/>
          </g>
        </g>
        <g id="Mask_Group_15" data-name="Mask Group 15" transform="translate(-1617 127)" clip-path="url(#clip-path)">
          <g id="Flat" transform="translate(1736.77 1045.575)">
            <path id="Path_107" data-name="Path 107" d="M272,64h8.742v3.5H272Z" transform="translate(-244.9 -59.629)" fill="#dfdfdd"/>
            <path id="Path_108" data-name="Path 108" d="M213.927,161.748a3.741,3.741,0,0,0-2.585,1.024l-2.585,2.473a2.4,2.4,0,0,0,0,3.5,2.616,2.616,0,0,0,3.614,0l-1.786,1.748a2.4,2.4,0,0,0,0,3.5,2.518,2.518,0,0,0,3.535,0l-1.707,1.748a2.4,2.4,0,0,0,0,3.5,2.668,2.668,0,0,0,3.655,0l3.655-3.5h2.741v2.473a3.732,3.732,0,0,0,3.812,3.647H231.6V160Z" transform="translate(-187.894 -145.139)" fill="#f6a368"/>
            <path id="Path_109" data-name="Path 109" d="M256,128h12.239v27.1H256Z" transform="translate(-230.648 -116.635)" fill="#4db6e4"/>
            <path id="Path_110" data-name="Path 110" d="M256,168h8.742v16.61H256Z" transform="translate(-230.648 -152.265)" fill="#85ccd5"/>
            <path id="Path_111" data-name="Path 111" d="M283.323,61.71a13.576,13.576,0,0,1-7.958-12.359l-7.126-3.887a2.939,2.939,0,0,1-1.222-3.9l.039-.079A2.939,2.939,0,0,1,271,40.176l4.364,2.182V32.742l-3.5-4.371h-5.682a2.185,2.185,0,1,1,0-4.371h7.571a3.5,3.5,0,0,1,2.656,1.221l4.2,4.9,1.748,6.994,6.119,8.742v16.61H286.8a8.4,8.4,0,0,1-3.478-.754Z" transform="translate(-237.774 -24)" fill="#fdbf92"/>
            <path id="Path_112" data-name="Path 112" d="M0,0H1.748V5.864H0Z" transform="translate(37.182 19.154) rotate(-63.435)" fill="#fcb079"/>
            <path id="Path_113" data-name="Path 113" d="M296,96h3.5v3.5H296Z" transform="translate(-266.278 -88.132)" fill="#d5d5d3"/>
            <path id="Path_114" data-name="Path 114" d="M165.113,67.5H155.5v1.748H152V67.25A3.25,3.25,0,0,1,155.25,64h9.863Z" transform="translate(-138.013 -59.629)" fill="#d5d5d3"/>
            <path id="Path_115" data-name="Path 115" d="M146.623,151.868A2.623,2.623,0,0,1,144,149.245a4.331,4.331,0,0,1,.727-2.4l1.9-2.843,1.9,2.843a4.331,4.331,0,0,1,.727,2.4A2.623,2.623,0,0,1,146.623,151.868Z" transform="translate(-130.887 -130.887)" fill="#4db6e4"/>
            <path id="Path_116" data-name="Path 116" d="M59.842,352.411l-1.259-.5c-4.38-1.08-9.54-.139-12.728,3.126H37.987a2.623,2.623,0,1,0,0,5.245H35.365l-7.222-5.561a2.55,2.55,0,0,0-3.316,3.871l8.044,7.147a2.623,2.623,0,0,0,1.742.662H51.974l8.742-3.5,13.987.874V352.411Z" transform="translate(-24 -315.695)" fill="#fdc8a2"/>
            <path id="Path_117" data-name="Path 117" d="M154.4,424h9.354v1.748H154.4Z" transform="translate(-140.149 -380.291)" fill="#fdb683"/>
          </g>
        </g>
        <g id="Group_225" data-name="Group 225" transform="translate(-164 194)">
          <g id="Ellipse_13" data-name="Ellipse 13" transform="translate(272 969)" fill="none" stroke="#707070" stroke-width="1">
            <circle cx="32.5" cy="32.5" r="32.5" stroke="none"/>
            <circle cx="32.5" cy="32.5" r="32" fill="none"/>
          </g>
        </g>
      </g>
    </g>
  </g>
</svg>
