<svg xmlns="http://www.w3.org/2000/svg" xmlns:xlink="http://www.w3.org/1999/xlink" width="109" height="130" viewBox="0 0 109 130">
  <defs>
    <filter id="Rectangle_92" x="0" y="0" width="109" height="130" filterUnits="userSpaceOnUse">
      <feOffset dy="3" input="SourceAlpha"/>
      <feGaussianBlur stdDeviation="3" result="blur"/>
      <feFlood flood-opacity="0.161"/>
      <feComposite operator="in" in2="blur"/>
      <feComposite in="SourceGraphic"/>
    </filter>
  </defs>
  <g id="Group_380" data-name="Group 380" transform="translate(-94 -1614)">
    <g id="Group_419" data-name="Group 419">
      <g transform="matrix(1, 0, 0, 1, 94, 1614)" filter="url(#Rectangle_92)">
        <rect id="Rectangle_92-2" data-name="Rectangle 92" width="91" height="112" rx="10" transform="translate(9 6)" fill="#95d6a4"/>
      </g>
      <text id="Sanitize" transform="translate(126 1714)" fill="#fff" font-size="12" font-family="Poppins-Regular, Poppins"><tspan x="0" y="0">Sanitize</tspan></text>
      <g id="Group_226" data-name="Group 226" transform="translate(2.43 470)">
        <g id="Group_355" data-name="Group 355" transform="translate(-1620 124)">
          <g id="Flat" transform="translate(1737.574 1045.691)">
            <path id="Path_107" data-name="Path 107" d="M272,64h9.461v3.784H272Z" transform="translate(-242.671 -59.269)" fill="#dfdfdd"/>
            <path id="Path_108" data-name="Path 108" d="M214.414,161.892a4.048,4.048,0,0,0-2.8,1.108l-2.8,2.676a2.595,2.595,0,0,0,0,3.784,2.831,2.831,0,0,0,3.911,0l-1.933,1.892a2.595,2.595,0,0,0,0,3.784,2.726,2.726,0,0,0,3.825,0l-1.847,1.892a2.595,2.595,0,0,0,0,3.784,2.888,2.888,0,0,0,3.956,0l3.956-3.784h2.967v2.676a4.039,4.039,0,0,0,4.126,3.947h5.764V160Z" transform="translate(-186.24 -143.916)" fill="#f6a368"/>
            <path id="Path_109" data-name="Path 109" d="M256,128h13.245v29.329H256Z" transform="translate(-228.563 -115.701)" fill="#4db6e4"/>
            <path id="Path_110" data-name="Path 110" d="M256,168h9.461v17.976H256Z" transform="translate(-228.563 -150.97)" fill="#85ccd5"/>
            <path id="Path_111" data-name="Path 111" d="M284.912,64.813A14.693,14.693,0,0,1,276.3,51.437l-7.712-4.207a3.181,3.181,0,0,1-1.322-4.216l.043-.085a3.181,3.181,0,0,1,4.268-1.423l4.724,2.362V33.461l-3.784-4.731h-6.15a2.365,2.365,0,1,1,0-4.731h8.194a3.784,3.784,0,0,1,2.874,1.322l4.543,5.3,1.892,7.569,6.623,9.461V65.629h-1.814a9.1,9.1,0,0,1-3.764-.816Z" transform="translate(-235.617 -24)" fill="#fdbf92"/>
            <path id="Path_112" data-name="Path 112" d="M0,0H1.892V6.347H0Z" transform="translate(40.241 20.729) rotate(-63.435)" fill="#fcb079"/>
            <path id="Path_113" data-name="Path 113" d="M296,96h3.784v3.784H296Z" transform="translate(-263.832 -87.485)" fill="#d5d5d3"/>
            <path id="Path_114" data-name="Path 114" d="M166.192,67.784H155.784v1.892H152V67.518A3.518,3.518,0,0,1,155.518,64h10.674Z" transform="translate(-136.862 -59.269)" fill="#d5d5d3"/>
            <path id="Path_115" data-name="Path 115" d="M146.838,152.515A2.838,2.838,0,0,1,144,149.677a4.688,4.688,0,0,1,.787-2.6L146.838,144l2.051,3.077a4.687,4.687,0,0,1,.787,2.6A2.838,2.838,0,0,1,146.838,152.515Z" transform="translate(-129.808 -129.808)" fill="#4db6e4"/>
            <path id="Path_116" data-name="Path 116" d="M62.79,352.488l-1.362-.545c-4.74-1.169-10.324-.151-13.775,3.383H39.138a2.838,2.838,0,1,0,0,5.677H36.3l-7.816-6.018a2.759,2.759,0,0,0-3.588,4.189l8.706,7.735a2.838,2.838,0,0,0,1.885.717H54.276l9.461-3.784,15.138.946v-12.3Z" transform="translate(-24 -312.752)" fill="#fdc8a2"/>
            <path id="Path_117" data-name="Path 117" d="M154.4,424h10.124v1.892H154.4Z" transform="translate(-138.977 -376.695)" fill="#fdb683"/>
          </g>
        </g>
      </g>
    </g>
  </g>
</svg>
