<svg xmlns="http://www.w3.org/2000/svg" width="91" height="112" viewBox="0 0 91 112">
  <g id="Group_379" data-name="Group 379" transform="translate(-244 -1503)">
    <g id="Group_418" data-name="Group 418">
      <rect id="Rectangle_91" data-name="Rectangle 91" width="91" height="112" rx="9" transform="translate(244 1503)" fill="#95d6a4"/>
      <text id="Social_distancing" data-name="Social 
distancing" transform="translate(290 1593)" fill="#fff" font-size="12" font-family="Poppins-Regular, Poppins"><tspan x="-19.614" y="0">Social </tspan><tspan x="-31.758" y="12">distancing</tspan></text>
      <g id="Group_222" data-name="Group 222" transform="translate(-0.279 450.689)">
        <g id="Group_353" data-name="Group 353" transform="translate(249.84 1078.164)">
          <g id="Group_189" data-name="Group 189" transform="translate(0 0)">
            <g id="Group_183" data-name="Group 183" transform="translate(0 0)">
              <g id="face-mask" transform="translate(0 0)">
                <g id="Group_172" data-name="Group 172">
                  <g id="Group_171" data-name="Group 171">
                    <path id="Path_602" data-name="Path 602" d="M102.046,13.744A14.4,14.4,0,0,1,99.634,6.12a.411.411,0,0,1,.468-.414,5.742,5.742,0,0,0,2.175-.083c2.43-.655,4.82-5.476,9.032-5.616s5.029,1.825,5.029,1.825a6.4,6.4,0,0,1,3.863-.608c3.463.468,6.505,5.744,3.414,12.992Z" transform="translate(-99.242 0)" fill="#e5907b"/>
                    <g id="Group_167" data-name="Group 167" transform="translate(1.52 13.425)">
                      <path id="Path_603" data-name="Path 603" d="M114.763,164.541a2.392,2.392,0,0,0,2.388,2.484s1.206-1.072,1.207-1.052c0-.007,0-.013,0-.02l.742-1.532-.742-1.312a2.508,2.508,0,0,0-3.595,1.433Z" transform="translate(-114.643 -162.799)" fill="#ebbaa1"/>
                      <path id="Path_604" data-name="Path 604" d="M115.821,185.661a2.509,2.509,0,0,1-2.388-1.742,2.507,2.507,0,0,0,3.729,2.884l.648-.664-.782-.789A2.491,2.491,0,0,1,115.821,185.661Z" transform="translate(-113.313 -182.177)" fill="#e8a990"/>
                      <path id="Path_605" data-name="Path 605" d="M348.986,164.541a2.392,2.392,0,0,1-2.388,2.484s-1.206-1.072-1.207-1.052c0-.007,0-.013,0-.02l-.742-1.532.742-1.312a2.508,2.508,0,0,1,3.595,1.433Z" transform="translate(-325.572 -162.799)" fill="#ebbaa1"/>
                      <path id="Path_606" data-name="Path 606" d="M346.145,185.661a2.508,2.508,0,0,0,2.388-1.742A2.507,2.507,0,0,1,344.8,186.8l-.648-.664.782-.789A2.491,2.491,0,0,0,346.145,185.661Z" transform="translate(-325.12 -182.177)" fill="#e8a990"/>
                    </g>
                    <path id="Path_607" data-name="Path 607" d="M166.405,89.447c4.447,0,8.052-3.585,8.052-8.794V78.34a2.529,2.529,0,0,0-.8-1.861,30.718,30.718,0,0,1-3.85-4.789.426.426,0,0,0-.669-.047,18.209,18.209,0,0,1-9.751,5.323,1.275,1.275,0,0,0-1.03,1.253v2.433C158.353,86,161.958,89.447,166.405,89.447Z" transform="translate(-153.119 -65.607)" fill="#fdd4bb"/>
                    <path id="Path_608" data-name="Path 608" d="M111.941,287.322a8.062,8.062,0,0,1-7.543,0,11.986,11.986,0,0,0-9.515,11.727v2.916l.742,2.352,12.544.742,12.544-.742.742-2.352v-2.916A11.986,11.986,0,0,0,111.941,287.322Z" transform="translate(-94.884 -263.628)" fill="#b3e59f"/>
                    <path id="Path_609" data-name="Path 609" d="M169.554,494.951H182.64l.638-.766-.638-.767H169.554l-.638.767Z" transform="translate(-162.811 -452.729)" fill="#95d6a4"/>
                    <path id="Path_610" data-name="Path 610" d="M209.818,287.16c-.008.1-.013.2-.013.3a3.809,3.809,0,1,0,7.619,0c0-.1,0-.2-.013-.3Z" transform="translate(-200.328 -263.48)" fill="#ebbaa1"/>
                    <path id="Path_611" data-name="Path 611" d="M349.189,467.247l-3.052.742-3.053-.742V464.9h6.1Z" transform="translate(-322.617 -426.558)" fill="#fdd4bb"/>
                    <path id="Path_612" data-name="Path 612" d="M94.884,467.247l3.052.742,3.052-.742V464.9h-6.1Z" transform="translate(-94.884 -426.558)" fill="#fdd4bb"/>
                    <path id="Path_613" data-name="Path 613" d="M343.722,494.951h5.055a.413.413,0,0,0,.412-.413v-1.12h-5.467l-.638.767Z" transform="translate(-322.617 -452.729)" fill="#f7c4a8"/>
                    <path id="Path_614" data-name="Path 614" d="M95.3,494.952h5.054l.638-.766-.638-.766H94.884v1.12A.413.413,0,0,0,95.3,494.952Z" transform="translate(-94.884 -452.731)" fill="#f7c4a8"/>
                    <path id="Path_615" data-name="Path 615" d="M155,165.284a.637.637,0,0,1-.518-.265l-3.75-5.2a.638.638,0,1,1,1.036-.747l3.75,5.2a.638.638,0,0,1-.517,1.012Z" transform="translate(-146.015 -145.708)" fill="#adf0ff"/>
                    <path id="Path_616" data-name="Path 616" d="M301.063,165.284a.638.638,0,0,1-.518-1.011l3.75-5.2a.638.638,0,0,1,1.036.747l-3.75,5.2A.637.637,0,0,1,301.063,165.284Z" transform="translate(-283.475 -145.709)" fill="#adf0ff"/>
                    <g id="Group_168" data-name="Group 168" transform="translate(5.234 15.045)">
                      <path id="Path_617" data-name="Path 617" d="M159.976,187.3a8.016,8.016,0,0,1-1.624-4.85v1.532a8.012,8.012,0,0,0,1.033,3.948l.684.156Z" transform="translate(-158.352 -182.452)" fill="#f7c4a8"/>
                      <path id="Path_618" data-name="Path 618" d="M333.149,187.3l-.072.786.663-.156a8.015,8.015,0,0,0,1.033-3.948V182.45A8.017,8.017,0,0,1,333.149,187.3Z" transform="translate(-318.668 -182.45)" fill="#f7c4a8"/>
                    </g>
                    <path id="Path_619" data-name="Path 619" d="M178.049,205.366c.886,2.244,3.8,3.945,6.428,3.945a7.629,7.629,0,0,0,6.428-3.945c-1.207-1.212-3.633-3.226-6.428-3.226S179.256,204.155,178.049,205.366Z" transform="translate(-171.191 -185.471)" fill="#ebf2f8"/>
                    <path id="Path_620" data-name="Path 620" d="M177.9,244.467a8.039,8.039,0,0,1-6.428-3.2c-.253.254-.453.473-.591.631a8.054,8.054,0,0,0,14.038,0c-.138-.158-.338-.377-.591-.631A8.039,8.039,0,0,1,177.9,244.467Z" transform="translate(-164.615 -221.369)" fill="#d6e3ed"/>
                    <g id="Group_170" data-name="Group 170" transform="translate(5.466 34.048)">
                      <path id="Path_621" data-name="Path 621" d="M162.451,419.526v-6a.638.638,0,1,0-1.277,0v6l.638.766Z" transform="translate(-161.174 -412.885)" fill="#95d6a4"/>
                      <path id="Path_622" data-name="Path 622" d="M336.619,419.526v-6a.638.638,0,1,0-1.277,0v6l.639.766Z" transform="translate(-320.979 -412.885)" fill="#95d6a4"/>
                      <g id="Group_169" data-name="Group 169" transform="translate(0 6.641)">
                        <path id="Path_623" data-name="Path 623" d="M161.174,493.418h1.277v1.533h-1.277Z" transform="translate(-161.174 -493.418)" fill="#95d6a4"/>
                        <path id="Path_624" data-name="Path 624" d="M335.342,493.418h1.277v1.533h-1.277Z" transform="translate(-320.979 -493.418)" fill="#95d6a4"/>
                      </g>
                    </g>
                  </g>
                </g>
                <g id="Group_173" data-name="Group 173" transform="translate(8.984 13.427)">
                  <path id="Path_625" data-name="Path 625" d="M204.472,165.239a.64.64,0,0,0,.64-.64v-1.141a.64.64,0,0,0-1.279,0V164.6A.64.64,0,0,0,204.472,165.239Z" transform="translate(-203.832 -162.819)" fill="#565e75"/>
                  <path id="Path_626" data-name="Path 626" d="M293.294,165.239a.64.64,0,0,0,.64-.64v-1.141a.64.64,0,0,0-1.28,0V164.6A.64.64,0,0,0,293.294,165.239Z" transform="translate(-285.329 -162.819)" fill="#565e75"/>
                </g>
              </g>
              <g id="Group_174" data-name="Group 174" transform="translate(4.183 10.234)">
                <g id="facemask-coronavirus-faceshield-protect-covid19" transform="translate(0 0)">
                  <path id="Path_35" data-name="Path 35" d="M97.719,105.06H83.506a1.834,1.834,0,0,1-1.427-.721,2.448,2.448,0,0,1-.506-1.7l.795-10.976H98.857l.795,10.976a2.448,2.448,0,0,1-.506,1.7A1.834,1.834,0,0,1,97.719,105.06Z" transform="translate(-81.566 -89.972)" fill="rgba(255,255,255,0.27)"/>
                  <path id="Path_627" data-name="Path 627" d="M97.537,68.07a.907.907,0,0,1-.952.848H80.4a.853.853,0,1,1,0-1.695H96.585A.907.907,0,0,1,97.537,68.07Z" transform="translate(-79.444 -67.222)" fill="#adf0ff"/>
                </g>
              </g>
            </g>
            <g id="Group_184" data-name="Group 184" transform="translate(54.304 0)">
              <g id="face-mask-2" data-name="face-mask" transform="translate(0 0)">
                <g id="Group_172-2" data-name="Group 172" transform="translate(0)">
                  <g id="Group_171-2" data-name="Group 171">
                    <path id="Path_602-2" data-name="Path 602" d="M102.046,13.744A14.4,14.4,0,0,1,99.634,6.12a.411.411,0,0,1,.468-.414,5.742,5.742,0,0,0,2.175-.083c2.43-.655,4.82-5.476,9.032-5.616s5.029,1.825,5.029,1.825a6.4,6.4,0,0,1,3.863-.608c3.463.468,6.505,5.744,3.414,12.992Z" transform="translate(-99.242 0)" fill="#e5907b"/>
                    <g id="Group_167-2" data-name="Group 167" transform="translate(1.52 13.425)">
                      <path id="Path_603-2" data-name="Path 603" d="M114.763,164.541a2.392,2.392,0,0,0,2.388,2.484s1.206-1.072,1.207-1.052c0-.007,0-.013,0-.02l.742-1.532-.742-1.312a2.508,2.508,0,0,0-3.595,1.433Z" transform="translate(-114.643 -162.799)" fill="#ebbaa1"/>
                      <path id="Path_604-2" data-name="Path 604" d="M115.821,185.661a2.509,2.509,0,0,1-2.388-1.742,2.507,2.507,0,0,0,3.729,2.884l.648-.664-.782-.789A2.491,2.491,0,0,1,115.821,185.661Z" transform="translate(-113.313 -182.177)" fill="#e8a990"/>
                      <path id="Path_605-2" data-name="Path 605" d="M348.986,164.541a2.392,2.392,0,0,1-2.388,2.484s-1.206-1.072-1.207-1.052c0-.007,0-.013,0-.02l-.742-1.532.742-1.312a2.508,2.508,0,0,1,3.595,1.433Z" transform="translate(-325.572 -162.799)" fill="#ebbaa1"/>
                      <path id="Path_606-2" data-name="Path 606" d="M346.145,185.661a2.508,2.508,0,0,0,2.388-1.742A2.507,2.507,0,0,1,344.8,186.8l-.648-.664.782-.789A2.491,2.491,0,0,0,346.145,185.661Z" transform="translate(-325.12 -182.177)" fill="#e8a990"/>
                    </g>
                    <path id="Path_607-2" data-name="Path 607" d="M166.405,89.447c4.447,0,8.052-3.585,8.052-8.794V78.34a2.529,2.529,0,0,0-.8-1.861,30.718,30.718,0,0,1-3.85-4.789.426.426,0,0,0-.669-.047,18.209,18.209,0,0,1-9.751,5.323,1.275,1.275,0,0,0-1.03,1.253v2.433C158.353,86,161.958,89.447,166.405,89.447Z" transform="translate(-153.119 -65.607)" fill="#fdd4bb"/>
                    <path id="Path_608-2" data-name="Path 608" d="M111.941,287.322a8.062,8.062,0,0,1-7.543,0,11.986,11.986,0,0,0-9.515,11.727v2.916l.742,2.352,12.544.742,12.544-.742.742-2.352v-2.916A11.986,11.986,0,0,0,111.941,287.322Z" transform="translate(-94.884 -263.628)" fill="#b3e59f"/>
                    <path id="Path_609-2" data-name="Path 609" d="M169.554,494.951H182.64l.638-.766-.638-.767H169.554l-.638.767Z" transform="translate(-162.811 -452.729)" fill="#95d6a4"/>
                    <path id="Path_610-2" data-name="Path 610" d="M209.818,287.16c-.008.1-.013.2-.013.3a3.809,3.809,0,1,0,7.619,0c0-.1,0-.2-.013-.3Z" transform="translate(-200.328 -263.48)" fill="#ebbaa1"/>
                    <path id="Path_611-2" data-name="Path 611" d="M349.189,467.247l-3.052.742-3.053-.742V464.9h6.1Z" transform="translate(-322.617 -426.558)" fill="#fdd4bb"/>
                    <path id="Path_612-2" data-name="Path 612" d="M94.884,467.247l3.052.742,3.052-.742V464.9h-6.1Z" transform="translate(-94.884 -426.558)" fill="#fdd4bb"/>
                    <path id="Path_613-2" data-name="Path 613" d="M343.722,494.951h5.055a.413.413,0,0,0,.412-.413v-1.12h-5.467l-.638.767Z" transform="translate(-322.617 -452.729)" fill="#f7c4a8"/>
                    <path id="Path_614-2" data-name="Path 614" d="M95.3,494.952h5.054l.638-.766-.638-.766H94.884v1.12A.413.413,0,0,0,95.3,494.952Z" transform="translate(-94.884 -452.731)" fill="#f7c4a8"/>
                    <path id="Path_615-2" data-name="Path 615" d="M155,165.284a.637.637,0,0,1-.518-.265l-3.75-5.2a.638.638,0,1,1,1.036-.747l3.75,5.2a.638.638,0,0,1-.517,1.012Z" transform="translate(-146.015 -145.708)" fill="#adf0ff"/>
                    <path id="Path_616-2" data-name="Path 616" d="M301.063,165.284a.638.638,0,0,1-.518-1.011l3.75-5.2a.638.638,0,0,1,1.036.747l-3.75,5.2A.637.637,0,0,1,301.063,165.284Z" transform="translate(-283.475 -145.709)" fill="#adf0ff"/>
                    <g id="Group_168-2" data-name="Group 168" transform="translate(5.234 15.045)">
                      <path id="Path_617-2" data-name="Path 617" d="M159.976,187.3a8.016,8.016,0,0,1-1.624-4.85v1.532a8.012,8.012,0,0,0,1.033,3.948l.684.156Z" transform="translate(-158.352 -182.452)" fill="#f7c4a8"/>
                      <path id="Path_618-2" data-name="Path 618" d="M333.149,187.3l-.072.786.663-.156a8.015,8.015,0,0,0,1.033-3.948V182.45A8.017,8.017,0,0,1,333.149,187.3Z" transform="translate(-318.668 -182.45)" fill="#f7c4a8"/>
                    </g>
                    <path id="Path_619-2" data-name="Path 619" d="M178.049,205.366c.886,2.244,3.8,3.945,6.428,3.945a7.629,7.629,0,0,0,6.428-3.945c-1.207-1.212-3.633-3.226-6.428-3.226S179.256,204.155,178.049,205.366Z" transform="translate(-171.191 -185.471)" fill="#ebf2f8"/>
                    <path id="Path_620-2" data-name="Path 620" d="M177.9,244.467a8.039,8.039,0,0,1-6.428-3.2c-.253.254-.453.473-.591.631a8.054,8.054,0,0,0,14.038,0c-.138-.158-.338-.377-.591-.631A8.039,8.039,0,0,1,177.9,244.467Z" transform="translate(-164.615 -221.369)" fill="#d6e3ed"/>
                    <g id="Group_170-2" data-name="Group 170" transform="translate(5.466 34.048)">
                      <path id="Path_621-2" data-name="Path 621" d="M162.451,419.526v-6a.638.638,0,1,0-1.277,0v6l.638.766Z" transform="translate(-161.174 -412.885)" fill="#95d6a4"/>
                      <path id="Path_622-2" data-name="Path 622" d="M336.619,419.526v-6a.638.638,0,1,0-1.277,0v6l.639.766Z" transform="translate(-320.979 -412.885)" fill="#95d6a4"/>
                      <g id="Group_169-2" data-name="Group 169" transform="translate(0 6.641)">
                        <path id="Path_623-2" data-name="Path 623" d="M161.174,493.418h1.277v1.533h-1.277Z" transform="translate(-161.174 -493.418)" fill="#95d6a4"/>
                        <path id="Path_624-2" data-name="Path 624" d="M335.342,493.418h1.277v1.533h-1.277Z" transform="translate(-320.979 -493.418)" fill="#95d6a4"/>
                      </g>
                    </g>
                  </g>
                </g>
                <g id="Group_173-2" data-name="Group 173" transform="translate(8.984 13.427)">
                  <path id="Path_625-2" data-name="Path 625" d="M204.472,165.239a.64.64,0,0,0,.64-.64v-1.141a.64.64,0,0,0-1.279,0V164.6A.64.64,0,0,0,204.472,165.239Z" transform="translate(-203.832 -162.819)" fill="#565e75"/>
                  <path id="Path_626-2" data-name="Path 626" d="M293.294,165.239a.64.64,0,0,0,.64-.64v-1.141a.64.64,0,0,0-1.28,0V164.6A.64.64,0,0,0,293.294,165.239Z" transform="translate(-285.329 -162.819)" fill="#565e75"/>
                </g>
              </g>
              <g id="Group_174-2" data-name="Group 174" transform="translate(4.183 10.234)">
                <g id="facemask-coronavirus-faceshield-protect-covid19-2" data-name="facemask-coronavirus-faceshield-protect-covid19" transform="translate(0 0)">
                  <path id="Path_35-2" data-name="Path 35" d="M97.719,105.06H83.506a1.834,1.834,0,0,1-1.427-.721,2.448,2.448,0,0,1-.506-1.7l.795-10.976H98.857l.795,10.976a2.448,2.448,0,0,1-.506,1.7A1.834,1.834,0,0,1,97.719,105.06Z" transform="translate(-81.566 -89.972)" fill="rgba(255,255,255,0.27)"/>
                  <path id="Path_627-2" data-name="Path 627" d="M97.537,68.07a.907.907,0,0,1-.952.848H80.4a.853.853,0,1,1,0-1.695H96.585A.907.907,0,0,1,97.537,68.07Z" transform="translate(-79.444 -67.222)" fill="#adf0ff"/>
                </g>
              </g>
            </g>
            <g id="Group_188" data-name="Group 188" transform="translate(31.502 19.695)">
              <g id="Group_35" data-name="Group 35" transform="translate(0)">
                <path id="Path_126" data-name="Path 126" d="M39.312,40.3a.948.948,0,0,0-1.383,0,1.054,1.054,0,0,0,0,1.445l.287.3H25.338l.286-.3a1.054,1.054,0,0,0,0-1.444.948.948,0,0,0-1.383,0l-1.955,2.043a1.054,1.054,0,0,0,0,1.444l1.955,2.043a.948.948,0,0,0,1.383,0,1.054,1.054,0,0,0,0-1.445l-.287-.3H38.216l-.286.3a1.054,1.054,0,0,0,0,1.445.948.948,0,0,0,1.383,0l1.955-2.043a1.054,1.054,0,0,0,0-1.444Z" transform="translate(-22 -40)" fill="#4e901e"/>
              </g>
            </g>
          </g>
        </g>
      </g>
    </g>
  </g>
</svg>
