<svg xmlns="http://www.w3.org/2000/svg" width="91" height="112" viewBox="0 0 91 112">
  <g id="Group_381" data-name="Group 381" transform="translate(-203 -1620)">
    <g id="Group_420" data-name="Group 420">
      <rect id="Rectangle_93" data-name="Rectangle 93" width="91" height="112" rx="10" transform="translate(203 1620)" fill="#95d6a4"/>
      <text id="Wash_hands" data-name="Wash hands" transform="translate(213 1714)" fill="#fff" font-size="12" font-family="Poppins-Regular, Poppins"><tspan x="0" y="0">Wash hands</tspan></text>
      <g id="Group_344" data-name="Group 344" transform="translate(3 -315)">
        <g id="Group_328" data-name="Group 328" transform="translate(-120 11)">
          <g id="Group_224" data-name="Group 224" transform="translate(238 779)">
            <g id="Group_354" data-name="Group 354" transform="translate(-1634 18)">
              <g id="Flat" transform="translate(1720.715 1124.961)">
                <path id="Path_94" data-name="Path 94" d="M195.286,97.048l-.512-.41a38.947,38.947,0,0,0-8.718-5.268l-7.971-3.161a2.478,2.478,0,0,0-2.415,4.3l6.95,4.539h-19a2.714,2.714,0,0,0,0,5.429h-.9a2.714,2.714,0,0,0,0,5.429h1.81a2.714,2.714,0,1,0,0,5.429h2.714a2.714,2.714,0,0,0,0,5.429h16.55c3.991,0,7.928-1.834,11.5-3.619H198v-18.1Z" transform="translate(-127.714 -56.762)" fill="#fdb683"/>
                <g id="Group_26" data-name="Group 26" transform="translate(35.905 40.286)">
                  <path id="Path_95" data-name="Path 95" d="M192,208h13.571v1.81H192Z" transform="translate(-192 -203.476)" fill="#f6a368"/>
                  <path id="Path_96" data-name="Path 96" d="M192,256h13.571v1.81H192Z" transform="translate(-192 -246.048)" fill="#f6a368"/>
                  <path id="Path_97" data-name="Path 97" d="M216,304h10.857v1.81H216Z" transform="translate(-213.286 -288.619)" fill="#f6a368"/>
                  <path id="Path_98" data-name="Path 98" d="M363.518,175.243a8.284,8.284,0,0,1-7.967-3.32,11.748,11.748,0,0,1-1.87-3.922h-1.854l.037.177a13.264,13.264,0,0,0,2.195,4.77,9.931,9.931,0,0,0,8.308,4.164q.64,0,1.331-.068Z" transform="translate(-333.752 -168)" fill="#f6a368"/>
                </g>
                <ellipse id="Ellipse_5" data-name="Ellipse 5" cx="2.378" cy="2.972" rx="2.378" ry="2.972" transform="translate(38.591 32.323)" fill="#4db6e4"/>
                <path id="Path_99" data-name="Path 99" d="M66.6,147.428,57.734,104H50.5l-8.863,43.428Z" transform="translate(-22.734 -70.952)" fill="#4db6e4"/>
                <path id="Path_100" data-name="Path 100" d="M25.952,24H16v6.333h9.048a2.714,2.714,0,0,1,2.714,2.714H35A9.048,9.048,0,0,0,25.952,24Z" transform="translate(0 0)" fill="#dfdfdd"/>
                <path id="Path_101" data-name="Path 101" d="M131.286,225.048l-.512-.41a38.942,38.942,0,0,0-8.718-5.269l-7.971-3.161a2.478,2.478,0,0,0-2.415,4.3l6.95,4.539h-19a2.714,2.714,0,1,0,0,5.429h-.9a2.714,2.714,0,0,0,0,5.429h1.81a2.714,2.714,0,0,0,0,5.429h2.714a2.714,2.714,0,1,0,0,5.429h16.55c3.991,0,8.833-1.834,12.4-3.619h9.048v-18.1Z" transform="translate(-70.952 -170.286)" fill="#fdc8a2"/>
                <g id="Group_27" data-name="Group 27" transform="translate(27.762 59.286)">
                  <path id="Path_102" data-name="Path 102" d="M120,336h13.571v1.81H120Z" transform="translate(-120 -336)" fill="#fcb079"/>
                  <path id="Path_103" data-name="Path 103" d="M120,384h13.571v1.81H120Z" transform="translate(-120 -378.572)" fill="#fcb079"/>
                  <path id="Path_104" data-name="Path 104" d="M144,432h10.857v1.81H144Z" transform="translate(-141.286 -421.143)" fill="#fcb079"/>
                </g>
                <path id="Path_105" data-name="Path 105" d="M0,0H12.233V1.809H0Z" transform="translate(28.767 49.618) rotate(-86.846)" fill="#3ba5d3"/>
                <path id="Path_106" data-name="Path 106" d="M0,0H1.81V9.871H0Z" transform="translate(32.402 42.289) rotate(-4.588)" fill="#3ba5d3"/>
                <circle id="Ellipse_6" data-name="Ellipse 6" cx="2.378" cy="2.378" r="2.378" transform="translate(17.189 57.291)" fill="#4db6e4"/>
                <circle id="Ellipse_7" data-name="Ellipse 7" cx="2.378" cy="2.378" r="2.378" transform="translate(48.102 63.236)" fill="#4db6e4"/>
              </g>
            </g>
          </g>
        </g>
      </g>
    </g>
  </g>
</svg>
