<svg xmlns="http://www.w3.org/2000/svg" xmlns:xlink="http://www.w3.org/1999/xlink" width="65" height="65" viewBox="0 0 65 65">
  <defs>
    <clipPath id="clip-path">
      <circle id="Ellipse_32" data-name="Ellipse 32" cx="32.5" cy="32.5" r="32.5" transform="translate(1727 1144)" fill="#fff" stroke="#707070" stroke-width="1"/>
    </clipPath>
  </defs>
  <g id="Group_224" data-name="Group 224" transform="translate(-206 -1163)">
    <g id="Group_33" data-name="Group 33" transform="translate(101 276)">
      <g id="Path_145" data-name="Path 145" transform="translate(105 887)" fill="#beefe3">
        <path d="M 32.5 64.5 C 28.1798095703125 64.5 23.98911094665527 63.65399932861328 20.04430961608887 61.98548889160156 C 16.23382949829102 60.3737907409668 12.8115701675415 58.06639862060547 9.872579574584961 55.12741851806641 C 6.933599948883057 52.18843078613281 4.62621021270752 48.76617050170898 3.014509916305542 44.9556884765625 C 1.345999956130981 41.01089096069336 0.5 36.8201904296875 0.5 32.5 C 0.5 28.1798095703125 1.345999956130981 23.98911094665527 3.014509916305542 20.04430961608887 C 4.62621021270752 16.23382949829102 6.933599948883057 12.8115701675415 9.872579574584961 9.872579574584961 C 12.8115701675415 6.933599948883057 16.23382949829102 4.62621021270752 20.04430961608887 3.014509916305542 C 23.98911094665527 1.345999956130981 28.1798095703125 0.5 32.5 0.5 C 36.8201904296875 0.5 41.01089096069336 1.345999956130981 44.9556884765625 3.014509916305542 C 48.76617050170898 4.62621021270752 52.18843078613281 6.933599948883057 55.12741851806641 9.872579574584961 C 58.06639862060547 12.8115701675415 60.3737907409668 16.23382949829102 61.98548889160156 20.04430961608887 C 63.65399932861328 23.98911094665527 64.5 28.1798095703125 64.5 32.5 C 64.5 36.8201904296875 63.65399932861328 41.01089096069336 61.98548889160156 44.9556884765625 C 60.3737907409668 48.76617050170898 58.06639862060547 52.18843078613281 55.12741851806641 55.12741851806641 C 52.18843078613281 58.06639862060547 48.76617050170898 60.3737907409668 44.9556884765625 61.98548889160156 C 41.01089096069336 63.65399932861328 36.8201904296875 64.5 32.5 64.5 Z" stroke="none"/>
        <path d="M 32.5 1 C 28.24708938598633 1 24.12192153930664 1.832721710205078 20.23908996582031 3.475021362304688 C 16.48820877075195 5.061500549316406 13.11936950683594 7.332908630371094 10.22613906860352 10.22613906860352 C 7.332908630371094 13.11936950683594 5.061500549316406 16.48820877075195 3.475021362304688 20.23908996582031 C 1.832721710205078 24.12192153930664 1 28.24708938598633 1 32.5 C 1 36.75291061401367 1.832721710205078 40.87808227539062 3.475021362304688 44.76091003417969 C 5.061500549316406 48.51178741455078 7.332908630371094 51.88063049316406 10.22613906860352 54.77386093139648 C 13.11936950683594 57.66709136962891 16.48820877075195 59.93849945068359 20.23908996582031 61.52497863769531 C 24.12192153930664 63.16727828979492 28.24708938598633 64 32.5 64 C 36.75291061401367 64 40.87808227539062 63.16727828979492 44.76091003417969 61.52497863769531 C 48.51178741455078 59.93849945068359 51.88063049316406 57.66709136962891 54.77386093139648 54.77386093139648 C 57.66709136962891 51.88063049316406 59.93849945068359 48.51178741455078 61.52497863769531 44.76091003417969 C 63.16727828979492 40.87808227539062 64 36.75291061401367 64 32.5 C 64 28.24708938598633 63.16727828979492 24.12192153930664 61.52497863769531 20.23908996582031 C 59.93849945068359 16.48820877075195 57.66709136962891 13.11936950683594 54.77386093139648 10.22613906860352 C 51.88063049316406 7.332908630371094 48.51178741455078 5.061500549316406 44.76091003417969 3.475021362304688 C 40.87808227539062 1.832721710205078 36.75291061401367 1 32.5 1 M 32.5 0 C 50.44924926757812 0 65 14.55075073242188 65 32.5 C 65 50.44924926757812 50.44924926757812 65 32.5 65 C 14.55075073242188 65 0 50.44924926757812 0 32.5 C 0 14.55075073242188 14.55075073242188 0 32.5 0 Z" stroke="none" fill="#1edda8"/>
      </g>
    </g>
    <g id="Mask_Group_16" data-name="Mask Group 16" transform="translate(-1521 19)" clip-path="url(#clip-path)">
      <g id="Flat" transform="translate(1720.715 1124.961)">
        <path id="Path_94" data-name="Path 94" d="M195.286,97.048l-.512-.41a38.947,38.947,0,0,0-8.718-5.268l-7.971-3.161a2.478,2.478,0,0,0-2.415,4.3l6.95,4.539h-19a2.714,2.714,0,0,0,0,5.429h-.9a2.714,2.714,0,0,0,0,5.429h1.81a2.714,2.714,0,1,0,0,5.429h2.714a2.714,2.714,0,0,0,0,5.429h16.55c3.991,0,7.928-1.834,11.5-3.619H198v-18.1Z" transform="translate(-127.714 -56.762)" fill="#fdb683"/>
        <g id="Group_26" data-name="Group 26" transform="translate(35.905 40.286)">
          <path id="Path_95" data-name="Path 95" d="M192,208h13.571v1.81H192Z" transform="translate(-192 -203.476)" fill="#f6a368"/>
          <path id="Path_96" data-name="Path 96" d="M192,256h13.571v1.81H192Z" transform="translate(-192 -246.048)" fill="#f6a368"/>
          <path id="Path_97" data-name="Path 97" d="M216,304h10.857v1.81H216Z" transform="translate(-213.286 -288.619)" fill="#f6a368"/>
          <path id="Path_98" data-name="Path 98" d="M363.518,175.243a8.284,8.284,0,0,1-7.967-3.32,11.748,11.748,0,0,1-1.87-3.922h-1.854l.037.177a13.264,13.264,0,0,0,2.195,4.77,9.931,9.931,0,0,0,8.308,4.164q.64,0,1.331-.068Z" transform="translate(-333.752 -168)" fill="#f6a368"/>
        </g>
        <ellipse id="Ellipse_5" data-name="Ellipse 5" cx="2.378" cy="2.972" rx="2.378" ry="2.972" transform="translate(38.591 32.323)" fill="#4db6e4"/>
        <path id="Path_99" data-name="Path 99" d="M66.6,147.428,57.734,104H50.5l-8.863,43.428Z" transform="translate(-22.734 -70.952)" fill="#4db6e4"/>
        <path id="Path_100" data-name="Path 100" d="M25.952,24H16v6.333h9.048a2.714,2.714,0,0,1,2.714,2.714H35A9.048,9.048,0,0,0,25.952,24Z" transform="translate(0 0)" fill="#dfdfdd"/>
        <path id="Path_101" data-name="Path 101" d="M131.286,225.048l-.512-.41a38.942,38.942,0,0,0-8.718-5.269l-7.971-3.161a2.478,2.478,0,0,0-2.415,4.3l6.95,4.539h-19a2.714,2.714,0,1,0,0,5.429h-.9a2.714,2.714,0,0,0,0,5.429h1.81a2.714,2.714,0,0,0,0,5.429h2.714a2.714,2.714,0,1,0,0,5.429h16.55c3.991,0,8.833-1.834,12.4-3.619h9.048v-18.1Z" transform="translate(-70.952 -170.286)" fill="#fdc8a2"/>
        <g id="Group_27" data-name="Group 27" transform="translate(27.762 59.286)">
          <path id="Path_102" data-name="Path 102" d="M120,336h13.571v1.81H120Z" transform="translate(-120 -336)" fill="#fcb079"/>
          <path id="Path_103" data-name="Path 103" d="M120,384h13.571v1.81H120Z" transform="translate(-120 -378.572)" fill="#fcb079"/>
          <path id="Path_104" data-name="Path 104" d="M144,432h10.857v1.81H144Z" transform="translate(-141.286 -421.143)" fill="#fcb079"/>
        </g>
        <path id="Path_105" data-name="Path 105" d="M0,0H12.233V1.809H0Z" transform="translate(28.767 49.618) rotate(-86.846)" fill="#3ba5d3"/>
        <path id="Path_106" data-name="Path 106" d="M0,0H1.81V9.871H0Z" transform="translate(32.402 42.289) rotate(-4.588)" fill="#3ba5d3"/>
        <circle id="Ellipse_6" data-name="Ellipse 6" cx="2.378" cy="2.378" r="2.378" transform="translate(17.189 57.291)" fill="#4db6e4"/>
        <circle id="Ellipse_7" data-name="Ellipse 7" cx="2.378" cy="2.378" r="2.378" transform="translate(48.102 63.236)" fill="#4db6e4"/>
      </g>
    </g>
    <g id="Group_223" data-name="Group 223" transform="translate(-50 212)">
      <g id="Ellipse_13" data-name="Ellipse 13" transform="translate(256 951)" fill="none" stroke="#707070" stroke-width="1">
        <circle cx="32.5" cy="32.5" r="32.5" stroke="none"/>
        <circle cx="32.5" cy="32.5" r="32" fill="none"/>
      </g>
    </g>
  </g>
</svg>
