<svg xmlns="http://www.w3.org/2000/svg" xmlns:xlink="http://www.w3.org/1999/xlink" width="65" height="65" viewBox="0 0 65 65">
  <defs>
    <clipPath id="clip-path">
      <circle id="Ellipse_28" data-name="Ellipse 28" cx="32.5" cy="32.5" r="32.5" transform="translate(1282 1026)" fill="#fff" opacity="0.67"/>
    </clipPath>
  </defs>
  <g id="Group_220" data-name="Group 220" transform="translate(-155 -1054)">
    <g id="Ellipse_33" data-name="Ellipse 33" transform="translate(155 1054)" fill="none" stroke="rgba(0,219,158,0.9)" stroke-width="1">
      <circle cx="32.5" cy="32.5" r="32.5" stroke="none"/>
      <circle cx="32.5" cy="32.5" r="32" fill="none"/>
    </g>
    <g id="Group_219" data-name="Group 219">
      <g id="Mask_Group_13" data-name="Mask Group 13" transform="translate(-1127 28)" clip-path="url(#clip-path)">
        <g id="Group_175" data-name="Group 175" transform="translate(-439.96 -50.5)">
          <g id="face-mask" transform="translate(1736.838 1084.5)">
            <g id="Group_172" data-name="Group 172" transform="translate(0 0)">
              <g id="Group_171" data-name="Group 171" transform="translate(0 0)">
                <path id="Path_602" data-name="Path 602" d="M102.833,18.229a19.1,19.1,0,0,1-3.2-10.112.545.545,0,0,1,.62-.549,7.616,7.616,0,0,0,2.884-.11c3.223-.869,6.394-7.263,11.98-7.449s6.67,2.421,6.67,2.421a8.489,8.489,0,0,1,5.124-.807c4.593.621,8.628,7.619,4.527,17.232Z" transform="translate(-99.114 0)" fill="#e5907b"/>
                <g id="Group_167" data-name="Group 167" transform="translate(2.016 17.806)">
                  <path id="Path_603" data-name="Path 603" d="M114.763,165.109a3.173,3.173,0,0,0,3.167,3.294s1.6-1.423,1.6-1.4c0-.009,0-.018,0-.027l.984-2.032-.984-1.74a3.327,3.327,0,0,0-4.768,1.9Z" transform="translate(-114.604 -162.799)" fill="#ebbaa1"/>
                  <path id="Path_604" data-name="Path 604" d="M116.639,186.229a3.327,3.327,0,0,1-3.167-2.31,3.326,3.326,0,0,0,4.946,3.826l.859-.881-1.038-1.047A3.306,3.306,0,0,1,116.639,186.229Z" transform="translate(-113.313 -181.609)" fill="#e8a990"/>
                  <path id="Path_605" data-name="Path 605" d="M350.4,165.109a3.173,3.173,0,0,1-3.168,3.294s-1.6-1.423-1.6-1.4c0-.009,0-.018,0-.027l-.984-2.032.984-1.74a3.327,3.327,0,0,1,4.768,1.9Z" transform="translate(-319.347 -162.799)" fill="#ebbaa1"/>
                  <path id="Path_606" data-name="Path 606" d="M346.794,186.229a3.327,3.327,0,0,0,3.167-2.31,3.326,3.326,0,0,1-4.946,3.826l-.859-.881,1.038-1.047A3.305,3.305,0,0,0,346.794,186.229Z" transform="translate(-318.908 -181.609)" fill="#e8a990"/>
                </g>
                <path id="Path_607" data-name="Path 607" d="M169.033,95.3c5.9,0,10.68-4.756,10.68-11.665V80.572a3.355,3.355,0,0,0-1.068-2.468,40.736,40.736,0,0,1-5.106-6.352.565.565,0,0,0-.887-.063,24.15,24.15,0,0,1-12.933,7.06,1.692,1.692,0,0,0-1.366,1.662v3.227C158.353,90.727,163.135,95.3,169.033,95.3Z" transform="translate(-151.411 -63.683)" fill="#fdd4bb"/>
                <path id="Path_608" data-name="Path 608" d="M117.508,287.322a10.692,10.692,0,0,1-10,0,15.9,15.9,0,0,0-12.62,15.555v3.867l.984,3.12,16.638.984,16.638-.984.984-3.12v-3.867A15.9,15.9,0,0,0,117.508,287.322Z" transform="translate(-94.884 -255.896)" fill="#b3e59f"/>
                <path id="Path_609" data-name="Path 609" d="M169.763,495.451h17.356l.847-1.016-.847-1.016H169.763l-.847,1.016Z" transform="translate(-160.819 -439.451)" fill="#95d6a4"/>
                <path id="Path_610" data-name="Path 610" d="M209.822,287.16c-.01.131-.017.264-.017.4a5.053,5.053,0,1,0,10.105,0c0-.134-.007-.266-.017-.4Z" transform="translate(-197.236 -255.752)" fill="#ebbaa1"/>
                <path id="Path_611" data-name="Path 611" d="M351.181,468.015l-4.049.984-4.049-.984V464.9h8.1Z" transform="translate(-315.937 -414.047)" fill="#fdd4bb"/>
                <path id="Path_612" data-name="Path 612" d="M94.884,468.015l4.049.984,4.049-.984V464.9h-8.1Z" transform="translate(-94.884 -414.047)" fill="#fdd4bb"/>
                <path id="Path_613" data-name="Path 613" d="M343.931,495.451h6.7a.547.547,0,0,0,.547-.547v-1.485h-7.251l-.847,1.016Z" transform="translate(-315.937 -439.451)" fill="#f7c4a8"/>
                <path id="Path_614" data-name="Path 614" d="M95.431,495.452h6.7l.847-1.016-.847-1.016H94.884v1.485A.547.547,0,0,0,95.431,495.452Z" transform="translate(-94.884 -439.452)" fill="#f7c4a8"/>
                <path id="Path_615" data-name="Path 615" d="M156.432,167.4a.845.845,0,0,1-.688-.352l-4.974-6.9a.847.847,0,1,1,1.374-.99l4.974,6.9a.847.847,0,0,1-.686,1.342Z" transform="translate(-144.515 -141.434)" fill="#adf0ff"/>
                <path id="Path_616" data-name="Path 616" d="M301.271,167.4a.847.847,0,0,1-.686-1.342l4.974-6.9a.847.847,0,1,1,1.374.99l-4.974,6.9A.846.846,0,0,1,301.271,167.4Z" transform="translate(-277.944 -141.435)" fill="#adf0ff"/>
                <g id="Group_168" data-name="Group 168" transform="translate(6.942 19.955)">
                  <path id="Path_617" data-name="Path 617" d="M160.506,188.885a10.633,10.633,0,0,1-2.154-6.433v2.032a10.63,10.63,0,0,0,1.37,5.236l.908.207Z" transform="translate(-158.352 -182.452)" fill="#f7c4a8"/>
                  <path id="Path_618" data-name="Path 618" d="M333.172,188.883l-.1,1.043.879-.207a10.63,10.63,0,0,0,1.37-5.237V182.45A10.632,10.632,0,0,1,333.172,188.883Z" transform="translate(-313.967 -182.45)" fill="#f7c4a8"/>
                </g>
                <path id="Path_619" data-name="Path 619" d="M178.049,206.419c1.176,2.976,5.043,5.232,8.526,5.232a10.119,10.119,0,0,0,8.526-5.232c-1.6-1.607-4.819-4.279-8.526-4.279S179.65,204.812,178.049,206.419Z" transform="translate(-168.953 -180.031)" fill="#ebf2f8"/>
                <path id="Path_620" data-name="Path 620" d="M180.192,245.512a10.663,10.663,0,0,1-8.526-4.248c-.335.336-.6.627-.784.836a10.682,10.682,0,0,0,18.619,0c-.183-.209-.449-.5-.784-.836A10.663,10.663,0,0,1,180.192,245.512Z" transform="translate(-162.57 -214.876)" fill="#d6e3ed"/>
                <g id="Group_170" data-name="Group 170" transform="translate(7.25 45.159)">
                  <path id="Path_621" data-name="Path 621" d="M162.868,421.693v-7.962a.847.847,0,0,0-1.694,0v7.962l.847,1.016Z" transform="translate(-161.174 -412.885)" fill="#95d6a4"/>
                  <path id="Path_622" data-name="Path 622" d="M337.036,421.693v-7.962a.847.847,0,0,0-1.694,0v7.962l.847,1.016Z" transform="translate(-316.293 -412.885)" fill="#95d6a4"/>
                  <g id="Group_169" data-name="Group 169" transform="translate(0 8.808)">
                    <path id="Path_623" data-name="Path 623" d="M161.174,493.419h1.694v2.032h-1.694Z" transform="translate(-161.174 -493.419)" fill="#95d6a4"/>
                    <path id="Path_624" data-name="Path 624" d="M335.342,493.419h1.694v2.032h-1.694Z" transform="translate(-316.293 -493.419)" fill="#95d6a4"/>
                  </g>
                </g>
              </g>
            </g>
            <g id="Group_173" data-name="Group 173" transform="translate(11.916 17.808)">
              <path id="Path_625" data-name="Path 625" d="M204.68,166.029a.848.848,0,0,0,.848-.848v-1.514a.848.848,0,0,0-1.7,0v1.514A.848.848,0,0,0,204.68,166.029Z" transform="translate(-203.832 -162.819)" fill="#565e75"/>
              <path id="Path_626" data-name="Path 626" d="M293.5,166.029a.848.848,0,0,0,.849-.848v-1.514a.848.848,0,0,0-1.7,0v1.514A.848.848,0,0,0,293.5,166.029Z" transform="translate(-282.939 -162.819)" fill="#565e75"/>
            </g>
          </g>
          <g id="Group_174" data-name="Group 174" transform="translate(1743.05 1099.773)">
            <g id="facemask-coronavirus-faceshield-protect-covid19" transform="translate(0)">
              <path id="Path_35" data-name="Path 35" d="M101.784,108.312H83.994a2.3,2.3,0,0,1-1.787-.9,3.028,3.028,0,0,1-.633-2.109l.995-13.641h20.64l.995,13.641a3.028,3.028,0,0,1-.633,2.109A2.3,2.3,0,0,1,101.784,108.312Z" transform="translate(-81.566 -89.603)" fill="rgba(255,255,255,0.27)"/>
              <path id="Path_627" data-name="Path 627" d="M102.091,68.254a1.124,1.124,0,0,1-1.192,1.032H80.636a1.043,1.043,0,1,1,0-2.063H100.9A1.124,1.124,0,0,1,102.091,68.254Z" transform="translate(-79.444 -67.222)" fill="#adf0ff"/>
            </g>
          </g>
        </g>
      </g>
      <g id="Group_216" data-name="Group 216" transform="translate(-101 103)">
        <g id="Ellipse_13" data-name="Ellipse 13" transform="translate(256 951)" fill="none" stroke="#707070" stroke-width="1">
          <circle cx="32.5" cy="32.5" r="32.5" stroke="none"/>
          <circle cx="32.5" cy="32.5" r="32" fill="none"/>
        </g>
      </g>
    </g>
  </g>
</svg>
