<svg xmlns="http://www.w3.org/2000/svg" xmlns:xlink="http://www.w3.org/1999/xlink" width="65" height="65" viewBox="0 0 65 65">
  <defs>
    <clipPath id="clip-path">
      <circle id="Ellipse_13" data-name="Ellipse 13" cx="32.5" cy="32.5" r="32.5" transform="translate(1284 959)" fill="#beefe3"/>
    </clipPath>
  </defs>
  <g id="Group_218" data-name="Group 218" transform="translate(-56 -1054)">
    <g id="Group_30" data-name="Group 30" transform="translate(-200 103)">
      <g id="Ellipse_13-2" data-name="Ellipse 13" transform="translate(256 951)" fill="#beefe3" stroke="rgba(0,219,158,0.9)" stroke-width="1">
        <circle cx="32.5" cy="32.5" r="32.5" stroke="none"/>
        <circle cx="32.5" cy="32.5" r="32" fill="none"/>
      </g>
    </g>
    <g id="Group_217" data-name="Group 217">
      <g id="Mask_Group_12" data-name="Mask Group 12" transform="translate(-1228 95)" clip-path="url(#clip-path)">
        <g id="face-mask" transform="translate(1203.994 968)">
          <g id="Group_181" data-name="Group 181" transform="translate(94.884 0)">
            <g id="Group_180" data-name="Group 180" transform="translate(0 0)">
              <path id="Path_628" data-name="Path 628" d="M102.841,17.43a17.742,17.742,0,0,1-3.207-9.669.538.538,0,0,1,.622-.525,7.994,7.994,0,0,0,2.891-.1c3.23-.831,6.408-6.944,12.007-7.123s6.685,2.315,6.685,2.315a8.853,8.853,0,0,1,5.136-.772c4.6.594,8.648,7.285,4.538,16.477Z" transform="translate(-99.137 0)" fill="#e5907b"/>
              <g id="Group_176" data-name="Group 176" transform="translate(1.927 17.911)">
                <path id="Path_629" data-name="Path 629" d="M114.763,165.008a3.034,3.034,0,0,0,3.029,3.15s1.53-1.36,1.531-1.335c0-.009,0-.017,0-.025l.941-1.943-.941-1.663a3.181,3.181,0,0,0-4.559,1.817Z" transform="translate(-114.611 -162.799)" fill="#ebbaa1"/>
                <path id="Path_630" data-name="Path 630" d="M116.493,186.128a3.181,3.181,0,0,1-3.029-2.209,3.18,3.18,0,0,0,4.73,3.658l.822-.842-.992-1A3.161,3.161,0,0,1,116.493,186.128Z" transform="translate(-113.313 -181.71)" fill="#e8a990"/>
                <path id="Path_631" data-name="Path 631" d="M350.149,165.008a3.034,3.034,0,0,1-3.029,3.15s-1.53-1.36-1.531-1.335c0-.009,0-.017,0-.025l-.941-1.943.941-1.663a3.181,3.181,0,0,1,4.559,1.817Z" transform="translate(-318.911 -162.799)" fill="#ebbaa1"/>
                <path id="Path_632" data-name="Path 632" d="M346.679,186.128a3.182,3.182,0,0,0,3.029-2.209,3.18,3.18,0,0,1-4.73,3.658l-.822-.842.992-1A3.161,3.161,0,0,0,346.679,186.128Z" transform="translate(-318.47 -181.71)" fill="#e8a990"/>
              </g>
              <path id="Path_633" data-name="Path 633" d="M169.337,94.26a10.8,10.8,0,0,0,10.984-11.153V80.174a3.106,3.106,0,0,0-1.1-2.36,39.582,39.582,0,0,1-5.251-6.073.608.608,0,0,0-.913-.06,25.51,25.51,0,0,1-13.3,6.751,1.653,1.653,0,0,0-1.4,1.589v3.086A10.7,10.7,0,0,0,169.337,94.26Z" transform="translate(-151.715 -64.025)" fill="#fdd4bb"/>
              <path id="Path_634" data-name="Path 634" d="M117.508,287.322a11.127,11.127,0,0,1-10,0A15.383,15.383,0,0,0,94.884,302.2v3.7l.984,2.983,16.638.941,16.638-.941.984-2.983v-3.7A15.383,15.383,0,0,0,117.508,287.322Z" transform="translate(-94.884 -254.819)" fill="#b3e59f"/>
              <path id="Path_635" data-name="Path 635" d="M169.794,495.362h18l.878-.972-.878-.972h-18l-.878.972Z" transform="translate(-161.174 -439.362)" fill="#95d6a4"/>
              <path id="Path_636" data-name="Path 636" d="M209.821,287.16c-.01.126-.016.252-.016.38a4.831,4.831,0,1,0,9.662,0c0-.128-.006-.255-.016-.38Z" transform="translate(-197.014 -255.604)" fill="#ebbaa1"/>
              <path id="Path_637" data-name="Path 637" d="M350.826,467.878l-3.871.941-3.871-.941V464.9h7.742Z" transform="translate(-315.582 -413.821)" fill="#fdd4bb"/>
              <path id="Path_638" data-name="Path 638" d="M94.884,467.878l3.871.941,3.871-.941V464.9H94.884Z" transform="translate(-94.884 -413.821)" fill="#fdd4bb"/>
              <path id="Path_639" data-name="Path 639" d="M343.894,495.362h6.41a.523.523,0,0,0,.523-.523v-1.42h-6.933l-.81.972Z" transform="translate(-315.582 -439.362)" fill="#f7c4a8"/>
              <path id="Path_640" data-name="Path 640" d="M95.407,495.363h6.41l.81-.972-.81-.972H94.884v1.42A.523.523,0,0,0,95.407,495.363Z" transform="translate(-94.884 -439.363)" fill="#f7c4a8"/>
              <path id="Path_641" data-name="Path 641" d="M156.177,167.022a.808.808,0,0,1-.658-.336l-4.756-6.6a.81.81,0,1,1,1.314-.947l4.756,6.6a.81.81,0,0,1-.656,1.283Z" transform="translate(-144.453 -141.296)" fill="#adf0ff"/>
              <path id="Path_642" data-name="Path 642" d="M301.234,167.023a.81.81,0,0,1-.656-1.283l4.756-6.6a.81.81,0,0,1,1.314.947l-4.756,6.6A.809.809,0,0,1,301.234,167.023Z" transform="translate(-277.714 -141.297)" fill="#adf0ff"/>
              <g id="Group_177" data-name="Group 177" transform="translate(7.41 20.09)">
                <path id="Path_643" data-name="Path 643" d="M160.412,188.6a10.166,10.166,0,0,1-2.06-6.151V184.4a10.164,10.164,0,0,0,1.31,5.007l.868.2Z" transform="translate(-158.352 -182.452)" fill="#f7c4a8"/>
                <path id="Path_644" data-name="Path 644" d="M333.168,188.6l-.091,1,.841-.2a10.165,10.165,0,0,0,1.31-5.007V182.45A10.167,10.167,0,0,1,333.168,188.6Z" transform="translate(-314.804 -182.45)" fill="#f7c4a8"/>
              </g>
              <path id="Path_645" data-name="Path 645" d="M178.049,206.232c1.124,2.846,4.822,5,8.152,5a9.676,9.676,0,0,0,8.152-5c-1.531-1.537-4.608-4.092-8.152-4.092S179.58,204.695,178.049,206.232Z" transform="translate(-168.579 -179.833)" fill="#ebf2f8"/>
              <path id="Path_646" data-name="Path 646" d="M180.556,245.326a11.428,11.428,0,0,1-8.859-4.061c-.348.322-.625.6-.815.8a11.592,11.592,0,0,0,19.348,0c-.19-.2-.466-.478-.815-.8A11.428,11.428,0,0,1,180.556,245.326Z" transform="translate(-162.934 -214.73)" fill="#d6e3ed"/>
              <g id="Group_179" data-name="Group 179" transform="translate(7.705 45.634)">
                <path id="Path_647" data-name="Path 647" d="M162.793,421.307v-7.613a.81.81,0,0,0-1.619,0v7.613l.81.972Z" transform="translate(-161.174 -412.885)" fill="#95d6a4"/>
                <path id="Path_648" data-name="Path 648" d="M336.961,421.307v-7.613a.81.81,0,0,0-1.619,0v7.613l.81.972Z" transform="translate(-317.127 -412.885)" fill="#95d6a4"/>
                <g id="Group_178" data-name="Group 178" transform="translate(0 8.422)">
                  <path id="Path_649" data-name="Path 649" d="M161.174,493.419h1.619v1.943h-1.619Z" transform="translate(-161.174 -493.419)" fill="#95d6a4"/>
                  <path id="Path_650" data-name="Path 650" d="M335.342,493.419h1.619v1.943h-1.619Z" transform="translate(-317.127 -493.419)" fill="#95d6a4"/>
                </g>
              </g>
            </g>
          </g>
          <g id="Group_182" data-name="Group 182" transform="translate(107.05 17.856)">
            <path id="Path_651" data-name="Path 651" d="M204.643,165.889a.811.811,0,0,0,.811-.811V163.63a.811.811,0,1,0-1.622,0v1.447A.811.811,0,0,0,204.643,165.889Z" transform="translate(-203.832 -162.819)" fill="#565e75"/>
            <path id="Path_652" data-name="Path 652" d="M293.465,165.889a.811.811,0,0,0,.811-.811V163.63a.811.811,0,1,0-1.622,0v1.447A.811.811,0,0,0,293.465,165.889Z" transform="translate(-283.365 -162.819)" fill="#565e75"/>
          </g>
        </g>
      </g>
      <g id="Group_187" data-name="Group 187" transform="translate(-200 103)">
        <g id="Ellipse_13-3" data-name="Ellipse 13" transform="translate(256 951)" fill="none" stroke="#707070" stroke-width="1">
          <circle cx="32.5" cy="32.5" r="32.5" stroke="none"/>
          <circle cx="32.5" cy="32.5" r="32" fill="none"/>
        </g>
      </g>
    </g>
  </g>
</svg>
