<svg xmlns="http://www.w3.org/2000/svg" xmlns:xlink="http://www.w3.org/1999/xlink" width="155.406" height="148.366" viewBox="0 0 155.406 148.366">
  <defs>
    <clipPath id="clip-path">
      <rect id="Rectangle_74" data-name="Rectangle 74" width="155.406" height="148.366" transform="translate(-25.37 -24.21)" fill="none"/>
    </clipPath>
    <clipPath id="clip-path-2">
      <path id="Path_738" data-name="Path 738" d="M369.31,166.535s2.613-3.36,6.977-.532C376.286,166,373.768,169.468,369.31,166.535Z" transform="translate(-369.31 -164.87)" fill="#fff"/>
    </clipPath>
    <clipPath id="clip-path-3">
      <path id="Path_742" data-name="Path 742" d="M359.653,166.066s-1.987-3.41-4.393-.823C355.26,165.243,357.2,168.758,359.653,166.066Z" transform="translate(-355.26 -164.274)" fill="#fff"/>
    </clipPath>
  </defs>
  <g id="girl" transform="translate(25.37 24.21)" clip-path="url(#clip-path)">
    <path id="Path_710" data-name="Path 710" d="M422.844,536.965,408.6,527.46s-1.687-.087-2.082,6.807v8.911h2.052V536.99l2.282,6.188h18.712S430.563,538.982,422.844,536.965Z" transform="translate(-333.523 -296.93)" fill="#361b13"/>
    <path id="Path_711" data-name="Path 711" d="M137.74,349.92,142,373.144h7.5l-1.28-22.667Z" transform="translate(-66.919 -142.614)" fill="#e9a88c"/>
    <path id="Path_712" data-name="Path 712" d="M416.486,521.92l7.8,12.933h-7.442a6.71,6.71,0,0,1-4.9-2.171A7.4,7.4,0,0,1,410,527.5l.047-2.147Z" transform="translate(-334.949 -294.818)" fill="#e9a88c"/>
    <path id="Path_713" data-name="Path 713" d="M325.368,524.52s2.542-.1,2.418,4.982,0,12.562,0,12.562h-2.418v-8.775l-7.254,8.775H294.69s-.159-4.827,11.571-4.7Z" transform="translate(-287.642 -295.809)" fill="#361b13"/>
    <path id="Path_714" data-name="Path 714" d="M332.683,510.53l1.179-22.71H323.807l-.861,22.71L312.52,523.488H318a10.013,10.013,0,0,0,6.929-2.809C327.493,518.253,330.943,514.466,332.683,510.53Z" transform="translate(-294.957 -281.82)" fill="#e9a88c"/>
    <path id="Path_715" data-name="Path 715" d="M338.9,278.83s-15.6,22.593-20.54,144.462h25.359l5.567-98.137,12.09,98.83,26.538-1S377.522,302.5,362.095,278.83Z" transform="translate(-297.353 -202.155)" fill="#2f3338"/>
    <path id="Path_716" data-name="Path 716" d="M99.116,199.191l-2.713-17.7L89.61,175.67" transform="translate(-47.173 -76.192)" fill="none" stroke="#361b13" stroke-linecap="round" stroke-linejoin="round" stroke-width="0.37"/>
    <line id="Line_29" data-name="Line 29" x1="27.729" transform="translate(39.495 81.619)" fill="none" stroke="#361b13" stroke-linecap="round" stroke-linejoin="round" stroke-width="0.37"/>
    <path id="Path_717" data-name="Path 717" d="M330.925,239.754l-14.6,10.173a4.887,4.887,0,0,1-4.16.536,5.185,5.185,0,0,1-3.135-2.918h0a5.5,5.5,0,0,1,1.61-6.479l22.2-17.946Z" transform="translate(-293.341 -180.919)" fill="#e9a88c"/>
    <path id="Path_718" data-name="Path 718" d="M357.143,218.839s1.1,5.068-5.868,10.278l-11.736,7.933L331,223.672l9.082-7.24S354.743,205.609,357.143,218.839Z" transform="translate(-302.539 -176.78)" fill="#fff"/>
    <path id="Path_719" data-name="Path 719" d="M292.628,198.58l-4.688,1.12,11.889,37.351a5.749,5.749,0,0,0,3.086,3.873,5.3,5.3,0,0,0,4.81-.123h0a5.945,5.945,0,0,0,2.512-7.587Z" transform="translate(-284.873 -171.565)" fill="#e9a88c"/>
    <path id="Path_720" data-name="Path 720" d="M283.147,190.584l-.265-1.281a11.42,11.42,0,0,0-2.158-4.7l-1.869-2.407a1.1,1.1,0,0,0-1.734-.037h0a1.582,1.582,0,0,0-.2,1.7l1.409,2.939-9.029-6.238a.85.85,0,0,0-.714-.137.893.893,0,0,0-.571.471l-.165.328a.966.966,0,0,0,.23,1.145l5.933,4.424-7.484-4.1a.848.848,0,0,0-.716-.087.9.9,0,0,0-.54.5l-.106.254a.94.94,0,0,0,.348,1.163l6.422,4.01-5.514-1.918a.843.843,0,0,0-.76.073.926.926,0,0,0-.419.67v.118a.938.938,0,0,0,.5.959l5.591,2.426-3.149-.551a.841.841,0,0,0-.834.173.941.941,0,0,0-.3.836h0a.9.9,0,0,0,.525.718l14.154,5.916,1.179-3.41A7.534,7.534,0,0,0,283.147,190.584Z" transform="translate(-275.498 -164.633)" fill="#e9a88c"/>
    <path id="Path_721" data-name="Path 721" d="M287.339,190.74a6.343,6.343,0,0,0,.59,5.118" transform="translate(-284.508 -168.576)" fill="none" stroke="#361b13" stroke-linecap="round" stroke-linejoin="round" stroke-width="0.37"/>
    <path id="Path_722" data-name="Path 722" d="M379.252,209.841l-15.209-2.061-13.175,3.657a5.134,5.134,0,0,0-2.778,1.931c-2.288,3.137-7.018,10.879-5.585,19.678l6.174,18.7h23.589l12.29-30.835-2.135-8.045A4.046,4.046,0,0,0,379.252,209.841Z" transform="translate(-307.151 -175.072)" fill="#fff"/>
    <path id="Path_723" data-name="Path 723" d="M118.15,69.179l-10.362-1.4L98.63,70.317l1.728,9.2Z" transform="translate(-50.873 -35.066)" fill="#e9a88c"/>
    <path id="Path_724" data-name="Path 724" d="M344.667,226.08a19.991,19.991,0,0,0-2.229,13.942" transform="translate(-307.065 -182.048)" fill="none" stroke="#361b13" stroke-linecap="round" stroke-linejoin="round" stroke-width="0.37"/>
    <path id="Path_725" data-name="Path 725" d="M377.416,278.177l7.944-2.63-.419-1.733a1.525,1.525,0,0,1,.625-1.64,1.26,1.26,0,0,1,1.651.248l5.827,6.85,4.346,5.278c-4.193,2.809-8.3,2.89-9.583,2l-6.4,1.108a1.063,1.063,0,0,1-1.3-.78c-.124-.433-.088-1.083,1.091-1.5l-1.18.421a1.075,1.075,0,0,1-.85-.123,1.171,1.171,0,0,1-.518-.718,1.443,1.443,0,0,1,.949-1.553l-.885.217a1.134,1.134,0,0,1-.916-.173,1.243,1.243,0,0,1-.511-.817,1.33,1.33,0,0,1,.855-1.454l1.3-.464-1.486.142a1.205,1.205,0,0,1-.973-.239,1.328,1.328,0,0,1-.495-.912A1.44,1.44,0,0,1,377.416,278.177Z" transform="translate(-321.196 -199.541)" fill="#e9a88c"/>
    <path id="Path_726" data-name="Path 726" d="M139.49,134.532l19.821-17.382,6.806,9.053-23.389,13.329Z" transform="translate(-67.637 -53.885)" fill="#e9a88c"/>
    <line id="Line_30" data-name="Line 30" y1="1.3" x2="4.724" transform="translate(58.248 79.88)" fill="none" stroke="#361b13" stroke-linecap="round" stroke-linejoin="round" stroke-width="0.37"/>
    <line id="Line_31" data-name="Line 31" y1="1.522" x2="4.995" transform="translate(58.189 82.405)" fill="none" stroke="#361b13" stroke-linecap="round" stroke-linejoin="round" stroke-width="0.37"/>
    <line id="Line_32" data-name="Line 32" y1="1.095" x2="3.975" transform="translate(59.634 84.905)" fill="none" stroke="#361b13" stroke-linecap="round" stroke-linejoin="round" stroke-width="0.37"/>
    <path id="Path_727" data-name="Path 727" d="M421.6,236.71l11.435,13.942a5.544,5.544,0,0,1,1.027,4.267,5.356,5.356,0,0,1-2.371,3.629h0a4.931,4.931,0,0,1-6.328-.866L406.22,236.716Z" transform="translate(-333.4 -186.099)" fill="#e9a88c"/>
    <path id="Path_728" data-name="Path 728" d="M398.024,211.315s4.653-1.782,10.45,4.827l8.964,11.231-11.588,10.563-7.991-8.558S385.81,215.455,398.024,211.315Z" transform="translate(-327.792 -176.336)" fill="#fff"/>
    <line id="Line_33" data-name="Line 33" x1="5.089" y1="5.792" transform="translate(68.126 50.617)" fill="none" stroke="#361b13" stroke-linecap="round" stroke-linejoin="round" stroke-width="0.37"/>
    <path id="Path_752" data-name="Path 752" d="M9.486,0a8.806,8.806,0,0,1,9.17,8.861,9.566,9.566,0,0,1-9.485,9.175A8.806,8.806,0,0,1,0,9.177,9.566,9.566,0,0,1,9.486,0Z" transform="translate(66.984 6.578) rotate(-67.28)" fill="#5e3629"/>
    <path id="Path_753" data-name="Path 753" d="M6.219,0a6.2,6.2,0,0,1,6.122,6.411,6.437,6.437,0,0,1-6.219,6.507A6.2,6.2,0,0,1,0,6.507,6.437,6.437,0,0,1,6.219,0Z" transform="translate(62.138 -1.835) rotate(-9.25)" fill="#fff"/>
    <path id="Path_729" data-name="Path 729" d="M354.893,183.62a4.223,4.223,0,0,0,4-3.047,4.529,4.529,0,0,0-1.534-4.93l-.254.371a4.068,4.068,0,0,1,1.337,4.521,3.773,3.773,0,0,1-3.752,2.627,3.822,3.822,0,0,1-3.465-3.031,4.033,4.033,0,0,1,1.788-4.346l-.212-.4a4.5,4.5,0,0,0-1.972,4.957,4.238,4.238,0,0,0,4.06,3.273Z" transform="translate(-310.615 -162.725)" fill="#e17852"/>
    <path id="Path_754" data-name="Path 754" d="M14.846,0A14.8,14.8,0,1,1,0,14.829,14.749,14.749,0,0,1,14.846,0Z" transform="translate(43.064 19.853) rotate(-87.91)" fill="#5e3629"/>
    <path id="Path_730" data-name="Path 730" d="M358.242,170.916a3.865,3.865,0,0,1-3.395,2.706,3.81,3.81,0,0,1-3.679-2.26,4.178,4.178,0,0,1,.588-4.431,3.715,3.715,0,0,1,4.127-1.12A4.068,4.068,0,0,1,358.242,170.916Z" transform="translate(-310.656 -158.988)" fill="#e9a88c"/>
    <path id="Path_731" data-name="Path 731" d="M105.576,42.1l-.236,15.322,10.4-.229L112.511,33.94Z" transform="translate(-53.626 -22.166)" fill="#e9a88c"/>
    <path id="Path_732" data-name="Path 732" d="M105.53,54.634l8.4-9-8.274.922Z" transform="translate(-53.704 -26.622)" fill="#361b13"/>
    <path id="Path_733" data-name="Path 733" d="M357.9,147.15a5.907,5.907,0,0,0-1.946,3.28c-.867,3.818-2.536,10.52-1.386,14.66,1.5,5.371,5.473,9.282,12.154,8.218,0,0,7.979-.538,9.984-11.04C379.9,145.529,366.422,140.127,357.9,147.15Z" transform="translate(-312.048 -150.816)" fill="#e9a88c"/>
    <path id="Path_734" data-name="Path 734" d="M359.192,157.225s.419,1.021-1.18,1.238a8.861,8.861,0,0,0-2.194.483.97.97,0,0,1-1.05-.26h0a.715.715,0,0,1,0-.736,2.376,2.376,0,0,1,2.076-1.634C358.726,156.043,359.192,157.225,359.192,157.225Z" transform="translate(-312.249 -155.438)" fill="#361b13"/>
    <path id="Path_735" data-name="Path 735" d="M370.091,156.774s-.537,1.145,1.716,1.343a32.649,32.649,0,0,1,4.718.922,1.652,1.652,0,0,0,1.48-.3h0a.536.536,0,0,0-.035-.823,10.233,10.233,0,0,0-4.771-1.918C370.539,155.734,370.091,156.774,370.091,156.774Z" transform="translate(-318.554 -155.316)" fill="#361b13"/>
    <path id="Path_736" data-name="Path 736" d="M369.31,166.535s2.613-3.36,6.977-.532C376.286,166,373.768,169.468,369.31,166.535Z" transform="translate(-318.257 -158.715)" fill="#fff"/>
    <g id="Group_253" data-name="Group 253" transform="translate(51.053 6.155)" clip-path="url(#clip-path-2)">
      <path id="Path_737" data-name="Path 737" d="M372.161,165.922a1.593,1.593,0,0,0,.643,1.6,1.428,1.428,0,0,0,1.654-.015,1.6,1.6,0,0,0,.616-1.611,1.522,1.522,0,0,0-1.185-1.211,1.5,1.5,0,0,0-1.728,1.238Z" transform="translate(-370.469 -164.79)" fill="#2f3338"/>
    </g>
    <path id="Path_739" data-name="Path 739" d="M376.287,165.967a5.569,5.569,0,0,0-3.238-1.188,4.684,4.684,0,0,0-3.739,1.72" transform="translate(-318.257 -158.679)" fill="none" stroke="#361b13" stroke-linecap="round" stroke-linejoin="round" stroke-width="0.37"/>
    <path id="Path_740" data-name="Path 740" d="M359.653,166.066s-1.987-3.41-4.393-.823C355.26,165.243,357.2,168.758,359.653,166.066Z" transform="translate(-312.492 -158.488)" fill="#fff"/>
    <g id="Group_254" data-name="Group 254" transform="translate(42.768 5.786)" clip-path="url(#clip-path-3)">
      <path id="Path_741" data-name="Path 741" d="M359.408,165.42c.183.835-.112,1.621-.655,1.751s-1.138-.439-1.321-1.281.112-1.621.66-1.751S359.225,164.578,359.408,165.42Z" transform="translate(-356.129 -164.215)" fill="#2f3338"/>
    </g>
    <path id="Path_743" data-name="Path 743" d="M355.26,165.207a2.224,2.224,0,0,1,1.881-1.027,3.682,3.682,0,0,1,2.512,1.856" transform="translate(-312.492 -158.452)" fill="none" stroke="#361b13" stroke-linecap="round" stroke-linejoin="round" stroke-width="0.29"/>
    <path id="Path_744" data-name="Path 744" d="M97.937,30.27,96.87,32.009l.867.687" transform="translate(-50.151 -20.767)" fill="none" stroke="#361b13" stroke-linecap="round" stroke-linejoin="round" stroke-width="0.37"/>
    <path id="Path_745" data-name="Path 745" d="M124.909,23.6l-.26-13.366,5.709,5.835-.366,5.662Z" transform="translate(-61.548 -13.128)" fill="#5e3629"/>
    <path id="Path_746" data-name="Path 746" d="M372.216,140s-13.328-.569-15.026,8.824c0,0,5.255-.984,8.675-7.178Z" transform="translate(-313.284 -149.231)" fill="#5e3629"/>
    <path id="Path_747" data-name="Path 747" d="M368.618,142.69s-.619,7.7,16.176,11.355l-.767-7.426-9.436-3.9Z" transform="translate(-317.971 -150.26)" fill="#5e3629"/>
    <path id="Path_748" data-name="Path 748" d="M354.178,173.48l2.565-.941c2.766-1.349,2.489-1.572,7.59-.545l8.162,2.123s2.359,5.526-2.689,8.694c-6.487,4.053-15.923-.872-15.669-8.6C354.142,173.975,354.16,173.733,354.178,173.48Z" transform="translate(-312.029 -161.186)" fill="#fff"/>
    <line id="Line_34" data-name="Line 34" y1="6.349" x2="4.494" transform="translate(58.732 9.002)" fill="none" stroke="#fff" stroke-miterlimit="10" stroke-width="0.77"/>
    <line id="Line_35" data-name="Line 35" x1="3.255" y1="1.696" transform="translate(60.224 13.655)" fill="none" stroke="#fff" stroke-miterlimit="10" stroke-width="0.77"/>
    <path id="Path_749" data-name="Path 749" d="M395.824,173.487a3.863,3.863,0,0,1-4.961,2.544,4.148,4.148,0,0,1-2.424-5.205,3.862,3.862,0,0,1,4.961-2.543A4.155,4.155,0,0,1,395.824,173.487Z" transform="translate(-326.017 -159.93)" fill="#e9a88c"/>
    <path id="Path_750" data-name="Path 750" d="M395.552,172.567a4.243,4.243,0,0,0-4.022,2.475" transform="translate(-327.373 -161.647)" fill="none" stroke="#361b13" stroke-linecap="round" stroke-linejoin="round" stroke-width="0.37"/>
    <path id="Path_751" data-name="Path 751" d="M392.617,186.67a4.223,4.223,0,0,0,4-3.044,4.529,4.529,0,0,0-1.533-4.933l-.254.371a4.068,4.068,0,0,1,1.331,4.523,3.772,3.772,0,0,1-3.756,2.621,3.823,3.823,0,0,1-3.461-3.036,4.033,4.033,0,0,1,1.793-4.343l-.212-.39a4.5,4.5,0,0,0-1.972,4.958A4.238,4.238,0,0,0,392.617,186.67Z" transform="translate(-326.095 -163.888)" fill="#e17852"/>
  </g>
</svg>
