<svg id="_004-shield-2" data-name="004-shield-2" xmlns="http://www.w3.org/2000/svg" xmlns:xlink="http://www.w3.org/1999/xlink" width="73.67" height="84.268" viewBox="0 0 73.67 84.268">
  <defs>
    <linearGradient id="linear-gradient" x1="0.081" y1="0.047" x2="0.943" y2="0.801" gradientUnits="objectBoundingBox">
      <stop offset="0" stop-color="#00db9e" stop-opacity="0.612"/>
      <stop offset="1" stop-color="#76e2f8"/>
    </linearGradient>
    <linearGradient id="linear-gradient-2" x1="1.18" y1="0.968" x2="0.258" y2="0.199" gradientUnits="objectBoundingBox">
      <stop offset="0" stop-color="#b5dbff" stop-opacity="0"/>
      <stop offset="0.243" stop-color="#93cef6" stop-opacity="0.243"/>
      <stop offset="0.576" stop-color="#6abfec" stop-opacity="0.576"/>
      <stop offset="0.84" stop-color="#51b5e5" stop-opacity="0.839"/>
      <stop offset="1" stop-color="#48b2e3"/>
    </linearGradient>
    <linearGradient id="linear-gradient-3" x1="0.305" y1="0.238" x2="0.748" y2="0.607" gradientUnits="objectBoundingBox">
      <stop offset="0" stop-color="#edf5ff"/>
      <stop offset="1" stop-color="#d5e8fe"/>
    </linearGradient>
    <linearGradient id="linear-gradient-4" x1="0.208" y1="0.517" x2="-1.169" y2="0.228" gradientUnits="objectBoundingBox">
      <stop offset="0" stop-color="#b5dbff" stop-opacity="0"/>
      <stop offset="0.173" stop-color="#8fc5e9" stop-opacity="0.173"/>
      <stop offset="0.454" stop-color="#56a4c8" stop-opacity="0.455"/>
      <stop offset="0.696" stop-color="#2d8db1" stop-opacity="0.694"/>
      <stop offset="0.885" stop-color="#147ea2" stop-opacity="0.886"/>
      <stop offset="1" stop-color="#0b799d"/>
    </linearGradient>
    <linearGradient id="linear-gradient-5" x1="0.267" y1="0.267" x2="0.749" y2="0.749" gradientUnits="objectBoundingBox">
      <stop offset="0" stop-color="#00db9e" stop-opacity="0.898"/>
      <stop offset="1" stop-color="#00db9e" stop-opacity="0.898"/>
    </linearGradient>
  </defs>
  <g id="Group_251" data-name="Group 251" transform="translate(0 0)">
    <path id="Path_706" data-name="Path 706" d="M100.492,11.226A40.379,40.379,0,0,1,75.01,2.17a9.672,9.672,0,0,0-12.208,0,40.378,40.378,0,0,1-25.482,9.056,5.248,5.248,0,0,0-5.248,5.248V30.541A59.97,59.97,0,0,0,54.194,77.06l4.32,3.515a16.466,16.466,0,0,0,20.783,0l4.32-3.515a59.971,59.971,0,0,0,22.123-46.52V16.474a5.248,5.248,0,0,0-5.249-5.247Z" transform="translate(-32.071 0)" fill="url(#linear-gradient)"/>
    <path id="Path_707" data-name="Path 707" d="M100.954,112.956a4.429,4.429,0,0,1-2.787-.99L89.9,105.243a52.7,52.7,0,0,1-19.442-40.88V53.2a2.612,2.612,0,0,1,2.453-2.57A43.773,43.773,0,0,0,98.168,40.9a4.416,4.416,0,0,1,5.573,0,43.774,43.774,0,0,0,25.252,9.726,2.611,2.611,0,0,1,2.452,2.57V64.362A52.7,52.7,0,0,1,112,105.243l-8.263,6.723A4.428,4.428,0,0,1,100.954,112.956Z" transform="translate(-64.119 -33.319)" fill="url(#linear-gradient-2)"/>
    <path id="Path_708" data-name="Path 708" d="M113.954,125.444a4.055,4.055,0,0,1-2.551-.907l-7.566-6.155a48.253,48.253,0,0,1-17.8-37.43V70.731a2.392,2.392,0,0,1,2.246-2.353A40.079,40.079,0,0,0,111.4,59.473a4.043,4.043,0,0,1,5.1,0,40.08,40.08,0,0,0,23.121,8.905,2.391,2.391,0,0,1,2.245,2.353v10.22a48.254,48.254,0,0,1-17.8,37.431l-7.566,6.155a4.053,4.053,0,0,1-2.551.907Z" transform="translate(-77.119 -48.889)" fill="url(#linear-gradient-3)"/>
    <path id="Path_709" data-name="Path 709" d="M291.835,16.473a5.247,5.247,0,0,0-5.248-5.247A40.38,40.38,0,0,1,261.1,2.169,9.654,9.654,0,0,0,255,0V84.268a16.436,16.436,0,0,0,10.391-3.693l4.32-3.515a59.972,59.972,0,0,0,22.123-46.52c0-5.4,0-10.476,0-14.067Z" transform="translate(-218.165 0)" fill="url(#linear-gradient-4)"/>
  </g>
  <ellipse id="Ellipse_65" data-name="Ellipse 65" cx="21.812" cy="21.812" rx="21.812" ry="21.812" transform="translate(15.023 19.821)" fill="url(#linear-gradient-5)"/>
</svg>
