<svg xmlns="http://www.w3.org/2000/svg" width="123.885" height="147.235" viewBox="0 0 123.885 147.235">
  <g id="_002-virus" data-name="002-virus" transform="translate(3.885 25.19)" opacity="0.27">
    <g id="XMLID_8_" transform="translate(35.021 39.32)">
      <g id="Group_214" data-name="Group 214">
        <circle id="Ellipse_45" data-name="Ellipse 45" cx="24.151" cy="24.151" r="24.151" fill="#f58a97"/>
      </g>
    </g>
    <path id="Path_672" data-name="Path 672" d="M148.777,170.614a24.156,24.156,0,0,1,20.47-23.872,24.151,24.151,0,1,0,0,47.744A24.157,24.157,0,0,1,148.777,170.614Z" transform="translate(-106.395 -107.143)" fill="#f07281"/>
    <g id="Group_253" data-name="Group 253">
      <g id="XMLID_107_" transform="translate(0 4.053)">
        <g id="Group_213" data-name="Group 213" transform="translate(0 0)">
          <path id="Path_671" data-name="Path 671" d="M119.967,58.035c.438,5.671-3.551,10.706-8.908,11.243a9.5,9.5,0,0,1-9.525-5.6l-4.861.428L93,65.881a2.771,2.771,0,0,0-1.533,2.127,32.372,32.372,0,0,1-1.85,7.15,2.758,2.758,0,0,0,.158,2.348l1.308,2.338,3.635,2.439a6.537,6.537,0,1,1-4.131,7.006l-4.029-2.7-2.536-.31a2.92,2.92,0,0,0-2.372.8,32.817,32.817,0,0,1-7.184,5.191,2.885,2.885,0,0,0-1.513,2.372l-.322,5.136,1.595,6.327a8.121,8.121,0,1,1-7.865,2.021l-1.6-6.365-2.474-3.977a3.623,3.623,0,0,0-3.1-1.7h-.02a32.793,32.793,0,0,1-6.337-.619A3.617,3.617,0,0,0,49.5,96.515l-3.269,3.45-3.66,7.593a6.536,6.536,0,1,1-7.338-3.477l3.683-7.642.723-5.129a2.725,2.725,0,0,0-.973-2.5,32.912,32.912,0,0,1-7.4-8.487,2.718,2.718,0,0,0-2.306-1.3l-5.121-.05-5.607,1.763A9.144,9.144,0,1,1,15.442,73.1l5.951-1.872,4.346-3.1a2.237,2.237,0,0,0,.926-2.013q-.108-1.311-.109-2.647a32.417,32.417,0,0,1,2.967-13.579,2.229,2.229,0,0,0-.022-1.9l-1.288-2.632-3.494-2.637a6.537,6.537,0,1,1,4.512-6.766L33.1,38.875l3.9.7A32.693,32.693,0,0,1,46.8,33.3l.916-5.567-1.157-5.75a9.372,9.372,0,0,1-6.949-7A9.157,9.157,0,0,1,47.193,4.234a9.681,9.681,0,0,1,11.4,7.145A8.89,8.89,0,0,1,54.581,20.7l1.092,5.423,2.682,4.279a.959.959,0,0,0,.812.448h0a32.394,32.394,0,0,1,16.8,4.676.946.946,0,0,0,.887.05l4.2-1.947,4.9-5.3a6.536,6.536,0,1,1,5.961,5.513l-4.9,5.3L85.43,43.431a.947.947,0,0,0,.124.887A32.445,32.445,0,0,1,90.1,53.1a2.785,2.785,0,0,0,1.875,1.8l3.987,1.117,5.181-.458a10.014,10.014,0,0,1,8.338-6.825,9.76,9.76,0,0,1,10.49,9.3Z" transform="translate(0 -4.053)" fill="#eb5569"/>
        </g>
      </g>
      <g id="Group_215" data-name="Group 215" transform="translate(11.66 5.81)">
        <circle id="Ellipse_46" data-name="Ellipse 46" cx="6.877" cy="6.877" r="6.877" fill="#eb5569"/>
        <circle id="Ellipse_47" data-name="Ellipse 47" cx="4.543" cy="4.543" r="4.543" transform="translate(-15.545 89.219)" fill="#eb5569"/>
        <circle id="Ellipse_48" data-name="Ellipse 48" cx="6.691" cy="6.691" r="6.691" transform="translate(81.712 98.304)" fill="#eb5569"/>
        <circle id="Ellipse_49" data-name="Ellipse 49" cx="6.238" cy="6.238" r="6.238" transform="translate(33.861 44.762)" fill="#eb5569"/>
        <circle id="Ellipse_50" data-name="Ellipse 50" cx="4.246" cy="4.246" r="4.246" transform="translate(40.861 66.13)" fill="#eb5569"/>
        <circle id="Ellipse_51" data-name="Ellipse 51" cx="3.565" cy="3.565" r="3.565" transform="translate(54.874 54.095)" fill="#eb5569"/>
        <circle id="Ellipse_66" data-name="Ellipse 66" cx="4.543" cy="4.543" r="4.543" transform="translate(59.118 4.67)" fill="#eb5569"/>
        <circle id="Ellipse_67" data-name="Ellipse 67" cx="5.221" cy="5.221" r="5.221" transform="translate(46.337 -31)" fill="#eb5569"/>
        <circle id="Ellipse_68" data-name="Ellipse 68" cx="5.221" cy="5.221" r="5.221" transform="translate(-11.681 43.652)" fill="#eb5569"/>
      </g>
    </g>
  </g>
</svg>
